<svg xmlns="http://www.w3.org/2000/svg" viewBox="0 0 721.99 814.43"><defs><style>.cls-1{fill:#7c70ff;stroke:#505050;stroke-miterlimit:2.34;stroke-opacity:0;}.cls-2{fill:#a7ff00;}</style></defs><g id="Layer_2" data-name="Layer 2"><g id="Layer_1-2" data-name="Layer 1"><path class="cls-1" d="M633.22,801.76l-.05.55.91.35.12,2.9,1.48,2.16-.83,0,.77,1.09L635,809l-.52,1.1.13,2.2-.49.5-.78-.57-.59,1.52-.54-.25.26-1.27-.71-.37-.14-1.46-1-.86.08-.91-1.27-1.31-.76.2-.14-2.29.43-.32-.47-.31.75-1.6,1.17.07.67-.67,1,.32.11-.8Zm-3.33-5,1.06,2.07-2.65,2.89-.67-1.62.28-1.54,2-.55Zm-8.21-14.37.73.44.07,1.12.44-.15.86.94-.08,1.42-1-.86-1.63.45-.34-.74.38-.56-1,.2.23-1.71Zm4.13-.08.87.9-.13,1.57-1.73-1.4.62-1,.45.71Zm.77-2.4.34,2.16-.76-2Zm-1.28-2.63.46.83-1,1.23,1.11,1.48,0,1.29-.48-.31-.55.37-.19.9-.38-1.17.5.1.14-.69.17.53.29-.78-1.11.66.11-1-.74-.76-.13-1.27Zm-7.18-.85.1,1.11-.48-.6Zm-2.69-2.23.42.23-.42,1.74,1.93,1.5-.13.54-1.87-.67-.89-1.2.18-1.73Zm-2-2.91.33.85-.55-.24Zm14.1-2.48.65,2.6-.39,0-.09,1.13Zm-20.42-16.63.9,1.2.75-.32-.72.42.13,1.32-1,.54-1.43-.18-.27-2.22,1.13,0,.18-1ZM600.38,711l.36.81,0-.5.65.54.05,1.55.67.36.22,2.71-1.4,1.63.73.85-1.39,1.67-1.93-.91-1.22.4.87-2.06-1-1.31-.1-2.85.53.53,1.46-2.52,1.05-.73.28.54Zm3.09-15.3,1.1,1.84-.9.74,1.09.49-.07.43-2.19.6-.51-.51.14-.84.89-.13-.23-1.72Zm-1.09-.78-.33.18.22-1.08Zm-9.32-1.27,1.28.2,0,1.54-1.36-.17Zm7.91-.28.73.37-1,.86Zm11.86-6,1.27.19-.55.59-.85-.41Zm-1.27-4.77.32-.24.67.61,1.1,2.9-.28.52-1-1.7-.64,0-1.2-1.19,1-1.35Zm.49-1.73.09,1.48-.77-.71,0-.85Zm1-1.36.44,2.8-1-.76v-.79l-1.27-.88.72-.14.5.67Zm1-1.36.65,1.73-.5,1.47-.93-1.24Zm-9.07-.61.07,1.76,1.14-.18-.69,2.41,1.52.74-.53.66-.56-.51-.07.63.79.42-1.22.94.13,2.78.55-2,.93-.1.1.87-.81,5-.3-.27-.07.57-1-.42.16.92-1,.41.19.72.34-.39.17.45.87-.91-.2-.68.86.52-1.11,4.7-.33-.74-1.26-.37v-1.26l-.73.24-.24-1.43.69.11.21-.52-.31-.36-.59.41-.49-2.09-.65.59-.38-3.52-.58.24-.23-.57,1.21-2.46.6,1.47.36-.24.07,1,.17-.33.31-5.8Zm.88.44.44,0-.14.86-.62-.1Zm4.07-.94.29.81-.54-.26-.11.52-.2-.71Zm4.34-.16.22.62.48-.57-.13,1.41-.92-.63Zm-3.36-.47-.48,1.25-.5-1.44.62.2.19-.76Zm-4.06-.74,1.5.43.71-.31.57,1-.76.51.54,1.27-.84-.07.11,1-.7-.2-.5.87.25.6-1.18,1.09-.63-.79.76-3.56-.68-.21.2-.71.35.25.42-.54Zm26.21-.26.87.82.14,1.29-1.34-.21-.29-1Zm-21.8-2.36-.57,1.39-.32-.13.27-1.27Zm-6-10.4.17,2.77-.58-2Zm4.63-2.18.57.09-.42.69.57,0,.64,1.93-.49.83,1.14,1.61-.55,1.69.26,3.66-.9.4,0,.37.66,0-1,.61,0,.94-2.08-.54,1.59,2.7-1.54.44-1.5-.43-.41.6-.85-.12-.52-.71.2-6.73-.56-.28.48,0,1.21-1.59-.62-.57.44-.73-.54-2.63.34.42,1.82-2.27.77.61h0l.74-.17h0Zm-5-1.91.6.34,0,2.26-.5,1.19-.64.13.34.48-.52.86-.49-2,.53-2.52Zm7.67-.13-.67.76.08.81-.76-.15.19-1.22.31.5ZM613,644l.38,1.21-.25,2.27.26.79.4-.43.23.38-.38.6.87,1.16-.61.83-.82-1.06-.72-.21-.42.62-.4-.79-.48.41,1.45.6.07,1.1.83-.14v.58l.52-.34-.85,2.36.06,2.46-.76,1.32-.94-.16.22.55-1-1.21-.45.18-.36.81.91,1.27-.65.62-.13-1-.61.06-.69,1.39.46,1.11h0l-.74.18h0l-1.2-1v-1.79l.59,0,.17-.65-.9-.14.2-1.79.63-.18-.3-.76.92-.31-.93-.35.45-2.11.66-.51-.79-.51.48-.62-.5-.19.43-1.64.68-.27-.59-.42h.61l.41-.69-.31-1.06,1.42-.76-.29-.87,1.17-.21.59.42,0-1.14.55.79Zm-.34-2.59.3,1.24-1.26-.7Zm15.43-31-.73,1.69,0-1Z"/><path class="cls-1" d="M213.41,188.85l-.62.47-1.68-.75-.88-1.84,1.69-1.11.25.63.66-.25-.08.55.87.08h0Z"/><path class="cls-1" d="M272,169.74l1.32,1.63-.35,1.23,1,.66.3,1.74,1,1.16,1.4.33.77,2.31,2.17,0,.74,1.86,1.38.88,1.64-1.22,1.26.07.92-.67,1.55.83,1.23,0,1.48,2.48,3.18,1.38,1.46,1.84,1.33-1,.82,1.4.8,0,.36.78-.44,1.16-1,.78.7.7.16,1.89,2.22.33,1.55,1.15.79-.12,3.11,2.19,1.42-.94,3.78,2.54,1.82,2.22,5.13,1.9v.46l-.7-.28-1.94.67-1.17,1.54.36,1.14L310.63,207l-.34,1.21-1.76,1.37h-1.79l-1.25,3.09-1.42,1.47-1.46-.24-1.68,1.56.4,2.14.89,1-.31,1.25-.71.95-.89.23.17,1-1.55,1.18.39.68-1.47.24,0,.92.82.55.11,1.25.92,1-.48,3-1.21-.43.58,2.2-.95.67-1.21-.53-1,1-.22,2.69-.44.71-.43-.13-1,2,.3,2.42h0l-1.15.84.36.47-.66,1.28-1.13.6L289.9,244l-.82-1.49.3-.46-1.5-.18.87-.27-.53-.73h-.73l-.21.91-.8.19.62-1.61-.84-.81-1.54.31-1.13.91-1.3-.57-1.55.64-.35-1.31-.72.82-2.37.21-.24-2.14-.6-.13-.43-.94-.19.5h-1.31l-2.34-2.14-1.13.18.18-.8-.7-.5-.15-1.69-2.56-1.21-.25,1.53-1.35-1.37-.44.48-1.08,0,0-1.46-1.15-1.65-1.3.1-2.12-1.67,1.07-.92.78.58.49-1.51.49.42,1-.68,1.3-1.8-3.39-.56-4.44-2.42L255.51,219l-1-3.31-1.85-.87-2-.68-2.48,2.61-.93-.17-1.34,1-1.41,2.09-.94.25-.17,1.14-1.21.19-.1-1.19-.9-.07.11-.72.62.06-.62-2.58-1.92.1-1.11.92-.9-.36.06-.52-.91-.44.17-2L235.16,212l.77-1.18-.38-.61.67-.93-.37-.56,1-1.1-.36-.62.71-1.47.66.3.63-.64,2.29-3.83-5.44-2.6-1.89-2.05-1.75.18h0l.44-.74,2.42-.61,3-1.7.28-.62-.18-.87-1,0-.8-1,1.29-.6-.07-1.27-1.12-.63.19-.71-1.31-1.65,1.39-1.75v-1.47l1.11.65.15-1.86-1.23,0L236,181l.72-.5,1.31.67-.51-.46.71-1.1-.61-1.54,1-.55,1.1-2.1,1.66-.69,1.47.68.39-.87,1.42-.16,1.48-1.17,2.09-.1.9-1,.6.15.12-.63,1.43-.08,1,1.24.54-.35.61.45.64,1.16,1.65-.09,1.44-.85,1,.42.33.78,3.63-.3.58,1.66,1.3,1.14,3.09-.23-.54-1.8-1.46-1.35-.21-1h0l.45-2.09,1.64-.92,1.38-3.06,2,.91Z"/><path class="cls-1" d="M124.57,476.19l-.75,1.8-1.14-.82-1.94-.38-.2.82-1.05-1.12.18-.64-.7.57-.39-.46.33-1.06-.4-1.07h0l-1.13-1.73.53-.39.94.57.15-.53.75,0,0-.69.6.68.15-.83,1-.1.41-.89.13,1.46,1.2-.32.43.8-.51-.1L122,473.31l-.83.06.14,1.92.27-.45.78.44.62-.42-.11-.89,1.58.25.46.45-.8,1.05Z"/><path class="cls-1" d="M595,366.83l3.1,0,.35,2.71,1.1.29.12-.56,1.13-.41.47-1.84,1.5-.2.31-2.13,1.64-.6,1.84-4.47,1.57,3.85.83-.58L610,363l.15-.5.6.47,1.6-.21h0l.59.34-.07,1.18.53.09-.86,1.69.34,1.9-1.13,2.55,1.91.65.63-.33.53,1.56,1.16-1.16.54.89,1.16.13.17-.91.6,0,.46.67-.28,1,.81-.75,1.21,0h0l-.07,1.79,1.58,1.52.17,4.52,1,2.12-1.17,6.66.42,1.21-1.2.9.72,3.47-.52,2,.49.32-2.36,3.53h-1.1l-1.45-1.44-1.52.34-.09,1.25,1,2.17-.73.16-.56,2.58-.42.16.33,1.75-.51.93,1.29,2.94-.8,1.78.54.31.21,1.51,1.2.95.44,4.4-1.52.39.56,1.23-.38.58-1.91-.85-.74.33.46,2.53h-1.29l-.1,3.13-.52,0-.79-1.24-.6.33-.51,1.88-1.07-3.15-.57.06-3.12-2.36-.46.11-.37,3.45-1.84,1.08-.11-2.13-.86-1.89.43-.28.55.48.09-1.36-2-10.33v-2.48l-.5-2.14-.66-.37-.67-1.88-.24-1.93-.37.18-.28-.88-1.13-.4.45-3.28-.69-1.27-.12-3.51,1.18-.23-.89-2,.19-1.06-1.41-3-.57-4.05-.46-.13.34-1.68-.66-1h0l-.22-2.31.67-.05-.29-.86.42-.6.7.15.27-1.24-.49-1.3.43-.78-.36-1.21.56-3Z"/><path class="cls-1" d="M624,338.28l.07.82.84.09-.14.85,1.22-.17,1.31,1.31,2.09-4.32H630l2.24-2.83-.12-.9-.95,0,.12-1.09,3-.77,1.81.32,1.12-.4.1-.67,1.76,1,.15.73,1.15.25.53-.86.85.07.5,1.42,1.77-.31.66.47,2.63-1.31.24-1.36,1.09-.79.77.13,1.67-2.19.55.17-.48,1.27.47,0-1,1.58,0,2,1.86,1.28,1.22.16h0l-.21,1.19-1.05.78-1.13,4.65,4,2.15-.08,3-1,1.27.4,1-2,2.71-.66,3.24-1.48.15-.48,2.27-1.63,1.54-.88,2.21-.65.15,0,1.8-.95.57.44.55-1.4,1.09,0,1.25-1.61,3.35-.43,3.32-1.22,2.86-.62.07-.23,2.21-1,.26-.65-1.36-3.51-1.52-1.15-.18-2.25.73L631,373.34l-3.36-.12-.43,1.19-1-.53L625,375l-1.14-.71-1.31-2.83L621,371l-.49.2.08,1h0l-1.21,0-.81.75.28-1-.46-.67-.6,0-.17.91-1.16-.13-.54-.89-1.16,1.16-.53-1.56-.63.33-1.91-.65,1.13-2.55-.34-1.9.86-1.69-.53-.09.07-1.18-.59-.34h0l.95-.21-.08-2.32.91-1.72-.29-.37,1.13-.24-.78-.34.73-2.14-.71-.94.77-.85.06-1.83.32-.28.75.82,1.09-.59v-1.22L618,350l.6-1.12-.33-.54.55-.34-.33-1.82.48-.84.89.05.77-1.3L621.9,340Z"/><path class="cls-1" d="M222.46,240.26l.75.89-.5,1.12.68.21,1.49,2.1,1-.09-.3,2,.61,1-1,1.17,1.08,1.62h0l-2.34.68-.42.57.37,1-1.85.57-1.17-.95-.26-1.43-.87-.74-.58.14-1.06-.77v.8l-.91-.37-2.2.51-1-1.33-.06-1,.49,0,.57-1.27h1.38l-.41-.54.92-1.35-.31-3.23,2.2-.45,1.09-1.33,1.3.53.27.67Z"/><path class="cls-1" d="M121,775.41l0,.55-.43.47h-.44l-.32-.13v-.15l.14.13.42,0,.36-.21Zm14.36-44.57-.09,1.07-.15.1-.16-.37.14,0,.1-.16Zm-32.63-.8.1.29-.15-.05Zm32.87-.49.1.36-.08.29ZM110.5,719.06l.17.13v.26l-.83.52ZM136.05,713l0,.1.63.07-.73.26-.27-.1v-.23Zm-37.13,0,.41-.74.13-.53.15-.18h.15Zm2.93-3.15-.08,0,.07.19-.16,0,0-.23Zm.87-.18-.33.25,0-.13Zm10-4.57,0,.21-.32.43-.12-.16,0-.2Zm-15.5-2,0,.06-.1,0Zm17-1.12-.3,1.07-.42.92.42-1.51Zm5.17-5.94.22.26.06.39-.09.1-.15-.59-.12-.1ZM99.26,693.5l.07.13-.11,0Zm13-2.62.06.35-.29.29Z"/><path class="cls-1" d="M231.74,196.87l1.75-.18,1.89,2.05,5.44,2.6-2.29,3.83-.63.64-.66-.3-.71,1.47.36.62-1,1.1.37.56-.67.93.38.61-.77,1.18,1.55,2.44-.17,2,.91.44-.06.52.9.36,1.11-.92,1.92-.1.62,2.58-.62-.06-.11.72.9.07.1,1.19,1.21-.19.17-1.14.94-.25,1.41-2.09,1.34-1,.93.17,2.48-2.61,2,.68,1.85.87,1,3.31,1.92,1.76,4.44,2.42,3.39.56-1.3,1.8-1,.68-.49-.42-.49,1.51-.78-.58-1.07.92,2.12,1.67,1.3-.1,1.15,1.65,0,1.46,1.08,0,.44-.48,1.35,1.37.25-1.53,2.56,1.21.15,1.69.7.5-.18.8,1.13-.18,2.34,2.14h1.31l.19-.5.43.94.6.13.24,2.14,2.37-.21.72-.82.35,1.31,1.55-.64,1.3.57,1.13-.91,1.54-.31.84.81-.62,1.61.8-.19.21-.91h.73l.53.73-.87.27,1.5.18-.3.46.82,1.49,1.12.47,1.13-.6.66-1.28-.36-.47,1.15-.84h0l1.17,0,2.41,2,.86-.07.13.8,1.5.82,1,1.76,2.27.23,1.64,2.15.31-.6-.66-2.57,1.61-.63,1.06,1.36,1.38-.07.56,1.53,1.91.6.52,1.15,1.89,1,.25-.56.81.34.14.83,1.6.93.94-.48.43,1.07,1.11.79,3.23.68.54,2,2.17,2.56v.79l-.47.05.64.52-.25.41,1.32-.24.09-1,1.7.41,1,1.23-.14,1,3.59,2.25,1.93.41,4.5,3.59,1-.07,1-1.91,2.45.15,1.37,1.62,2.1.61,5.93,4.55,6.39-1.19.09,1.57,1.09,2.17-.52,2.31,4.8.06.61.91,2,.53,3.8-.14,2.87,3.39,1.34-.33,1.25-1.92-.62-.62.43-.62-.32-.61,5.56.28,6,3.27h0l-.73.78.64.32,1.53-.39.22.58-.68,1.24,1.39.67.6,1-1,3,2-.07-.74.74,1.24.66.14,2.27-.53.53.56.3.1,1.11.94.4.26-.65,1,.36-.22.88.92.58,1-1,.79.23.27,1.48-.68,1.42.23.48.33.28,1.25-.66.68,1.89,1.89.36.3,1.21-3.51.76-4.69-1.19,0,1.19-.86,1.54-1.82.31-.28.64-1.49-.26v1.86l2,.43.71-.38,1.51,1.75,2.45.29.25,1.56-.55,1.94-1.14-.44-.83,1.12-1.67-.54.16,2.62.76,1.24,1,.08,1.87,1.94,0,.93.88-.25,2.33,1.46,1.35-.33,1.41.76.37,1.06,2.59.4,0,1.18.73-.08,1.57,1.18-.48.91.74.88-1.85-.22-.08,1.43-.52-.24.11-.92-.28,1.15-.89.17-1-1-1.16.41-.54-1.34-1.2.11-.31,2-.87-.15.05.43-2-.22-.21-.92-1.14-.75-1.32.29-.61.67.17,1.58-3.93,2.15-1.63,2.3-1,.22.7.78-1.09.15.13.56-.93.62-.72-.61-.71.66-.23-.27-.48.48.34.19-.95.09-.69,1.05-1.43.58-.61-.26-1.95,1.78-1.26.07-.52,1.15-1,.22-.36.47.55,1.55-1,2.9.63.18.25,3.78.9,1-.09,1.32,1.64,1.37.66-.12,0,.86.81.67-.4.79,1.08.69-1.06,2.67h0l-2.59.7-.29,1.23.46,1.26.74.13.53,1.05L375,365.14l.65,1.31-1.94,4.43h0l-.85.76-.32,1.33-1.48.91-.65,1.83-2.54,1.16-3.64.06L361,374.59h0l-.26-1.13-1.36-.44.59-1.51-1.42-.08L357.33,370l.33-.64,1.22.52.17-2.26.56-.35.35-1.51-.09-2.17-1.31-.33.72-3.08-.51-.37-.08-1.15.83.39,1.35-.3-.11-1.27h-.9l.07-1.23-1.67,0,0-.84-.94-.67-3.17,1.31-.26-.72-1.72,0-.41-.77-.75.61.18,2.32-2-.7-.88.27.06-1.52-.81-.44-.26.54-.57-.09.34-2.87-.13.58-.43-.34.05.41H346l.35.63-1-.3.4-1.15.5,0-.75-.62.41-.54-.9.87h-1.16l-2.65-1.58-1.12.54-1.55-1.67.39-1-.34-2.13-.3.46-1.4-.72-1,.25-1.4-1-1.25.13-.57-1-1.34.51-.26-.52.94-.63-.37-.53-.39.61-.22-1,.66-.63-.92-.23-.38-.75-1.4.24.37,1.18-.72-.24-.55.41.85.82-.58.87-2-.89.93-.07-.2-.63-1,.28L324.6,342l-.41.25,0,1.28-.21-1.35-.92-.05-.57,1.69.39,1-1.48,2,.27,1.65-.69.15.36-.15-.93-.64-.71,1.79-1.39-1.63-1.64-.05.17.59-1.51.18-.46-1.26-1,.42h0l.13.45-.44-.23h0l-1.23.38-.81-.26-.3-.74,1.44-.72-.53-1.11,1.08-.86-.14-1.42,1-1-.67-.95-1,.08-.21,2.23-.69-1-2.47.25.64.39V344l1.25.37V345l-1.21-.27-1.32.48.14-.75-.56.2-1.36-.81.77-.51-.93-.87.3,2.25-1.1-.52-.47.64-.83-.9-.83,0,.59.34-.14,1.2h-.59l-.73-1-1.85.66.41,1.3-.58-.44-1,.62-1.22-.73,2.08-3.11,1.78-.79-.61-1.87-.51.15-1.83-1.39.17-2.67L298.12,335l-.26.65-1.26-.3-.15.88-1.59,1.23-1-.48-1.54.35-.59,2-1.34-.09-.72,1-.27-.63-1.36.45.61,2.44-.6.45.2.95-2.72-1.23-3.64.34.12-.64-.32.21-.6-.82-1.86,2.56-.72-.36.19-1-.92.72-.39-.85-.4.69-.37-1.54.63-1,.82-.1-.39-.34.79-1.2.77,0-.81-.37-1,.67-1.18-.95-.36.79-.54-.78.37-1.06-1.26-.19-.85.81,0,1.05.7-.51.55.77.74-.29-.27,1.16.44.42-.36.37-1.45-1.28.13,1.37.88,1.23-.28.51-1.07.3,0-.84-.57-.21-.54.34.73.2-.13.66-.79.07-.53-1-.45.24.31.67-1.23.19-.53-.9.31-.55-.89-.77-1,1.47-.52-.13.07-1.18.78-1.06-1.09-.61-.17-.78-.84.87.58.3,0,1-1.17-.66L264,342.16l.1-2.43.39.28.42-.79.79.32.72-.61-.42-1.76-.62.5-1.26-.35-.86,3.13-.89-1.13.15-.79-.7.06.21-.46,1.27-.48-.14-.54.91-1,1.84-.34-.45.63-.95,0,.89.64,1.23-.65-.45-1.71-.76.29-.64-.51.8-.9-.48-1.1.63-.29-.27-.77-.35.5-.16-.49-.89.06.05.89-1.18.39.71,1.16-.56.94-.51-.37.79-.22L263,334l-1.81-.28-.61-.67-.18,1,.75.8,1.43.09-1.72.48.52,1.47-1.25.15-.11-.7-1.26-.25,0-.87.31.44.8-.68-.38-.51-.82.1-.59,1-.62-.29L257,336l-.67-.1.37,1.19-1.25-.3.4,1-.41.54-.61.07-.2-.54-.62.84-.65-.31-.33.43.66.49,1.05-.64,1.78,1,.7,4.36,1.1,1-.49,2.61.78.56.37,1.13,2.37,1.11.39,1.25-.39.55.19,2.45-.8,1.19.24,1.48.67.32,2.59-1.25,2.08,3.84-.87.34-.42-.44-.13.92,1.87.68-.43,2.36-1.46,1.41-.71,2.11-1.61.34-.54.81-.78-2.11-.35.52-.34-.39-.82.52L259,367l-2.23-3-1.8-1-1.74,2.59-1.36.59-1.32-1.45.86-1.51-2.32-1.66.07-.78-1.23-1.25,1-1,.24-2.93-1.19-2.17-.28-1.77-1.11-1.19,0-.67,4-3.18v-2.42l1.67-1.13,1.17.05-.61-.67.7-.42-1.51-.71.31-.61-1.07-.77-.23-1.41-.92-.35.58-.7-.89-1,.86-.71.43-1.46.73.17,1.07-.79-.3-1.5.51-.85.64.33.77-.83,2.34.49.67-.67,1,.64.7-.78,3.16-.83.15-1.35-1.59-2,1.82-1.37,0-.44-.58-.08.31-.32,1.25.84-.38-1.67.89-.27-.15-1.23,1.31-.92.36-2.39,1.45-1.22-1.49-1.57,1.43-.43-.58-1.11.93,0,.14-1,.9,0-.49-.93.74-.57.4.42.26-1.08.8-.12-.27-.52.45-.27-1.4-.48.24-1.51.75,0,.24-.76-1.93-.31.3-1.29-1-1.33-.56,0-.16-.86-.29.23.64-1-.31-2-1.36.6.25-.94-1.09-.45-1,.23-1.32-1.67-1.11,0-.62-.77-.45.36-.19-.57-1.38.85-2.3.32-2.84-1.11-.61-.94-.89.2-1-1.36-1.71.29-.52,1.18-1.26-.41h0l-.46-1.45.87.16.88-1.12-1.14-.84-.26.42-2.32-.4L245,294.7l-1.46-.29.14,1.12-.64.38-.38-1.36-1.59.29-1-.68-.24,1-3.37-1.33-.85.59-.08,1-2.74,1.34-2.07.29-.56-.71-.42,1.65.31.57-1.11.56.39-.63h-.88l.26-1.35-.41-1.32,5.58-2.93,2.16-.4.46-1-.71-.24-.1.86h-.46l-.74-1.41-1.14,1-1.72-.59.2-1.13-1.09.3-.57-.77,2.28-.77.35-1.25,1.22-.2.46-.68-.83-.47.12-.59-1.3-1.71.55-1.18-1,.46-1.91-1.51-1.61-.49-.41-.72.36-1-.82-.43-.35-1.07-1.16-.38-.12-1.13.49-.62-1-.5.76-1.15-.14-1.19-1-.63.16-1.92-.7-.51h0l1.57-1.47H228v-1l1.14.3.25-1.32,1.24,0,.45-.72-.66-.29.61-.7-1.38-1.41-.26-1.16.24-.61.34.28.1-1.72,1.14-.61-1.24-.1-.08-.74.74.28-.08-.78.63-.5-1.82-.61.62-.31.08-.73-.79-.86.75-.57-.49-1.54-3.37-2.66h0l-1.08-1.62,1-1.17-.61-1,.3-2-1,.09-1.49-2.1-.68-.21.5-1.12-.75-.89h0l-.12-.64,1-.4-.77-1.45.6-1.41-2.28-2.8.45-2.14-.37-1.2.47-.52-.36-.83.6-1.76-.84-.41-.07-.75.73-.37L221,225l.33-.88L220,221.53l.61-.55-.59-1.35,1.42-3-.65-1.83.87-.63.69-3.2,2-2.71.18-1.31,3.55-1.67-.4-.33.63-1.41,1.22-.57,1.32-2.66,1.08-.82.53-1.7-.42-.38h0Z"/><path class="cls-1" d="M690.17,225.77l.69,1.08-.07,1,1.49,2.09,1.22,0,1.73-1.4.73.82-1.14,2.4-2.13.3-1.84,1.85-1.75.47.88.69.85,1.82-1,1.42.52.89,2-1,2.42-2.5,2.2-.15,2.2-1.17-1.17,2.39.25.8.77-.16.46,2.44,1.93,2.95-.74,1.6-2.79.93.53,1.4-1.63,1.42-.67-.2.14.85-1.28.1-.71.74,1.16,1.31-2.69,2.05,1.38.76,1.26-.22.7,1.38.58-.18.88-1.9,1.28,0,1.71-1.25,2.09-.08,2.13,1.23.58,1.33,1.92.16,1.14-.49.67,1.14,1.74.8,2.37-1.49,2,2,2.66.64,2.92,2.1-.91.12-.81.93.21,1.21-.77,1.18,1.62.19.09.86.94.42-.92,1.05.27,2.5-1.67.19-.31-1.13-1.29.57-3.79,3.22-.15,1.21-1.68,0-1.24,2.14-.88.12-1.1,1.29,1,2.51-.63,1.87,6.4,9-.62.94-.93-.51-.92.33-2.14-1.59-2.69-.73-.3-.71.66-.49-.12-.86-.58-.12-1.46-2.26-2.22-.73-.33.42-2.13-.11L699.15,284l-1.27-.51-5.83.76-4.87,2.45-2.48,3.94-1.45.89h-1.71l-1.9,3.66-1.42-.62L676.7,297l-1.94-.27-2.56,3.6-3.12,1.21-1.6-.83h0l-.53-1.35.71-1.43-.73-.3-.16-1.44-.6-.39,1.22-.71-.95-4.19h0l1.3.35,2.48-2.05,2.69-.85.05-2.14,1.39-1.53,1.82,1.08,5.33-1.71,1.34-.07.82.86.31-.8,2.76-2.09-1-1.87-.24.31-.45-.58-.81.06-.59,1-.11-1.05-.52.75-.45-.37,1-2.1-.2-1.3-1-.37-.39-1-.91-.57.35-.71-.57-.64.45-.44-1-1.19.74-.3-.19-.45,1.06-1.42,2.56-2.16,1.24-2.26-3.74-.24-5.4.54-2.24,2.11-3.24,1.1-1.67-.8-7,2.67-4.2,1-.53,1-1.08.15-1,.88-1.65,0-.17.49-5.49,2.54-.71-1.26-1.56.73-1.71-.76-.55.3-.58-1.31-1,.83,1.12,1.48.07,1-2.52,1.23-2.37,3.16L635.9,284l-3.9,4.35.67.49.23,1.22-1.54.35L629,292.88l-4.6.9-3.49-.68-8.1,1.28-2.5-1.31,0-.56-1.09-.63-5.26-.85-.49.55.15.85-1.48.71-3.1,0-1.47,1-1.15-.26-1.89.91-4.16.24h0l-.11-3.14-1.72-1.57-.25-2.68,1.14-1.69-.74-1.19,1.53-.07.46-.51-1.52-1.09-.11-2-.88-2.2-2,.52-1.89-.59-3.52.32-.74-.89-1,.5-2-2.5.23-.92-.45-.7,1.63-2,.39-1.64-.29-1-.72-.56-.82.15-.53-1.11,2.91-.08,1.17,1.25,2.83.08.89,2,1.44.6,1.6-1.52,1.77.3,3.82-2.77,1.32,0,1.28,2.21,1.58-.46.66-.75,1.19.52,1.14-1.06,1.47.57,1.09-1.57,1.58-.63,1.73-2.48-1.88-2,.59-1.75,2.78-2.12.66.84,1.69-.91,1.71-1.59.88.86.83-.9L612.9,256l4.81-.85.31-1.86-1.2-1.1,2.3-1.81.72-1.71-.13-.93.68-.25.23-.89,2.68-1,.71.63.41-.85,1.06.7,2.12,0,2.75-.88,1.08.58,1.69-1.09,2,1,1.85-2.9-.39-.64.23-1.2,3.95-3.18,1.47-3.63,1.8-1.8,1.71-.12.38-1.06,1.45-1,3.12-.06,1.74-3.36,2,1.24,1.63,1.78.51,2.15,1.82-.55,3.73,1.51-.63-1.2,2.49.83.57.77,3.18.18.39,1.46,3.54.66,1.09-.08.71-1,.33-1.95,1.24.33-.22-2.4,1.18-.11.32-1.23,1,.34,3.44-3,.47.56,2.08-1.55,1.88.25,3-2.27Z"/><path class="cls-1" d="M461.2,459.19l3,0,.24,1.45-1.67.13h0l-2.19,1.57-.4-.56h0l-.82.17.58.7-1.12-.16,1.2-3Zm-70.71-46.12,3.27,1.32.43,1.86,1,.77,1.29,0,1.05,1,3.38-.3.53-.8.74-.13,0-.59,1.23-.37,5.36.14.22-.72,1.36-.13.61.54,1.08-.45.43.67,1.32-.87.18.32,2.66-1.05.28,3.44.47.2-.13.72h.65v.63l-1.09.49-1.15,4.24-1.08.72.55.13,1-.82,1.27.3.58.87.9-.1.38.58,0-.52.94.66.5,1.13,1.7-2.82.57-.47.87.14.12-.93.77-.1,3.58,1.9,1.27.32,1.32-.42.91,1.1,3-1.64.7.9h-1.05l-.67,2.31,3.57.61.16-1,.75-.37,1.43-2.38.65-2L439,420.42l1.82-1.66-.86-.1.29-.52-.68-.23.7-1-.3-1.3-1.37-.84.39-1.16,1.3-.56.41-1.14,1.7,2.09,4.25,1,1.8,2.66,2,1.16.13-.58,1.52-.46.8,1.13H454l.31.61,1.35.36.13.74,1.77.48h0l-.18,1.9,1.85-.28,1,1.56,3.09.31,1.49,1.11.41,1.38-.9,2.16.8,1.11,1.59.13,0-1.25,1.6-.6.22-1.14,1.66.51.68,3.71,2.22.74.44.68,1.81,0,0,.84.69.57-.3,1.65.58.95h0l-2.52,1.67-4.41-.08-2.15,1.06-3.27,2.56-2.19,2.49L460,448.11l0,1.46,3.62,8.31-.31,1-1.88-.33-1.32.68-1.34,3.31,1.16.15-.59-.68.79-.18h0l.4.56,2.19-1.57h0l1.63.41,1.12-.37-6.43,4.54-1.36,3.43,1.24.35,0,1.19-2.48,2.16-3.12,1.39-3.5,4.53-.56,1.55-1.15-.24-1.28-2-1,.21-.28.68,1.44.07,1.71,1.84-17.27,5.59-6.86,3.46-6,4.22-1.86,2.07-3.75,2.72-2.19,2.24-1.55,2.64-1-.63h0l-.62-.61.2-.82-.91-.15-.1.9-1.71,0,.69,1.23.85-.12V504l-1-.07-.62,1.09-.53-1.35-1.89,1.14-.44,1-1.39-.85.63,1.22-.62.75.34.63-.78.71-.8-.26.55.48-.89-.14.49.41-.22.42-.65-.4-.09,1.93-4.46.42-.7.71-1,.09-1.35-1.48-2.15.14-1.72-.56-2.05-4.93-1.17.78,1,1.83-.84-.27-1-1.73.43-.7-.64-.12-1.82-3.55-.72.86.25.83-.63,1-.8-.62-.37,1.77-.88-.15-.05-.4.5.05-.21-1-.29.3-.5-.63-.34.2.46,1.26-.09.54-.64,0,.17,1.4-1.15-1.31-1.54-.36-1,.53.58,1.88.42-1,.85.88-.83-.09,1.59,1.74-.37.75-.92,0-.06.83-1.89.27-.34.84-1.15-.22-.35,1.29-.08-.68-1.7-.79-2,3.07-1,.39L366,516l1.14.05-.67.48.14.51,1.4.26-1.83,2.42.55.66.51-.27-.12,1.39-.89-.23-2.09.85-1-.4-.18-1.18-1,.07-1.13-.76-.56.51.42.64-.65,1.64-2.67,1.15-.78,1.5-1.14-1.07-.11-1,.86-1-.26-.58-1.62-.53.46-1.25-.58.09-.17-1.8-.59.06-.62-.91L350,520.64l.57,1.05L349.38,523l1.44.27-.52.84-.86.2-.1,1.3-.66.52,1.45,1.44L350,528l-.6-.45-.09,2.63-.6.07-.19-.62-.76.35v1.59l-.63.18-1.59-.8-.42-.85-3.34-.37-1.8,1.7-3.72,1.44-1.05,1.1h0l-1.36.83-.37-.61-.62.2L331.54,536l-1-.32-2.16.64-.54-.56-1.83.46h0l.21-2,1.08.24,1-2.42-.08-1.51.86-1.65.34-1.67-.44-.69.57-1.94,1.62-1.09,1.6-.25v-.73l2.14-.15.42-1.71,2.37-2.62.95-.4.3-.93.94.13.19-.71-1.63-.88-.08-.76,1.53.55.5-1.6,1.63-.72,1.11.17.07-1.13,1.17-.05.79-.86.29-2.7,1.64-.4-.35-2.69-.77-1.19.45-.78-.31-.7-1-.24.47-.84-.67-2.76.78-1.41-1-1.1.63-.1.41-1.34-1.57-.17-.67-2.23-1.72.21.59-1-.21-4.3.55-2.06-2-.33-.49-1.54-2.73-1.39-.3-1.09.72-2.25,1.85-1.72,2,2.4.83-1,3,1.88,1.29-.53,2.68,4.39,1.22-1.35,1.32-.56,3.72,1-.54,1.1.34,1.33,1.49-1.41,1.41-.15.36-1-.42-.58.18-2.53-1.87-.26-.82.38-5.12-1.93-.29-2.22.85-1.5-.21-1.6.6-.51-.88-1.38.87-2.36-.47-1.24-.54.54-.19-1.49-1.39-1.16,1.09-1.84-.81-3.52.28-3.29,1.35.57.35.94,1.07.07.65-2.09,1.66-1,1.71-2.49-.32-.91.88-.81-.22-1.25,2.87-.27.9.54.58-.51,1.65.25,1.89-.69,2.09,1.49,1.95.46,1.73-.9.7-3.28,1.39-.67-.51-.7.39-1.65,2.58.92.69-.22-.22-1.34-1.07-1.18-.39-1.35,1.14-3.09,1.49-1,.29,1.17.78-.54-1.6-1.3,1.59-1.76-.42-1.09.59-.84,1.12.55-.13-1,1.32-.31-.32-.75.71-1-1.16-.56-.45-.83.08-2.43,1.53-.27-1-1,2.14-3.2,1.16-.55,1.48.07,2.67-2.68,3.52-.63.93-2.56-1.62-1,.1-.52Z"/><path class="cls-1" d="M592.23,359.54l1.13.5h0v1.18l1,2.18-1.47,3.5,2.06-.07h0l1,2.83-.56,3,.36,1.21-.43.78.49,1.3-.27,1.24-.7-.15-.42.6.29.86-.67.05.22,2.31h0l-.52.12-.58,1.79-.15-1-.77-.41-.15-.86-.43.08-2.28,2.54-1.17-.36-1-1.92-.53.06-.49,1.22.81,5.34-.82.35v.85l-1-.11-1.38,1.11-1.79,3.26,1.49,4.87-.5.68-.9.09-1.34,2.07-.64-.37-1.13.28-1.17,1-.91-.43-1.74-4.82.33-.77-.9-.18.29-.63-.65-1.13h-.89l-.86,2,.82,3.2-1.09-.13-1.17-2.49.05-2.54-.64-1,.38-.31-.6-.5.7-1.1-.72.21-1.06-3.62-1.15-.75.27-.81h-.46l-.82-1.45-.12-1.83.93.63.28-1.09-1.28-.1.05-1.29.87-.37.71.35.82-2.66-.62-1.17.42-.81-.35-.41,1,.07-.11-1,.29-.52.39.28.17-.69,1.77.58.45-2-.45-1.56,4.12.89,2.19-.71.64-2.28-.3-.72.49-.43.42,1.64,1.16.72.75,0-.46-2.79,1.77,1,.79-.53-.14.83,1.15,1.63.53-.14.79-3.37-.53-1.83.9-.56.95.94-.53-1.81,3.58.13.49-1.09.83-.18-.5-1.87.08-.64Z"/><path class="cls-1" d="M36.1,414.69l.72.83-.5.58-1.19-.81ZM24,414.21l.24.39-1.52,1.12.21-1.08Zm21.5-3.06.45.67-1.71.48.18-.75ZM9.73,392l1.33.46.07.67-1.05.28,0,.42-.88-.69.73-.27Zm.76-1.61.72.54,0,.7-1-.66L10,390.4Zm-2.86-2.84.54.66-.27,1.41-.63-.4.09-.95-1,.89-.22-.32Zm.23-3.11,0,1-1.26,1.44.13-1.33Zm-.64-.75.25.64-.64.38-.14-.79Zm-2.41-4.83,1,.55.7-.27-.88,3.76-1.87,1.9-1-.23.46-.22-.48-.46-.77.3.2.42-.71,0,.11-.46-.69.28-.29-.75L1,383l1.6-.05,1.48-2Zm-1,.17L4,380.72l-1.09.78v-2.28Zm4.36-.86.5,2.05-2,.41.48-.93L7,378.79Zm-2.74-.85.67,0,.35,1.38L5,378.58,4.85,378Zm1.4-1.94v1.73l-1.6-.16-.67.82.07-1.33Zm2.23-.07.55.56.66.16-1.59,1.46-.64-.27.06-.58,1.09-.79Zm-1.24-1.48.89,1.84-1.84,2,.62-2.22L7.21,375l-.68.26L7,374.11Zm-1.28-.07-.5,1.62-1.61.91-.17,2.19-.42.33-.42-.47-.94.85,0,2.71-.7.29L.72,380.81l1-1.17L1.22,378l.54,0,1-2.12,1.42-.07.62-1.61.89.33Zm66-18.44,4.7,2L78.59,356l.79.85L82,355.46l3.16.09,1.11,1,3.39-1,.32,1.32,1.15.47.44-1.91,1.08.21.59,1.09,2.67-2.13.81.24V356l2,1,1.11.05.48-.55,2.09.65,1-.25-.69.84-1.15-.35-.7.53,1.09,1.13,1.55-.38h0l.7,1.4,1.39-.1h0l-.15,1.17.69,1.44,1.06-.07-.17-1.09L108,360l1.08.92,2.69.41-.1,1,1,1.56,3.34-.12,1.37,1.06,1.67-1-.69-.53.91-2.34.31-.31.94.46,1.07-.8.34,1.85-.57.86,2.09,1.17,1-.66.51.29-.51.82-.44-.26-.31,1.14-.88-.18-1.53,3.31.77,1.25,2.71,1.08-.62,1.26,1.16,1.09,1.11-.45,1-1.24.06-1.11.95-.35-.1,1.07,1.09,1-.21,1.62.48,1.6-1.54,1.85v2l.33.55,1.1-.34,1.45,1.89.72.15.12,2.32,1.57-1,2.06.87-.58,2,.52,1.18-.63,1.38.5.32,1.26-.41.54,1.15,1-1.22.46.64,1.2-.33,1.54,2.93,1.1-.11.2-.86.59-.1.49,1.06,1,.14.29,1h1.41l.79.71-.16,2.41,1.38.71.6-1.06,1,.1,1,1.86-.14.63,1,.86h0l1.18,2.2-.71.41.5.84.94.9,1.26-.66.68,1.74-1.87,3.41-.47,2.31-2.92,0-2.77,3.38-2.13-.89-.79,1.13.2.47,1-.47-.17,1.14.62-.06.48,1.24.53-1,.41.65.64-.31.1-.9.34,1.08,1.22.11,1,1-.9-.15-.76,1.11-.5-.25-.39,1.21-1.4-.27-.55-1-1,.3-.32,2,.8,1.12-.39.57,1.16.24.18,3,.61-.2.64.5-2,1.88,1.39.76-.2.86h0l-8.27,3.45.85.87-.34.73,1.61,1.65-.27,1.46-2.41.52.91.71.89,2.7,5.15-1.68h2.88l.54.75.73-.5.79.38.88-.78.56.64,0,1.19-1.92.87-.51-.44-.16.54-2.31-.12-.49.41-1-.89-.46,1.64-2,.72-.39-.27-.11,2.76-1.39.92-1.48-.13-.23,2.51-2,.13-.12.76-1.37-.37-1.1.51-.58-1.14-.61.22,1.77,1.56,2.28-.15-.26,1.54.81,1.19.81-.32.21.69,2.22.34-.28,1.13,1.24,2.62.11,2.57-.71.49-.87-.16-.54.93h-1l.56.7-.18,1.35-2.22,1.26-1.16-.29-.75.42-.83-.44-.73-1.49-1.7-1-1,.54-.39-1.67-.72.17-.34,1.2-.91.58.92,1.24,1,.31,0,1.05.46.08-1.75,3.29-.94.64.79,1,.16,3.81-1.37.36-.17-.54-.36.39-1-.23-.54,1.5-1.8.72h0l-.5-.46.8-1.05-.46-.46-1.58-.25.11.9-.62.42-.78-.45-.27.45-.14-1.91.83-.06,1.18-1.53.51.11-.43-.81-1.2.32-.13-1.45-.41.88-1,.1-.15.84-.6-.69,0,.69-.74,0-.16.53-.94-.56-.53.38,1.13,1.74h0l-2.36-.36-1,1,0,1.07-.82-.1v.62l-1.59-.31h0l.45-4.06,1.62-2.06,1.56-3.39.32-2.26-2.61-8.11,0-1.28-.54.26-1.2-3,1.16-.46-1.61-.19.38-1.82-1.32-.32-.2,1.77-.78.32-.22-3.86-.75-1.8.93-2.38,1.76-2.18-1.28.81.71-2.29.76-.3-.53-.29L110,440.26l-.7-1.58.76-1.7,1.8-.91,2.13.17,1.18-.6-1.37.12-1.07-.69-4.9.66-.75-1,.82-.91.72-2.33-1.28-.88-.38-2.59,1.12-5.17.84-1.32,1.62-.44,2.63,1.17,1.34-1.93,1.71.59.6-.28.3-1.16-.45.84-.72.1-.57-1.05-2.26,1.36-1.58-.2-1.33-1.22-2.29,1.09-.1-.81-1.26,2,.16-1.06-.54,0-.88-1.66-1-.48.47-1-.81-.71-.45.37.82.56-.52,1,1,.4.07,1.86-.42.73-1.07-1.89.14,1.75.72,1-.37.49-.51-.88-.3,1.54-.48-.14-1.12,5.24-.91-3.11,1.1-.64.28.28,0-1.2-1.6,1.41-.05,1-.32,1.83.8,1.29.31,4.2,1,2.95-2,5-2.4,2.83-.42,1.27-.8-.52L97,446l-.38.79.78,1.3L95,449.15l-.26.57.07-1.4L94,450l-3.87,1.28-.57.4.25.5-2.26.46-3.69,1.86-1.25,0,0,.68-1.87,1.37-1.54-.11.17.45-4.33,1.44-1.32.62-.15.55H72.18l-.33.54L69,460l-1.78.82h0l-.85-1.15h0l-.23-.27.55,0v-.8h.65l.06-.79-2-.69,2.06-.9-.33-1.56-1-.67-1.85.25-.72-.76L62,457.3l-.13,2.11h0l-1.46-.16-4.33-2.18-8.36-6.61L38.2,439.29l1.26-1.3-.65-1.9-.32.48-1.2-.17,1,1-.54.24.71.57L38,439,26.35,428.38l-6.77-7.8-.53-2,1.2-2.71,2-1.74.44.22-1,1,.61,1,3.09-.74.26.58-1.15,2.36L26.36,420l2.16-.89.34-1,2.11.38,1.62-.54.95-1.36-.63-1.28,1.29.81.28,1.31,2.29-.09.23-.92.86-.05,0-1.26-.65-.2,1.39-.61.41,1.14.37-.29.93,1.1,1-1.43.83.2,1.5-1.65.65.35-.11-.91,2.12-.88.65.43,2.41-.13,2-2.95.25-1.88,1.24-.64,1.24-3,1.72-1.64,1.73-3.8-1.38.34-.89.84-.36,2.2-1,.47-2.72-1.31-.43.61-1.44.37-1-.48.22,1-8.22,2-1.13.82L38,407.23l-1.55-.67-1,.18-1.15-.89-2,.51-2.89-1.47-3.89-.26-9.44-6.1-1.36-.34-4.14-3.57-.17-.5,2.15-1-.77.09-.09-2.14-.76-.91L9.76,390l0-.88-.61-.05-.82-1.2L8,383.45l.28-.66.5.07.1-1,2.66-1.8.83-1.36,1.75-.94-.5-.37-2.76.52L9,380.1l-.27-1.81.77-.29.64-1.2,2.24-1-1.05.1-.61-.74-.19.52-.73,0L9.22,375l.23-.42,5,0,.58-8.93,1.32-.38.53,2.69,1,.34,1.47-2.18,1.32,1.37,2.28-1.16,2.63.91,2.72-1.12,4.71.59,2.45-.62,3.06,2.77,6.8.23,1.45-.71,1.47-2.63,11.24-3.49.91.53-1,1.51.38.92-.32,1.56,2,.73,3.71.07,2.18-.93-.22-.9,1.84-1.5,1-.38,1.21.35,2.08-1.46-.31-.79-2.74-.3.18-2.17-.42-.5.55-2.41Z"/><path class="cls-1" d="M136,589.48l3.77-.34.8-1.52.42,1.22,1.55.2.59,2.48.72.84.72.17,2.42-1.16h0l1.17,0,.41-.73.57.81.45-.45.59.32.32,1.13-.35,1.12.82,1-.77.93.65,1.18V598l1.13.54.33,1.89-2.08.9,1.22.87.37,1-.8,1-.27,1.2.59,1.42-1,1.24.2.61-1.43,1.15-1-.75.08,1.07-.89-.29-1,.63h0L145,610l.26-1-2.13-2.73-1.36-.46.9-1.57-1.32-4.72-.52-1-.81.25-1.43-1.27,2.32.35.49-.46-1.18-1-1.51-.24.44-.85h-1l-.7-3Z"/><path class="cls-1" d="M231.41,523.7l.42-.69-1.17-.81.88-1.77-.72-.24,1.46-.47-1-.46.75-.53.6.25-.09-1.9,1.27-.13.22.66,1.94-.71-.09-3.14.61-.8.71.59,1.26-3.19,2.59-.39-1.5-2.23-1-.07.32-1.06-1,.07.11-.85-1.23,0-.24-1.22.1-.87.88.28.13-1.31,1.12.31-.42-1.19.68-1.17-.29-.42.51-1.51.94-.31L239.1,498l0-.47,2.17-1,2.39,1.83.13.75.77-.34,2.16.48.67-2.48-.37-2.07,3.12-1.16-.73-2.65.79-.35v-.85l-1-1.53.39-.69,1.47-.62.55-1.76-.7-1.52-1.11-.27.63-1.71.41.84,1.18.1.33,1.12,1.94.52.44.6.79-.74,1.91.11,2.78,1.32,1.69-.31,1.5.53.32,2.66,1.41-.3,1.31.48.28,1.67-.64.87.95-.27.63.57,2.08.31,1.85,1.75,1.11-.18-.4-.62.74-.91.18-2.23,1.5.58.23.64,1.35-.15,2.5,1.92,1.78-1.33.24.74,1.13.42,1-1.85,2.48-.73,1.12.25,1.05,1.47,2.76,1.89.81,1.65-.28,2.68-1,1.85.57,1.45-2.1,1.72,0,1.8,1.4-.33.45.67.11,4.22-1.11.72.94,1.21,2,.45,2.43,2.35,1.16-.52.76.53.32-.56,1.62-.53h0l1.83,3.4,3.49-1.08,3.68,2.82.45,1.21,1.19.93-.2.44.88.26-.26.68.7,2.08,1.08,1.24-1.36.91,0,1.22,1.56.14.78-1.75.93.69-.47.25.34,1.67,2.75-.91-.73,2.24,2.18,7.51,1,.09L320.4,535l2.33,1,3.23.14h0l1.84-.46.53.56,2.16-.64,1.05.32,1.28-1.59.62-.2.37.61,1.35-.83h0l.85,1-.25.53-5.07,2.72-.14,1-1.68,2.52.51.52-.55.78-.19,2.32-1.92,2.24-1.08.11-1.17-.85-1.41,1.81-2.11-.06-.47,2.3-2.86.48-1.37.88-2.11-.55.19,1.41h-1.06L313,555.6l-.65.65-2.63-1-2.13.24.43-.83-2.38-1.29-1.58.77-.35,1.48-.88.85-.64-.2-.62-1.35-.7.54.54,1.09-.75,1.11,3.19,1.36.09-.79,2.29.56.06,1.35-.53.12-.26,1.13,1.22,1-1,.64-2.62-.7-.1-.64-1.3-.89-.66,1-.35-1.12-1-.41-.44-2.17-1-1.41-1.5-.06-.47-.82-1.19,1.53-2.17.51-.9,1.49-.44,1.13,1,.28.9,1-.53,1.75-2.22,2.64-1.38.11-1-1.55-1.27.2-.87-1-3.13,1.73-3.72.8-1.74,1.23-4,.54-1,1.36-.17,6.86-1,.57-3.6-.73-2.59,1.11-.5.52.13,2-.94-.13-.24-1.09-.62-.1,0,1.77-1.51,1.63-1.52-.08-2.38-1.84L256.29,581l-3.78-.62-2.2,1.32-1.47-.06-.46,2.61L247,585l-.38,1.31h-1l-.4.55-1.13-.44L243.4,585l-.85,1.09-2.81-.94-2.18.78-2.05-.54-1.41.26-1.3-.9-2.39-.23h0l0-2.08-.48-.72.46-1.86-.56-.31-.07-1.09.67-1.66-.54,0,0-.65.33-.46.8.13.77-.89.63.27,0-1.29-2.39-1-2,.34-1.7-.44-1.44-.59-1.22-1.66,1.4-.15.12-.45,1.72.19.31-.68.89-.19-.58-1.21,1.79-.48.13-1.61-.9.24-.4-.64,1.19-.4,0-.86-1.07-.07.35-1.75.83.1-.44-3.32,1.14-2.52-.91-2.48-2.53-1.48,1-1.21-.46-.28,1.83-1.44-.51-.32.44-2.11,1.17.42.71-.46.19-.82-.63-.59,1.54-.06,0-.64.92.26v-.66l.72-.16.31-.7-.12.57.89.21,0-.84-2.32-.69,0-.78-1,.35-.52-.62-.64.84-.28-.66L228.7,542l.26-2.82,2.75-1.44.1-.44-1.52-.47.16-.48.37-.66.59.23.56-1.41.6.06-.29-1,.77.13.18-1.41.5.29L234,532l-.17-.61-1.33-.44-1.15-1.12,1.35-1.18-.07-1.35-.82-1.26.95-2Z"/><path class="cls-1" d="M165.21,1.91l1.41,1.64,2.81-.12,2-.11,1.76-1.41,1.88-.7,1.87.93,2,2.93,2.35,3.4,3,3.52,1.33,2.62,4,2.58,3.87,1.88,3.28,3.05,3.87,1.28,3.05,3.17,1.87,1.64,3.17.35,2.69,2.93.12,2.11L211,35.36l.82,2.22,1.41,2.11,3.16.94h3.87l4.34,1.29,2.58,2.34,1.05,3.05,1.17,2.11,4.1.47,4.72-2.15,4.07-1h3.28L247.9,43l2.7-2.35,3.16-.7,2.58-1.06,2.35-1.75,4.1-.36,3.4,1.06L268.3,39l1.4-.82V35.12L271,33.6,273.1,33,276,35.36l1.52,1.76,1.88.46,3.63.82,2.81.83,2.35-1.06,1.64-.59L291.38,40l1.41,2.35,2,1,2.46,1.76.71,1.88-.59,2,.35,2.11-.12,1.52-1,2-.12,1.41-1.17,1.64L295,59.5l.11,3-.93,2.34-.94,2.23-.71,1.64-.46,2.58-1.76.93-1.92.85L286,74.29v2.34L285,78.16,282.78,78l-2.46.12-1.17,1,.23,1.29,1.06,1.88.6,2.45-1,4.4-2.41,2.63-1.47.59-2.34-.59L271.15,91l-1.61.74-2.35.44-1.39.44L265.22,94l.51,2.05.88,1.83,1,1.69,1.62,2.63-.44,1.61-1.25,1.1-1.76.73-.29,1.62.22,1.9-.56.84,3.63,3.35.21,2,2.72,1.1,5.54.36.14.91-1.5,3.43-.06,1.51,2.37,2.63.56,2.52,1.53,1.26.76,2.59-.46,1.85-2.4.62L274.86,137l-1.33-1.05-1.36.36-1.89,1.35-.54,2.7-1.36-.34-1.78,1.18-1.54-.71-3.29-3.14-.43-2.7.41-.89-.85-2.84-2.26,1.36-.71,1.23-2-.15-1.46,1.14-.81-.19-1,.68,0,1.3-.7-.53-1.78,1.57-.79-.93.51-.62-.06-1.41,2.27-1.33-.63-1.42.2-2.62-2.06.7.2.73-2,1.27-1.49-.29-.77,1.07-.69-.57-.69,1.1-.78-.33,0,1.27-1.31.16-2-3.11.3-2.12-.85-.28-.82-1.55L236.63,126l.71-1.19-1.92-1.94-1.16-.41-.3.78-1.71.45-1.59,1.65-.86,0-.72.72-1.67-.69-.77,1.76-.7.15-.56-1-1.16-.66-.48.33-.26-.89-1.34-1-.68.5-.24-1.94-1.52.21-1-.77-.91.29-2-1.29-1-2.36-.81.06-1-1.27.61-2.66-.63.29-.6-.56-.57.18-.62,2-2.54.5-1.11-1.3-.85-.08-1.94.87-1.9-.2L200,119l-.93,2.09-3.54.81-.28,1-3.37,2.45-1.94-1.32h-1.45l-.33,1.74,2,1.65.95,1.66-.39,1.92.67,1.38-1.26,2L188.38,137l-1.44.31-.85,1.7-4.5,2-.68,2.11-.28-1-.55-.21.11-.65-1.41.45-2.29-.38-3.12-2-.18-.56-1.2.29-1.41-1.9-1.13-.35L168,138.11l-3.55-1.4-3.38.32-1.38-3.67.83-1.36-.64-1.77,1.16-3.54-1.36.5-.68,1.9-2,.49-1.4.87-3.4-.35-1.64-1.17-2.46-1.18L146.23,126l-2.93-1-2.46-1.76h-3.75l-.82-1.75L135,120.25l-1.65-1.4.71-2.93L133,113.81l-.35-3.64,1.29-1.52L133,104.9l.59-1.41.12-1.75L131.93,100l.12-1.64,1.17-1.41-.94-3.63-1.76-1.76.12-3.4-.35-2.74-1.17-2.93.47-2.93v-2l1.52-1.64,2.58-.71,2-.82.12-2.22,1.52-2.7,1.64-.23,4-.12,1.4-1.06.94-3.51,1.05-2.23V60l-2.11-2.11-2.93-1.29-2.34-.7-1.41-1.06-.82-1.76.47-1.87,1.64-1.06.71-1.4-1.18-2.58-2.46.12-2.81-.35-2.34-.71-4.11-.35-2.22-2-1.06-2.11-.82-3-3.16-1.53-3.63-.82-2.35,1.52-2.58.12-.93-1.41L109.78,33l.59-1.29-.59-1.88.47-1.87,1.17-2.7,2.81-2,2.93-2.46,2.7-2.93,2.58-3.28,1-3.28,2.34-1.53,3.64.35,4.57.47,5.16.24,2.46-.59-2.23-2.46-2-1.08,1-1.4,2.4-.33L143,6.83l3,.7,1.52-1.87,2.12-.47,2-.94,1.64-.82,2.58-1.29,1.75-1.4L160.17.5l2,.36Z"/><path class="cls-1" d="M491.65,304.74l0,.09h0Zm-98.27-26.82.82-.09-.05.86,1.41.45.06.75,1.13-.27,1,1.87,8,1.27,1.75,3.41-.41,3.29-.78,1.32,2.81,1.23.39-.41.52.61.89-.66,1.52,1.37,1.75.26.39.56-.26.66,2.28.8-.94.86,4.28-.3-.46,1.5.82,1.46,3.05.47,1.81-1.36,1.14.25,4.46-2.47,2.47,2.09-.06,3.88,2.1,1.42.83-.19,0,1.13,2.42-1.23.3-1,1.68-.42,2.72,1-.06.61,1.38-.22.62.72.86-.79,1.84-.07,5.3,2.23.71,1.13,4,2.05.84-1,1.68.54,1.5-.63-.06-.66.94-.09.07-.75,2-.42.73-1.51.66,0,.48,3.71,1.76,1.27,2.31-.19.24,1,1.14.06.71.65.68-1.65,2.41-.88,3.44,1.62,1.13-.34.64-1.15,1.38.76.81-.13.57-1.55,1.45.89,1-1.37.95,1.87,1.6.71.15.75h.8l.11-.74,1.49-1.25.21-2.69h0l1,.67.56-.72,1.56-.4.05.54-1.34,1.14.36.51.8-.12.07.8,1,.7-.92.76.17.51.74-.16.6.74-1.91,2-1.72.79-1.84,2.11-.8-.06-.6,1-1.21-.31.1,1.93-.75-.08-.16.42-.45-.6-1.75,1.27-.3,3-.64.64.47,1.11,2.17.53-.68.63.67.38-.3,1.23.84-.05.7,1.28,2.16.92-.32,1.47.46.1-.82,1.25.37,1.37.91.89-.06.64-1-.16-.5-.66-.08.45-.43-.24,0-.6-1.48-.31-.66.87-.49-.32-.39,1.38-.73,0-.62.82-.67-.28-.55,1.07.16.74.57.15-.12,1.08,1.79,1.49-.83,1.18.34.95-1.21-.58h0l-.11-.7-1.86-.27-.58-1.46-1.9,0-.67-1-.8.48L477.7,339l-1.44-.36.35.88-.56.59,0,1.25-2-.89-.54.61-1.14-.49-.8,3.63-1-.45-1,.44L468,346l.28,3.75-.18.74-.9.08-.88.9.44.56-1.14,5.25-3-1-.79,1.52.32,1.29-.86-.77-.54.45-.43-.48-.9.1.13-.81-.71-.68-.64.05-.48,1.14-1.56.41-1.61-1.2-1.39,1.89-1,.47-.42,2.49-.56.09-.34,1.43-.9-.28-1.6-1.74-1.76-.49.82-1.26-.21-1.34.46-.69-1.44.22-1.16-1-.55.72-1.52-.5-.22-2.74-.93-1.11-1.17.13.28-1-2.47,1.28-1.79-1.84-2.48,0-1-.64-1,2.95-1.16.71.38,2.83-2.18-.56-.2,1h-.78l-.45,1.1-.79-.71-5,.65v.8l-3.24.92.46.9-2,1.36-.59-.21.27-1.43-.57.67-1.55.07-.54,1-1.74.1-.44-2.44-1.12.28-.05-1.59-.92-.48-2.87,2-.51,1.68-2.11-.5-.17.77-1.09.2.1,1-.79,1.41-1-1.39-.91.2.12-.75-1-.82L398.7,363l-.51-.75.38-.21-.92-.53,0-.8.79-.6-.82-1.7-.59.05.27.33-.57.57-.54-.6-.43.48-.72-.54-.38.22.15,1-.81-.81-.15,1-.75.63-1.55-3.53-1.35-.69-1.57,2.43-1.49.4-3.73.75-5.39-.59h0l1.07-2.67-1.08-.69.4-.8-.82-.66,0-.87-.66.13-1.63-1.38.08-1.32-.89-1-.25-3.78-.64-.19,1-2.89-.54-1.55.35-.48.95-.22.52-1.14,1.26-.07,1.95-1.78.61.25,1.43-.58.69-1,1-.09-.34-.19.47-.48.24.27.7-.67.72.62.93-.63-.13-.56,1.09-.14-.69-.79,1-.21,1.63-2.31,3.93-2.15-.17-1.57.61-.68,1.33-.29,1.13.75.22.92,2,.22,0-.42.86.14.31-2,1.2-.11.54,1.34,1.16-.41,1,1,.9-.18.27-1.15-.11.92.52.24.08-1.43,1.85.22-.74-.88.48-.91-1.57-1.18-.73.09,0-1.18-2.6-.4-.37-1.07-1.4-.76-1.36.34-2.33-1.46-.88.24,0-.92-1.88-1.94-1-.09-.76-1.24-.16-2.61,1.67.53.83-1.11,1.14.44.55-1.95-.25-1.56L392.2,309l-1.51-1.76-.71.38-2-.43v-1.85l1.49.26.29-.64,1.81-.32.86-1.54,0-1.19,4.69,1.2,3.51-.77-.3-1.2-1.89-.36-.68-1.9-1.25.66-.33-.28-.23-.48.68-1.42-.27-1.48-.79-.23-1,1-.92-.58.23-.88-1-.36-.26.65-.93-.4L391.6,294l-.56-.29.53-.53-.14-2.28-1.24-.66.74-.74-2,.07,1-3-.6-1-1.39-.67.68-1.23-.22-.59-1.53.39-.64-.32.73-.78h0l1.23-.91-.81-.22-.13-1,1.56-.57,2.37.43,1.68-1.54.05-.76Z"/><path class="cls-1" d="M61.89,459.41,62,457.3l1.54-3.83.73.76,1.85-.25,1,.66.32,1.56-2,.91,2,.69-.05.79h-.66v.8h-.55l1.07,1.43h0l-.44-.24.08.37-1.27.36Z"/><path class="cls-1" d="M535.15,331.9l.25,1.51-.62.34h0ZM590.32,295l4.15-.24,1.89-.91,1.16.25,1.47-1,3.1,0,1.48-.71-.15-.85.49-.55,5.26.85,1.09.63,0,.56,2.5,1.31,8.1-1.28,3.49.68,4.59-.9,2.39-2.51,1.54-.35-.23-1.22-.67-.49,3.9-4.35,2.57-1.89,2.38-3.17,2.51-1.23-.07-1-1.11-1.48,1-.83.58,1.31.55-.3,1.71.76,1.57-.73.7,1.26,5.5-2.54.17-.49,1.64,0,1-.88,1.09-.15.52-1,4.2-1,7-2.67,1.67.8,3.25-1.1,2.23-2.11,5.41-.54,3.73.24-1.23,2.26-2.57,2.16-1,1.42.18.45-.73.3.94,1.19-.44.44.56.64-.35.71.91.57.39,1,1,.37.2,1.3-1,2.1.45.36.52-.74.11,1.05.58-1,.82-.05.45.58.24-.31,1,1.86L684,284l-.31.8-.82-.86-1.34.07-5.33,1.71-1.82-1.07L673,286.21l-.05,2.14-2.69.85-2.48,2.06-1.3-.35h0L664.33,293l-2.18,1.14-.88.2-1.42-.93-1,.54-2.08,3.47-2.85,2-1.43.38-.6-.56-.73,1.32-.73-.54-1.9,1.12-.13.95-1.35.58-.21,2.25-1.19.64-.85,1.26-.56-.49-.1-2.29-.32.15-2.23,2.69-.27,3.19-1.66.48-2.54,4.19-.34,2.75-.9,1.78.61,2.39-1.57.87-.81,1.14-1-.45-1.15,1.31-.39-.87L632,322l-.63-1.53-.52.81-1.58.73.44,1.66L626.45,326l-1.81,2.84-1.79.68-2.36,2.3,1.58,2.25,1.63.8.4,1.48-.65,1,.55.95h0L621.9,340l-1.31,4.06-.77,1.3-.89-.05-.48.84.33,1.82-.55.34.33.54L618,350l-.79.56v1.23l-1.1.58-.74-.81-.32.27-.06,1.83-.78.85.71.95-.72,2.13.78.34-1.13.24.28.37-.91,1.73.09,2.31-1,.21h0l-1.59.21-.6-.47-.16.5-1-.14-.84.59-1.57-3.85-1.83,4.47-1.64.59-.32,2.14-1.5.2-.47,1.84-1.12.41-.13.56-1.09-.3-.35-2.71-3.1,0h0l-2.07.07,1.48-3.5-1-2.19v-1.17h0l.49-4.13,1.17-2.14-1.42-4.39,1.42-.57,2.3,1.9,1-.06.41-.68,1,.08.32-.82-.38-1.35-.51.32-.41-.29.54-.1-.33-.52-.79.1-.06-1.6h0l.92-.15.52-1.92L601,344l-.45-1.09,2.39.6,1.12-1.61,3.39-1.14-1-.81.68-1-.19-1.28-.59-.07-.58-1.25-.47.17-1.09-1.14-.34.18-.14-.68-1.12.51-.27-1.5-.75.12,1.9-1.9.22-1.49-1.26.94-.74-.08-.36-1.4-1.38-.3-.9-1.62-.82-.23,0-1.1-1.19-.6-1.27.77-2.58.25-1.68,1.2-.19-3.83.66-1.57,1.13-1-1.53-.13-.18-.9,3.48-3.67-1.39.45-1.55-.46-1.11.92-2,.36-1.52-.23-1.7,1.14-1.28-1.44.14-1.25-1.4-.57L581,317.88l-.27,2.87-1.25,1.32-1.44-.94.66-.68-.14-1.57-1.39-.29-1.83,3.07.73-.08L574.71,323l.81.1.54-.61-.1.46-2,.87-.63-.38-2.1.44-1.43,2.5-1.28.64-.78-.17-.3-1.27.41-2.25-3.29,1.05-.33-.23.71-.65-.72.1-1.2.73.71-1.79-1.53,0-.61-1.65-.66.12.08.82-.89-1.05-1.14.37-.66-.38-.79,1.19-.92-.18.17-1.15-1.52.18-1.51,1.41-.45-.36.56-.69-1.15-.61L551,322.32l.54-1.68-1.41-1.56-1.2.71-.79-.68-.78.1-1,1-3.5.82-1.58-.46-2.8,2.25.42.36-.34.51-1.57.61.27,1.36-.54.81-1,.26,3.08,3.62-3.63,1.57h0l.37-2.32-1.25-2.39.22-1.38-.71-1.33,1.87-3.36-1-.17-.25-.47.84-.34-.88-.93v.8l-.41-.1-.47-1.49-.65.07.63-.57-.14-.78-1-.62.28-.51-.48-.76-.8-.29h0l.38-.24-1-.39.92-.63-.86-.14.78-.57-.59-.87.5.32.31-.35-.49-.95,1,.45-.2-.88.74-.26,0-.61,1.86-.85-.26-.5-.48.17,1.07-1.74-.45-.76.23-2.47.39-.18-.51-1.07.48-.72-.48-1.49h0l.13-.91,2.35.38,4.65-.87,1-.43-.12-1.08.76-1.21,2.14.16L547.1,295l1.35-.16,3.7,2.77,3.76.92,8.42-.33,1-1.1,4.09.4,1.82.7,1.78-1.54,2.08,1.26,3.23-.86,1.56.44,2.83-1.29,1.38-1.7,1-.06L587.3,296l1.48.29,1.07-.37Z"/><path class="cls-1" d="M288.15,713.12h-.94l-.1-1.33-2-.75-.57-1.35,1,.21-.33-1.09,1.27.49.44-.47,1.31.25h0Zm-1.25-24.85-.46-.79-.73.39-.06-.9-1.14.56-1.1-.69.59-1,.8.75.23-.42-.46-.93-.69-.19.52-.89-1.35-.36.85-.82.67,1,.71-.42.44.37-.91.3.52,1.51,1.51-1.41,1,.58h0Zm60.58-123.43-2.05-.9,1.06-.68.07.86,1.49-.12.32-.51.14.73h0l-1.25.11Z"/><path class="cls-1" d="M535.15,331.9l3.63-1.58-3.07-3.61,1-.26.54-.81-.26-1.37,1.57-.61.33-.51-.42-.35,2.81-2.26,1.57.46,3.5-.81,1-1,.78-.11.79.69,1.2-.72,1.41,1.56-.54,1.69,1.72-1.74,1.15.61-.55.69.45.36,1.51-1.41,1.51-.18-.17,1.15.93.19.78-1.2.66.38,1.14-.37.89,1.05-.08-.81.67-.12.6,1.65,1.53,0-.7,1.79,1.19-.72.72-.1-.7.64.33.23,3.28-1.05-.41,2.25.3,1.28.79.16,1.27-.64,1.43-2.5,2.11-.43.62.37,2-.87.11-.45-.54.6-.82-.1,1.4-1.43-.73.08,1.82-3.07,1.39.3.15,1.57-.67.68,1.44.94,1.25-1.33.28-2.87,2.17-1.62,1.39.57-.14,1.24,1.28,1.44,1.7-1.13,1.52.22,2-.35,1.12-.92,1.55.46,1.38-.45L591.52,321l.18.9,1.52.13-1.12,1-.66,1.56.18,3.84,1.69-1.21,2.58-.24,1.26-.78,1.19.61,0,1.1.83.23.89,1.62,1.38.3.37,1.4.74.08,1.25-1-.21,1.49-1.91,1.9.76-.11.27,1.5,1.11-.51.14.67.34-.18,1.1,1.14.46-.17.58,1.25.59.08.19,1.28-.68,1,1,.81-3.39,1.15L603,343.47l-2.39-.61.45,1.1-1.45-.23-.52,1.92-.92.14h0l-1.94-.55,0-.7-2.82-.51-4.1-2.52-7,.59-.71-.31-.22.77-.9-.2-1.55,1-1-.62.29-.82L574.7,343l-1.34-1-1.91-.06-1.69-.87-4.72.19-5.31,1.12-2-.76-1.14.8-1.15-.46-4.34-.1-1.58.83-2.74-1.33-5.58-.9-3.55-2.06-3.37.19.32-.39-.63-2,.82-2.46h0l.62-.34Z"/><path class="cls-1" d="M212.18,182.55l1-.68.13,1,.91.72,1.22-.75,1.28,2.45.62.36.46-.44-.23,1.06.61,1,.51-.37,1.06.3,1.85,1.55.14,2.59-1.14.92.49.74,1.33.44.43,1.3,1.21-.12,1.46.88.87-.24,1.34,1.23,1.23-1.32.07.71-.91.9,1.74-.11.56-1,.82,1.46.79.37h0l.42.38-.53,1.7-1.08.82L229.52,203l-1.22.57-.63,1.41.4.33L224.52,207l-.18,1.31-2,2.71-.69,3.2-.87.63.65,1.83-1.42,3,.59,1.35-.61.55,1.34,2.58L221,225l.51.59-.73.37.07.75.84.41-.6,1.76.36.83-.47.52.37,1.2-.45,2.14,2.28,2.8-.6,1.41.77,1.45-1,.4.12.64h0l-1.17.71-.27-.67-1.3-.53-1.09,1.33-2.2.45.31,3.23-.92,1.35.41.54h-1.38l-.57,1.27-.49,0,.06,1,1,1.33,2.2-.51.91.37v-.8l1.06.77.58-.14.87.74.26,1.43,1.17.95,1.85-.57-.37-1,.42-.57,2.34-.68h0l3.37,2.66.49,1.54-.75.57.79.86-.08.73-.62.31,1.82.61-.63.5.08.78-.74-.28.08.74,1.24.1-1.14.61-.1,1.72-.34-.28-.24.61.26,1.16,1.38,1.41-.61.7.66.29-.45.72-1.24,0-.25,1.32-1.14-.3v1h-1.8l-1.57,1.47h0l-.32-.27-.76.84-.94-1-.62,1,.3-.66-.74-.19,0,.66-.62.42-2.17-1.21-.44,1.17,1.15.39.3.71-2.11-.09-.57,2.34-.9-.5-.78.46-.53-1.13.83,0-.75-.84.48-2.82.57,0,.3-2.35-.49-.16v-2l1.06-4.06-2.74-2.3-1.21.42-.25,1.51-3.45,1.68.21,2.16-1.5.26-1.5,1.09v-1.91l-2.09-.29,1.08-.42-1.21-.79.3-.52.91.15-.66-1.34-2.32.46-1-1.09-1.4,0,1.89,1.4-1.44.76,1.41.75-.33,1.06-1.08.28-.38-.92-.76-.33-1.82.32.9.77-1.45.91.61.72-.33,1.61.8.44-.14,1,.75.63-1.25.93-2.09-1.69-.94.57-2.14-.47.35-1.23-1.19-.21-.13-.45.37-.5.6.39.59-1.33-.75-.45.84-.25-.51-.58,1-.16-.12-.5.75-.54-.49-.41-.77,1.06-.06-.82-1.13-.37,2.26-2.2,1,.13,0,.65.69-.3-1.18-1.32.2-.6-1-.48.18-1.1-1.58-1-.79-1.41-.82-.69-2.93-.39.19-1.39-3.67-2.47-.28-1.57-1.53-.34-.66-3.8-.75-1,.36-1.37-1.14-2.51,1.22-1.38-.13-1-1.89-.16-.1-1.36-1.23-.15.39-1.63-.87-.4,1-1.3-.13-2-.93.2-.31.8-.75-.27.11-1.62-2.36,1.64L173,229l-1.76,1.17-.75-.16-.94-1.53-1.2.43-.94-.29-.64-2.32-2.12-1.11-2.08,1.35-2.63-.46-.2,1.16-1.14.08,0-.95-1-1.59-.66-.18-.05-.69.34-.48.89.22.87-1.93-1.18-1,1-5.34-.46-.44-1.5.76-1.33-.07-.17-1.23,2.18-2.21-.49-1.05-.7-.14.34-1h0l3.15,1.1-.17-.51,1.25-1.32.82.21,1.91-.87,1.19.94.79-.26.09.83.75-.28,1.83,2.62,1.86-.64.48-1,.48,1.19-.57.67.64.65-.42.56,1.58.72,0-1.09.66-.54,1.2,2.45-.92.76,0,1.06-.92.7.38.93,1.18.66.06,1.7,1.79-.62.2-.57-.59-.61.92-1.71.81.32-.37-1,1.07-.5,1.61-2.73,1.66,1.36,1.1-.17.31.66,1.1-.11.3-.76,1.77.51.21-1.51,1.62-.47.6.51.82-.14,1.23,1.84,2.12.45,1.3-.7.44.26,1-1.67.95.27,3.1-2.06-1.42-.55-.45-1.13.93-.44-.32-2.05.6-.3-.42-.31,1.4-1.89-1.59-.86h.53l-.2-.68,1.16,1.13,1.77.31.64-.55-.56-.61,1.58.61.28-.85-.51-.73.72-.54,1,2.88,1,.1.26.59,1.32-.63.54.67.6-.15.63-.72.3-2.84-.85-.26.19-.45-.69-.73-1.27.84.37-1.08,1.54-.16,1.59-1.57,1-.2.58-.76-.67-.15-.28-.81,1.43-1.29,1.24.77.59-.63,1.18,1.36v.75l1.16-.82-.95-1.49v-1.24l.77-1L215,193l.7-1.69-1.35-1.17.09-1.1-.68.67-.37-.86h0l.21-2.22h0l.46-.82-.47-1.15-1.45-1.25Z"/><path class="cls-1" d="M378.06,359.42l5.39.6,3.73-.75,1.49-.41,1.57-2.43,1.34.7,1.56,3.52.74-.63.15-.95.82.8-.16-1,.38-.22.72.55.43-.49.55.6.57-.57-.27-.33.58-.05.83,1.71-.8.59,0,.81.92.53-.38.2.51.75,1.14.16,1,.83-.13.74.92-.19,1,1.39.79-1.41-.1-1,1.09-.2.16-.77,2.12.51.51-1.69,2.87-2,.92.48,0,1.59,1.13-.28.44,2.45,1.74-.11.54-1,1.55-.08.56-.67-.26,1.43.59.21,2-1.36-.46-.9,3.24-.92v-.8l5-.64.78.7.46-1.1h.78l.2-1,2.17.56-.37-2.83,1.16-.71,1-2.95,1,.64,2.48,0,1.78,1.84,2.48-1.28-.29,1,1.17-.14.94,1.11.22,2.74,1.52.5.55-.72,1.15,1,1.45-.22-.47.69.21,1.34-.82,1.26,1.77.49,1.59,1.74.91.28.33-1.43.57-.09.42-2.49,1-.47,1.38-1.89,1.62,1.2,1.55-.41.48-1.14.65-.05.71.69-.14.8.9-.1.44.48.54-.45.85.77-.32-1.29.79-1.52,3,1,1.14-5.25-.45-.56.88-.9.91-.08.17-.73L468,346l1.59-1.77,1-.44,1,.45.8-3.63,1.14.49.54-.61,2,.89v-1.25l.57-.58-.35-.89,1.44.37.19-1.34.8-.47.67,1,1.9,0,.58,1.46,1.86.28.11.69h0l-.27,3.5,2.47,1.71,2.21,2.67.17.89-2.08,1.18.23.77-.76,0,.22.79-.54.79-.48,0,.06-.66-.48.59.54.75,1.5.45-.35,1.28.66.42-.71.86.42.38-.71.05.92.45-.56.84-1,.32-1.94-.83.91,1-.27,1.45.28-.52.4.43-.94,2.15.62.22L483,365.44l-1.13.31-.72,1.23-1.12.1,0,.83,1.36.69-.08,1-3-.15.94.71-.94.6.17.58-2-.81-.06,1.7.48.33-.69.7-1.2.14.59.73-2.5-.75-.7.36-.31-.23.42-.72-2.33-.27.58,2,.75.28.06,1.53-.59.69-.55-.92-.13,2.17-.6-.12-.74-.27.18-.36-1.6-.34.88,1.27-.44.67-.61,0-3.87-1.88-.76.55-1-.94-.48.47-.1.49-1.25.88-.68-.54L460,380l-.68,2-1.33.26-.16-.44-.94,0-2.51.63-1.56,1.13-2.19,0v.55l-1.45.66-.57,1.11-.1,1.24.45.37-1.77,1,.35.41-.36.23-.53-.57-.87.58-.45-.43.34-.91-.43.37-1.86-.46,0-2.53-2.42-.43-.89.86.9,1.55-2.54,1-1.92-.42-.08,1.61.81,1.06-.73.15.29,1.1-1.27,1.62.13,1.81.64,0,1.41,1.73,3-.38.27.93,2.19.69.33,1.12,1.54,1.31,2.11-.57,2.34,1,.57-.54,2,.13.37.63.69-.56-.54,1.14-.84.27-.34-.41-.93.7.74.71-.74,1-.41,2.24,2.23,2,.8-.51L455,409l.84,2.59,2.66.09,1,1.95-.23.65-1.08,0,.41,1.34,2,.78-.36,1.89,1.41.81,0,1.11-1.7.08-.12-.39,0,.69-.25.64h-.59l-.22.06-1.09-.1h0l-1.77-.48-.13-.74-1.35-.36L454,419h-1.14l-.8-1.13-1.51.46-.13.58-2-1.16-1.8-2.65L442.38,414l-1.69-2.09-.41,1.15-1.3.55-.39,1.16,1.36.84.31,1.3-.7,1,.68.23-.29.52.86.1L439,420.42,440.4,422l-.65,2-1.43,2.38-.75.37-.16,1-3.57-.62.67-2.31h1.06l-.71-.9-3,1.64-.91-1.1-1.32.42-1.27-.32-3.58-1.9-.77.1-.13.93-.86-.14-.57.47-1.7,2.82-.5-1.13-.94-.66,0,.53-.38-.59-.9.11-.58-.88-1.27-.3-1,.82-.55-.13,1.08-.72,1.15-4.24,1.09-.49v-.62h-.65l.13-.72-.47-.19-.28-3.45L414,415.24l-.18-.32-1.32.87-.43-.66-1.08.44-.61-.54-1.36.13-.22.72-5.36-.14-1.23.37,0,.6-.74.12-.53.8-3.38.3-1.05-1-1.29,0-1-.77-.43-1.86-3.27-1.32h0l.07-1.3,1.85-1.77,1.72.05,1.74-.91.12-1.76.71-.74.76,0,1.09-2.55,1-.13.47-2-.45-1-2.27.37-.18-.73-1.34.33-.67-1.26-1,1.59-.46-3.13-2.36-1.52.9-5.11-.66-1.18-.91.57-1-.76.09-2,1.31-2.37-.39-2.36-1.7.26-.07,1.59-3.95-1-1.48-2.22.36-1.94-.84-1.76-3.31-1.14.37-.57-.82-.37-.89-3.49-1.46-.38-.55-1.11-2.51-.47h0l1.94-4.43-.65-1.31,1.87-1.35-.53-1.05-.74-.13-.46-1.26.29-1.23Z"/><path class="cls-1" d="M666.44,290.9l.95,4.19-1.22.71.6.39.16,1.44.73.3-.71,1.43.53,1.35h0l-2,1.83v1.06l-2.15,3.27,1,.87,0,.78.76.37-.36,4.08.53.67-.61,1.24.06,1.61,1.61.81-2,3.06-1.72.9-.38.71-.15,1,.92,3-2.84,2.54-.44,1.58-.75.49.39.71-1.37.17-.91,1.77-3.21,1h0l-1.22-.16-1.86-1.28,0-2,1-1.58-.47,0,.48-1.27-.55-.17-1.67,2.19-.77-.13-1.09.79-.24,1.36-2.63,1.31-.66-.47-1.77.31-.5-1.42-.85-.07-.53.86-1.15-.25-.15-.73-1.76-1-.1.67-1.12.4-1.81-.32-3,.77-.12,1.09.95,0,.12.9L630,336.86h-.63l-2.09,4.32L626,339.87l-1.22.17.14-.85-.84-.09-.07-.82h0l-.54-.95.64-1-.4-1.49-1.62-.8-1.59-2.24,2.37-2.3,1.78-.69,1.81-2.83,3.26-2.4-.44-1.65,1.58-.74.52-.81L632,322l-.46,1.73.39.87,1.15-1.32,1,.46.81-1.14,1.57-.87-.6-2.39.89-1.78.34-2.75,2.54-4.19,1.67-.49.27-3.18,2.22-2.69.32-.15.1,2.29.56.48.86-1.25,1.19-.65.21-2.25,1.34-.58.14-.94,1.9-1.13.73.55.72-1.33.6.57,1.44-.38,2.85-2,2.07-3.47,1-.55,1.42.94.88-.2,2.19-1.14Z"/><path class="cls-1" d="M147.49,428.08l1.35.75,2.2-.27.3-.84,1.3-.31.83-1.08,1.42-.17.07,1.46,1.1.44.84,1.21-.59,2.68.19,2.13,1,.22.16,1,5.73,1.88,2.73-.52,3.84,1.73,1.42,2.77L174,442.4l2-.12.05.69,1.47-.37.91.54,1.73-.3,2,.57,1.5-.59,1.59.39,5.29-.51,2,.15,2.06,1.08,1.14-.56,1.49,3-.36.56.7,1.31-.15.46-1.3.16,1.44,2.1,2.21-.26.49.51,2.33-.06,1.88-1,.85-2.14,3.36.09.93-2.36-.9-1.38,3.93-3.46.19-.62-.71-.86.61-.46.19-1.52.94.12.46-.58,1.21.38,4.22-3.22,2.11.25.33-.37.89.88.42-.63,1.45-.17.07-1,4.67-.23,1.64,1.85.72,2v1.69l.89.53-1,.34-2.7-.71-1,.62.53,1.59.76.42.44,2.08,2.4.35.5-.07-.08-.69h1.22l.4.58.59-.68.35,1,.71-.15.39-.55,1.07-.13.15-.57,2,.91L241,443l5.68-2.94.29-1.58,2.17-.32-.07-.62.93.6.81-.5.6.32.45-1.07,1.06.44.19,2.65,1.93-.71,1.43.34.45.76,3.33.58.66-.77.63.71.31-.58,2.35.11.39-.41.89.35.22-.7-.9-1.08.58-.15-.36-.84,2-.7.37.46,1.94.06,1.47-1.62,1.78.26.22-1.93,3,1.19,1.13.11.52-.44,1.79.45,1.19,3.43,2.73-.34,2.1-1.2,3.07,1.89,1.44.17.51-.85,1.41.58,1.73-.52,1.26-1.39,1.81-.71,1.78.37L301,439.5l1,2.18-.55.81.35.81.92.12.19-.79.92.12,2.65,1.92,1.57-.16h0l.4.85-.93,1.27-4.38,2-.6,2,.35,1.59-.58.71.78,2,2.13-.05.09,4.42.85,2.14-1.78.76-.64,1,.74.84,1.37-.71,1.35.22-.89,5.45.78,1.62-1.87.7-.76,1-3.16.73.77,1.35-.69.71.19.49,2.57.14,1,.75.15,1.16,0,2-.62,1.47-1,.08-.91-.65-.92.53,0,.69,1.85.18.37.79-1.62,1.52-.85-.15-.07.56,1.43,0,.63.53-.22-1.36,1.81.14-.07,1.16,3.11,2.15-.22,2.08,1.58.1,1.12,1,1.51.15.43.87.83.26.33,1.39-2.57,1,1.4,1.71-2.36,1.93-1.49.08-.41-1.11-1.53.5-1-2.44-2.27,1.71-1,1.93-1.32.57.08,1.3-1.52,1.23-.07,1.73-1.34,2.27v1.51l2,2.72-1.77,1.53-.85.13.63,1.08h0l-1.62.53-.32.57-.76-.53-1.17.51-2.43-2.34-2-.46-.93-1.2,1.11-.73-.11-4.21-.46-.67-1.39.33,0-1.8,2.1-1.73-.57-1.44,1-1.85.28-2.69-.81-1.65-2.76-1.88L286.52,490l-1.11-.25-2.48.73-1,1.85-1.12-.42-.24-.74-1.78,1.33-2.51-1.92-1.34.15-.24-.64-1.5-.59-.18,2.23-.73.92.39.62-1.11.18-1.85-1.75-2.08-.31-.63-.57L266,491l.64-.86-.29-1.67-1.31-.48-1.4.29-.33-2.65-1.5-.53-1.68.31-2.78-1.32-1.91-.11-.8.74-.44-.6-1.93-.52-.34-1.12-1.18-.1-.41-.84-.63,1.71,1.11.27.71,1.52-.55,1.75-1.47.63-.4.69,1,1.53v.84l-.79.36.74,2.64L247,494.68l.37,2.08-.66,2.48-2.17-.48-.77.34-.13-.76-2.39-1.82-2.17,1,0,.47,1.08.44-1,.31-.51,1.51.29.42-.67,1.17.42,1.18-1.12-.31L237.5,504l-.87-.28-.11.87.25,1.22,1.22,0-.11.85,1-.07-.33,1.06,1,.07,1.5,2.23-2.59.39-1.25,3.19-.71-.6-.62.81.09,3.13-1.94.71-.22-.65-1.27.13.1,1.89-.61-.24-.75.52,1,.47-1.47.46.73.25-.89,1.77,1.17.81-.41.68h0l-1-.39,0,.73-1.11.47-.71-1.2-1.92-.11,1.27-2-1-.31v-1.21l-.68.45-.61-.61-1.9,1.16.12,1-1.22,1.49.26.9-.88-.08-.5,1.66-1.35.56.33,1.09h-1.26l-.61-.81-.22.54-.89-.66-.83.09-.78,1.77,1.12.49-.52.61.19.88-.91.16,0,3L213,534.6l-1.53-.76-.08,1,1.25.79-.63,1-1.16.13.29,1.16-.72.28-.19,1.19-.68-.21-1.2-2.07-1,1.7v-1.48l-1.22,0v1.13l-.92,0,.08,1.36-1.5.42-.32,1-2.07.24.21,1.35.64.52-.56.71.78,0-1.09.63.07.94,1-.06-.28,1.53,1.13.15-.65,1.47-.71,0-.22-1-1.67.5-.77-1.13-1.78.66.09,1.32-.31-1.12-1-.65-1,.93-.6-.62-3,.77-.93-.75-.16-1.64-.62.81-.92-1-.55,1.35-1.61-1.33-1.13.24-.33-1.16-1-.51-.49,2.2-.91.23.15.85.7.19-.18,1,1.33,1.07.06,1.36-.85,1,1.25,2v.8l-.86.68.71,0,.05,1.93-.73.24-.84-.48,0-.86-.83-.12-.14,1.14-1.92.53-.6-1.09-.91.56-.9-.33-1.21.61-1.41-.06-.14,2.07-1.65.86-.8,0,.16-.81H172l-1.25-1.92-1.44.59,0-.41H167l-.28.4,1,.52-.07.7-1.29.56.29,2.2-1.69,0-3.87,1.43-.05,1-.88,1,.74.85-1.18-.06-.15.79-1.54.61-.56-2.08-1.32.17-.5-.87-.13,1.43-1.7.67-.33,1.3-.68-.28.08-.47-.89.09-.38,1.32-.93-1.09.23,1.05-.8.22.38.48.77-.68-.09,1.12,1.05.17.09,1.32.65.16-.18.76-.46-.67-.43.29-.06,1.39.63.86-.37.59.48-.6,1.68.28,0,.59,2,.68.24,1.09-.67,1.05.08,1.52-1.34-.59L153,581.11l.54.46,1.14-.56.84.42L153.55,585l.49,1.24-.45,0-.47-1-.73,1,1.1.2-.6,1.8-1.79.87-1-.05-.56-1.13-.57.82-1.81.91.07,1-.91.19.72.53h0l-2.42,1.16-.72-.17-.72-.84-.59-2.48-1.55-.2-.42-1.22-.8,1.52-3.77.34h0l-.78-.54.64-.22-2.07-4-2-.64-.66-2.51-.68-.47.3-.43-.79-3.26-1.15-4.15-.52-.05.93-1-1,.19,0-1.08-1.2-1.89,0-1.09.62-.26-.64-.88.57-1-.44-.08-.27-4.23-.84-2.18.43-2.41h-.58l.32-.66-.73-.39,1.08-1.31-.79-.88-1-3.94-.84-.84.81-.1.13.55.41-.66-.91-2-1-.53,1-.87-.48-.07,0-1.64-1.15-1.29.76-.68-1-1.41-.32-1.47.52-.57-1.15-2.36-.31-2.28-.3.15-.83-1.37.2-1L119,529.79l.32-.53-.79-1.46.41-1.62-1.39-.66.11-1.57.72,0,.41,1,2.16.5-.33.91.8.92-.19-2.06-.64-1-1.52-.08-1-1.62-.91-.47.3-.82-.76-2.23.81-1.79-1.8-4,.35-2.79,1.15.32.61-.92.73,1,.3-.51.15-1.46-1.53.39L117,507.9l1.23-.16-.46-1,.41-.71.58.3,1.31-.95-.73-.06-.25-1.49-.74,0-.18.79-1.14.94-1.16-.3-.43,2-.91.86.39-1.31-.78-.24.56-2,.29.23.29-.54-.55-.09.27-1.33-1.15-1.87,0-2.93.51-1.36-1-1.16-.32-2.26.88-.74.15-.9-.53.57-1.15-.9-.14-1.49.63-.05-1.26-5.11-.89-1.18,0-.49.72-.18-.42-1.76,1.28-1-.21-2.56.74-1.73h0l1.58.31v-.62l.82.1,0-1.07,1-1,2.36.36h0l.4,1.07-.33,1.05.39.46.7-.56-.18.64,1.05,1.11.19-.82,2,.39,1.14.82.75-1.81h0l1.8-.71.54-1.51,1,.23.36-.39.17.54,1.37-.35-.16-3.82-.79-1,.94-.63,1.75-3.3-.46-.08,0-1.05-1-.3-.92-1.25.91-.58.34-1.2.72-.17.39,1.67,1-.54,1.7,1,.73,1.49.83.44.75-.41,1.16.28,2.22-1.26.18-1.35-.56-.7h1l.54-.93.87.16.71-.49-.11-2.56-1.24-2.63.28-1.13-2.22-.34-.21-.69-.81.32-.81-1.19.26-1.54-2.28.15-1.77-1.56.61-.22.58,1.15,1.1-.52,1.37.37.12-.76,2-.13.23-2.51,1.48.13,1.39-.92.11-2.76.39.27,2-.72.46-1.64,1,.89.49-.41,2.31.12.16-.54.51.44,1.92-.87,0-1.19-.56-.64-.88.78-.79-.38-.73.5-.54-.75h-2.88l-5.15,1.68-.9-2.7-.9-.7,2.41-.53.27-1.46-1.61-1.65.34-.73-.85-.86Z"/><path class="cls-1" d="M274.86,750.07l.56.42-.5.72.28.51L278,754.3l-3.48-2.2-2.08-.18-.25-.58.4-.37,1.16,0ZM248,664.6l.16.94-.92.85,1.84-.26.64,1,1.92,1,2.25-.14-.05-1.13.76,0,.12-1,.42,0,.14,0,.21.6.57-.15,0-1.47.9-.67,1.07-3.73h.52l-.81-1.5.92-1,1.05.34.22-1.3,1.07.27,3.21-1,.14,1.67,1.06,0-.77-.42.51-.82,1.61-.22,2.21,1.57,2.06.17.89-1.94.73-.49V655l1.21-.15,1,1.12,1.15-.83-.17-.83,1.87-.62-.05-.53.59-.21-.23-.32-.63.44.35-1.74-1.24-.55,1.34-.51,2.63.31.32,1.11.78.55,2.18-.92.11,1.32.56-.12-.18.67.84-.36.54.67,1-.71L285,651.54l.8-.77.64.52.5-.56,1.26,0,1.83-.82.69-1-.52-.76.76-.34,0-.84.82-.21.26-.71.75.08-.09-.43-1.05-.21.1-.49,1.86-.2,2,1.48,1.93,0,1.12,2.21.89.49v-1.33h0l.81,3.75-1.13,3.37-1.09,9-2.41,7.86L289,681.85,287.82,685h0l-1-.58-1.51,1.41-.52-1.5.91-.31-.44-.37-.71.43-.66-1-.86.82h0l1.35.36-.52.89.69.19.47.93-.24.42-.8-.74-.59,1,1.11.69,1.13-.56.06.9.73-.39.46.8h0l-1.07,6.12,2,5.22.4,9.46h0l-1.31-.26-.44.47-1.27-.49.33,1.09-1-.21.57,1.35,2,.75.11,1.33h.93l.69,12.89-1.07.52h-2.29l-8.81-1-2.24,1.4-1.62,2.9v1.3l.95,1.35L271,735.07l-.82,1.93L267,740.64l-1.47,2.5-.9,3.17,1,1.83,3.06,2.63,3.13.47-2.39.54-3.41-.32-2,.4L260.45,753l-.23.47-1.49-.06-.38.46.37.4-2,.66-4.13.48-5,3.78-1,1.92-.28,2.74.73-.13,1.06.69-1.5.12-1.59,2.29-.2,1.74,1-.18-.21,2.27-1.61,1.91-.38,1,.43.24-6.48,3-1.41,1.75-4.22,1-.61,1.46L225.65,780l-5.42-4.39h0l.63-.61.93.26-.61-1.64,1.84-1.46-.57-1.38,1.51-.2.43-.89-2.7-5,.52.06.94-1,.7-2.07-.95-1.44-.59,0v-.77l-1.18-1.61,1.23-.61.34-1.29,1.37-1.35-.37-.9.75-.74v-2l.42-.91h.67l.57-2.56,1.09-.49.44-1.14-1.13-.74-.24-1.71-.4.79-.5-.74-1.22.7-1.45-1-1.09-.05.94-2.72.45-.15,0-1.45.59-.22L223,738l.36-.86-.6-.42.87-1.91.6-.26-.27-1.67-1.48-1.8,1.77-.66.51-2.19-.84-.33.1-.83-.89-1.29.19-.86-1.46-.15-2.74,1.51-.32.93-1.67,1-1.61-.4-1.07-1,0-.57-.63.31-.47-.44.49-1.6-.79-1.38.55-4.24-.61-1,1.67-.07-.43-1.15,1-2.38-.23-.72-1.18-.2-.56-1.35-4.15-1.55,1.41-2.68,2.12-.27-1.36-.13,0-1.84-1.18-.58.85-1.61-.71-.56-1.82,1.14-3.33-.42-.86.56-.16-1.26,2.31-1.54-.05-1.48-.71.12-1.5-.87-.94-1.3-1.89-.63-.32.35-1.05-.74-.94.37-.35-2.62,1.11-.71.67.71,1.28-.46.74-1,1.11,0,0-.91h0l.69.11,1.3-1.07.9.68.48,1.51h4.59l1.73.34.52.56.33-.68-.55-1.06,1.75-3.48,1.48.46.33-.9.78-.05.67.48-.23.48.84-.31.37,1.3.93.3-.16-1.25,3.07-.52.36-.47,1.06.11,1,1,.82-.49,1.47.7.92-2.21-.09-1.24.6.31.18-1.41,4.34-.14.72-1.8,1.94-2.4-1-1.54-6.43-.88.11-1.49,1.79-.55,1.51-1.76.4-1.37.12-1.73-1.23.23.77-.79-.69-.18-.21-1.28.69-1.58-.19-.92,1.58-.42.59.63.63-.62.68.25,1.68-3.09-.36-1.18,3.28-1.12.41.57-.62.85.38.21.51-.89.89,1.34h.49l.33-1.27.79.09,1.82,1.82Z"/><path class="cls-1" d="M143.06,202.82v2.09L141.3,207l-.09,2.18,15.48.75h0l-.34,1,.7.14.49,1.05-2.18,2.21.17,1.23,1.33.07,1.5-.76.46.44-1,5.34,1.18,1-.87,1.93-.89-.22-.34.48.05.69.66.18,1,1.59,0,.95,1.14-.08.2-1.16,2.63.46,2.08-1.35,2.12,1.11.64,2.32.94.29,1.2-.43.94,1.53.75.16L173,229l1.08.94,2.36-1.64-.11,1.62.75.27.31-.8.93-.2.13,2-1,1.3.87.4-.39,1.63,1.23.15.1,1.36,1.89.16.13,1-1.22,1.38,1.14,2.51-.36,1.37.75,1,.66,3.8,1.53.34.28,1.57,3.67,2.47-.19,1.39,2.93.39.82.69.79,1.41,1.58,1-.18,1.1,1,.48-.2.6,1.18,1.32-.69.3,0-.65-1-.13-2.26,2.2,1.13.37.06.82.77-1.06.49.41-.75.54.12.5-1,.16.51.58-.84.25.75.45-.59,1.33-.6-.39-.37.5.13.45,1.19.21-.35,1.23,2.14.47.94-.57,2.09,1.69,1.25-.93-.75-.63.14-1-.8-.44.33-1.61-.61-.72,1.45-.91-.9-.77,1.82-.32.76.33.38.92,1.08-.28.33-1.06-1.41-.75,1.44-.76-1.89-1.4,1.4,0,1,1.09,2.32-.46.66,1.34-.91-.15-.3.52,1.21.79-1.08.42,2.09.29v1.91l1.5-1.09,1.5-.26-.21-2.16,3.45-1.68.25-1.51,1.21-.42,2.74,2.3-1.06,4.06v2l.49.16-.3,2.35-.57,0L215,271.9l.75.84-.83,0,.53,1.13.78-.46.9.5.57-2.34,2.11.09-.3-.71-1.15-.39.44-1.17,2.17,1.21.62-.42,0-.66.74.19-.3.66.62-1,.94,1,.76-.84.32.27h0l.7.51-.16,1.92,1,.63.14,1.19-.76,1.15,1,.5-.49.62.12,1.13,1.16.38.35,1.07.82.43-.36,1,.41.72,1.61.49,1.91,1.51,1-.46-.55,1.18,1.3,1.71-.12.59.83.47-.46.68-1.22.2-.35,1.25-2.28.77.57.77,1.09-.3-.2,1.13,1.72.59,1.14-1,.74,1.41h.46l.1-.86.71.24-.46,1-2.16.4-5.58,2.93.41,1.32-.26,1.35h.88l-.39.63,1.11-.56-.31-.57.42-1.65.56.71,2.07-.29,2.74-1.34.08-1,.85-.59,3.37,1.33.24-1,1,.68,1.59-.29.38,1.36.64-.38-.14-1.12,1.46.29.24-1.33,2.32.4.26-.42,1.14.84-.88,1.12-.87-.16.46,1.45h0l-1.2.24.37,1-1.88-.15.4,1.16-.66.46-.09,1.51-2.3-.54-1.1,1-1.31.08-.38,1.15-1.45.56-.18,1.24-1.69.26-.75,1.12-1.14-.11-3.57,2.56-2.35.22.12,1.14-2.41.22L225,311.41,222.86,313h-2l-.79,1.29-1.41.24-1.2,1.35-2.42,1.07-1.42,1.74.25.5-.84,1.59-1.24.31.16.53-.72.54-2.15-.18-.48,1-.84-.09L206.25,325l0,1.75-1.19.43-.11.63.81.6.24,3.89,1.08,2.37.61.3.34,1.15,1.93,1.18,2.11.26.09.65,1.79-.5,1.24.22,1.2,1.28.42-.6,1.61-.1,1.27-1.05,3.19.77.37-1.68,1.55-1.37.55-.34,1.38.63-.61,2.37.87.15-.54,1.31,1.39,1.24.29.9-.67.13.19,2-2.36.79-1-.95-2.28.15-1.36,1.2-.92.31-2.06-.6-3.44,1.89.91,2.45.73.07-.17.78.87.41-.56.62-2.34.26-.74.55,1.13,1.88,1.53.1,1-.51.5.91,1.35.57.81,1.84.13,2-.35,1.17-.46-.06-.75,1.37-.89.46-1.25-.73,0-1.5-.82.49-.33-.65-1.28.41.91,1.75-.28,3.52.84,1.82,1.74,1.74-.7.47-.4,1.55-1.09-.21-1.35.5L211.81,369h-1.32l-.67-.59.7-1.49-.24-1-1.88.6-.06.55-.64-.2.23.53-.78.78.34.54-1.19.47-1.51-1.83-.41.39-.74-.27-.22.53-2.16-1.25-1.09,1-1.65,0L198,366l.29-.71-.52-.55-1,1.24.28,1.12-.82,1.27.33,2.72-2.16.53-2.14,1.35.38,2.48-2.39,1.29-.44-.29-1.64.57-.43.55-.67-1-1.17-.38-.1.72.76.51-.27,1.05h-.75l-.08,1.58-.8-1.11-1.71,0-.65-.68.49-.42-.38-.5-2.57-1.63.21-1.6,1.22-1.83,1.29.7.42.82,1.26-.21.85-.9.77,1.73,1.51-.78.44-1.72,1.33-.36.05-1-1.14,0-.32-.79h-.81l.74-2.19,1.31-.68-.38-1.54-1.14-.19-.67-1-.27-1.55.7-.11-.16-.51,1-1.26,1.39,1.52,1.52-1,.07-1-.51-.47.83-.64-.45-.5.26-.52-1.33-1.12-.61.46-.26-.47.51-1.07-.53-.5.29-1.58-1.95-.94-3.61,2.06-.78-.92-3.2.79-4.55-1.06-1.24.28-.78-1.24.52-1.13,1.12-.73-1.25-1.28.17-.69.38.54.65-.16-.56,1,1.27.15.67,1.09,2.74-1.37.18-.78-2.43.16-.36.47-1.23-.54.78-.91-.66-1.05.24-.4.94,2.07.58-1.7-.46-1.17.8-.51-.14-.47-4.6-.08.13,1.46-1.2.71.08,2.06-1.54.2-.32.61-3-.88-.18-1-.7-.58-.43.35-.51-1-.56,1.24.79,2-.17,1.64.24-.55,1.44.7,2.22-.24.33,1.17h-.66l.15,1.19-.93.21-.47,1.09-1.23.13-2.31-3.78-.59,2.91,1,.43-.83,1,.16.7-1,.37.22,1.14-1.1,1.18,1.65.74.93-.21,0,.79,1-.15-1.75,2.58-.09,1.47-.76.92,2.88.06.61.51.29.75-.61.54,2.75,4.94-1.76,2.52-.39,1.66.86,3.72-.81,1.4.79,1.4-.83.2-1.49,1.84-1.05.54-.44-.38L162,387l-.81-.09L160,387.94l-1,.08-1,1-.08,1.2-1.29,1.3.87,1.24.45-.49,1.84,1.1,1.35-.34.52.8-.67.51,1.25-.25v.55l-.75.46-1.14-.18-1.51,1.51-1.53.34-.83,1.15-3-.61-1.69,1.31h0l-1-.86.14-.63-1-1.86-1-.1-.6,1.06-1.39-.71.17-2.41-.79-.71H145l-.29-1-1-.14-.49-1.06-.59.1-.2.86-1.1.11-1.54-2.93-1.2.33-.46-.64-1,1.22-.54-1.15-1.26.41-.5-.32.63-1.38L135,385.7l.58-2-2.06-.87-1.57,1-.12-2.32-.72-.15-1.45-1.89-1.1.34-.33-.55v-2l1.54-1.85-.48-1.6.21-1.62-1.09-1,.1-1.07-.95.35-.06,1.11-1,1.24-1.11.45-1.16-1.09.62-1.26-2.71-1.08-.77-1.25,1.53-3.3.88.17.31-1.14.44.26.51-.82-.51-.29-1,.66L121.34,363l.57-.86-.34-1.85-1.07.8-.94-.46-.31.31-.91,2.34.69.54-1.67,1L116,363.77l-3.34.12-1-1.56.1-1-2.68-.42L108,360l-1.08,1.52.17,1.09-1.06.07-.69-1.43.14-1.18h0l-1.28.14-.8-1.44h0l-1.55.38L100.77,358l.7-.53,1.15.35.69-.84-1,.25-2.09-.65-.48.55-1.12-.05-2-1v-1.19l-.81-.24-2.67,2.14-.59-1.1-1.08-.21-.45,1.91L90,356.87l-.32-1.31-3.39,1-1.11-1L82,355.46l-2.59,1.41-.79-.85-1.32,1.23-4.7-2h0l-4-6.86-1.26-5.67-3.16-3.27L63.63,338,61.9,336.1l.34-3.47-.54-4.89-1.21-.26-2,.81-3.37.36-3-1L47.65,321l-.34-3.54,2.23-4.68.27-6.61-.4-1.75-2.5-1.34-4.61.51-1.57-.31-2.31-1.69L33.14,299l-.59-1.58.73-5.8,1.6-4.09,7-6.55,1.83-2.74,2-1.49,2.26-5.84L49.15,269l5.16-4.83,2.89-.72,1.95.4,2.7,2.93.15,2.09,2,3.37,3.12.52,9.58-4,3.37-.67,6.13-.08,5.9-2.46.88-4.71,1.54-2.22,4.65-4.21,2.9-8.56,2-2.78,8.05-4.79,5.68-2.58,1.44-3.37,2.2-2.86,4.49-8.67,3-10.76,5.42-2.4,4.34-1.24Z"/><path class="cls-1" d="M247.68,296.6l1.26.41.52-1.18,1.71-.29,1,1.36.89-.2.61.94,2.84,1.11,2.3-.32,1.38-.85.19.57.45-.36.62.77,1.11,0,1.32,1.67,1-.23,1.09.45-.25.94,1.36-.6.31,2-.64,1,.29-.23.16.86.56,0,1,1.33-.3,1.29,1.93.31-.24.76-.75,0-.24,1.51,1.4.48-.45.27.27.52-.8.12-.26,1.08-.4-.42-.74.57.49.93-.9,0-.14,1-.93,0,.58,1.11-1.43.43,1.49,1.57-1.45,1.22-.36,2.39-1.31.92.15,1.23-.89.27.38,1.67-1.25-.84-.31.32.58.08,0,.44-1.82,1.37,1.59,2-.15,1.35-3.16.83-.7.78-1-.64-.67.67-2.34-.49-.77.83-.64-.33-.51.85.3,1.5-1.07.79-.73-.17-.43,1.46-.86.71.89,1-.58.7.92.35.23,1.41,1.07.77-.31.61,1.51.71-.7.42.61.67-1.17-.05-1.67,1.13v2.42l-4,3.18,0,.67,1.11,1.19.28,1.77,1.19,2.17-.24,2.93-1,1,1.23,1.25-.07.78,2.32,1.66-.86,1.51,1.32,1.45,1.36-.59L255,363l1.8,1,2.23,3,.74.29.82-.52.34.39.35-.52.78,2.11.54-.81,1.61-.34.71-2.11,1.46-1.41.43-2.36-1.87-.68.13-.92.42.44.87-.34-2.08-3.84-2.59,1.25-.67-.32-.24-1.48.8-1.19-.19-2.45.39-.55-.39-1.25L259,349.29l-.37-1.13-.78-.56.49-2.61-1.1-1-.7-4.36-1.78-1-1.05.64-.66-.49.33-.43.65.31.62-.84.2.54.61-.07.41-.54-.4-1,1.25.3-.37-1.19.67.1.38-.68.62.29.59-1,.82-.1.38.51-.8.68-.31-.44,0,.87,1.26.25.11.7,1.25-.15-.52-1.47,1.72-.48-1.43-.09-.75-.8.18-1,.61.67L263,334l.39.31-.79.22.51.37.56-.94-.71-1.16,1.18-.39-.05-.89.89-.06.16.49.35-.5.27.77-.63.29.48,1.1-.8.9.64.51.76-.29.45,1.71-1.23.65-.89-.64.95,0,.45-.63-1.84.34-.91,1,.14.54-1.27.48-.21.46.7-.06-.15.79.89,1.13.86-3.13,1.26.35.62-.5.42,1.76-.72.61-.79-.32-.42.79-.39-.28-.1,2.43,1.89-1.47,1.17.66,0-1-.58-.3.84-.87.17.78,1.09.61-.78,1.06-.07,1.18.52.13,1-1.47.89.77-.31.55.53.9,1.23-.19-.31-.67.45-.24.53,1,.79-.07.13-.66-.73-.2.54-.34.57.21,0,.84,1.07-.3.28-.51-.88-1.23-.13-1.37,1.45,1.28.36-.37-.44-.42.27-1.16-.74.29-.55-.77-.7.51,0-1.05.85-.81,1.26.19-.37,1.06.54.78.36-.79,1.18.95,1-.67.81.37-.77,0-.79,1.2.39.34-.82.1-.63,1,.37,1.54.4-.69.39.85.92-.72-.19,1,.72.36,1.86-2.56.6.82.32-.21-.12.64,3.64-.34,2.72,1.23-.2-.95.6-.45-.61-2.44,1.36-.45.27.63.72-1,1.34.09.59-2,1.54-.35,1,.48,1.59-1.23.15-.88,1.26.3.26-.65,1.36,1.13-.17,2.67,1.83,1.39.51-.15.61,1.87-1.78.79-2.08,3.11,1.22.73,1-.62.58.44-.41-1.3,1.85-.66.73,1H304l.14-1.2-.59-.34.83,0,.83.9.47-.64,1.1.52-.3-2.25.93.87-.77.51,1.36.81.56-.2-.14.75,1.32-.48L311,345v-.61L309.7,344v-.67l-.64-.39,2.47-.25.69,1,.21-2.23,1-.08.67.95-1,1,.14,1.42-1.08.86.53,1.11-1.44.72.3.74.81.26,1.23-.38h0l.38.25-.07-.47h0l1-.42.46,1.26,1.51-.18-.17-.59,1.64.05,1.39,1.63.71-1.79.93.64-.36.15.69-.15-.27-1.65,1.48-2-.39-1,.57-1.69.92.05.21,1.35,0-1.28.41-.25,1.52,1.34,1-.28.2.63-.93.07,2,.89.58-.87-.85-.82.55-.41.72.24-.37-1.18,1.4-.24.38.75.92.23-.66.63.22,1,.39-.61.37.53-.94.63.26.52,1.34-.51.57,1,1.25-.13,1.4,1,1-.25,1.4.72.3-.46.34,2.13-.39,1,1.55,1.67,1.12-.54,2.65,1.58h1.16l.9-.87-.41.54.75.62-.5,0-.4,1.15,1,.3-.35-.63h.58l-.05-.41.43.34.13-.58-.34,2.87.57.09.26-.54.81.44-.06,1.52.88-.27,2,.7L351,355.2l.75-.61.41.77,1.72,0,.26.72,3.17-1.31.94.67,0,.84,1.67,0-.07,1.23h.9l.11,1.27-1.35.3-.83-.39.08,1.15.51.37-.72,3.08,1.31.33.09,2.17-.35,1.51-.56.35-.17,2.26-1.22-.52-.33.64,1.26,1.45,1.42.08-.59,1.51,1.36.44.26,1.13h0l-1.47,1.09-2.26.39-.11,1.38-1.63.9-1.45,0,.43.81-.7.26-1.39-.72-3.24.2-1.8-.49-.72.41-.66-.68.11-.56-1,.89-2.89,0-1.1-1.14-1.23.27-.85-.54-1.56,1.31-1.73.33-1.57-.76.09-.5-1.51-1.79-1.26.5-.3,1.43.8.61.22,1.6.85.46.32.88-1.08,1.63-.74,0-.26,1.63-.81.31.18.9.7.12,0,1.17.52.44.65-1.11.95.22,1.06-1.17,1.69.57.55.93,2.2-.56,1.48,3.18,1-.28,0,1,.77.27,1.3-.53.31,1.12.66-.16,1.19,1,.08,1.09-1.15,1.52.21,2.29-.87,1-1.2-.34-1.06,1-2.12.06-.49,1,.54,2.23-2,1.12-.09.64-2.14.47-.21,1,.58,1.8-.93,1.07.39,1.67-.54.41-.44-.75-.39.71-1.24.47-.2,1.67-.62.12-.19.68-2.38,0-1,1.24-1,0,.25.71-.59-.32-.68,1-.44-1.7-1.38-.5L324,414.1l-.7-.47-1.41,1.27-.94-1-1.73,1.3.1,3.89-.72,1.26-1.61.47-.09,2.55-1.11.48.81.47-.11.94-.88.08-.32-1.45-1-.16-1.6,4.19-.68.1.45.56-.12,3.46-.5,1.51-1.69-.27-.6,1.21-.23,3.3.52,3L308,444.51h0l-1.56.16-2.65-1.92-.92-.12-.2.8-.91-.12-.35-.81.55-.81-1-2.18-2.72-2.62-1.77-.37-1.81.72-1.27,1.38-1.72.52-1.41-.58-.51.85-1.45-.17-3.07-1.88-2.1,1.19-2.73.34-1.18-3.42-1.8-.46-.52.45-1.12-.12-3-1.19-.22,1.93-1.77-.25-1.48,1.61-1.93-.06-.37-.45-2,.69.36.85-.57.14.89,1.09-.22.69-.89-.35-.39.41-2.35-.11-.3.58-.64-.7-.66.77-3.32-.59-.45-.76-1.43-.33-1.94.7-.18-2.64-1.06-.44-.46,1.06-.6-.32-.8.5-.94-.6.08.62-2.18.32-.29,1.59L241,443l-1.4.24-2-.91-.14.56-1.08.14-.39.55-.71.15-.35-1-.59.67-.4-.57h-1.21l.08.7-.51.07-2.4-.35-.43-2.09-.77-.42-.53-1.58,1-.62,2.7.7,1-.34-.89-.52v-1.7l-.72-1.95-1.64-1.86-4.67.23-.07,1-1.45.16-.42.63-.89-.87-.34.36-2.1-.25-4.22,3.22-1.21-.37-.46.57-.94-.11-.19,1.51-.61.46.71.86-.19.62-3.93,3.46.9,1.39-.93,2.36-3.35-.09-.86,2.13-1.88,1-2.33.05-.49-.51-2.2.26-1.45-2.1,1.3-.16.15-.46-.7-1.31.37-.55-1.5-3-1.14.56-2.06-1.09-2-.15-5.29.51-1.59-.39-1.5.59-2-.57-1.73.3-.91-.53L176,443l-.06-.69-2,.12-2.58-1.28L170,438.35l-3.84-1.72-2.73.51-5.73-1.88-.16-1-1-.22-.19-2.12.59-2.69-.84-1.2-1.11-.45-.06-1.46-1.42.17-.83,1.08-1.3.31-.3.84-2.2.27-1.35-.75h0l.2-.86-1.39-.77,2-1.88-.64-.5-.61.21-.18-3-1.16-.24.39-.58-.8-1.11.32-2,1-.31.55,1.05,1.4.27.39-1.21.5.24.76-1.1.9.15-1-1-1.22-.1-.34-1.08-.1.89-.64.32-.41-.65-.52,1-.49-1.25-.62.06.18-1.14-1.05.47-.2-.46.79-1.13,2.13.89,2.77-3.38,2.93,0,.46-2.32,1.87-3.4-.68-1.74-1.26.66-.94-.9-.5-.84.72-.41-1.19-2.2h0l1.69-1.31,3,.61.83-1.15,1.53-.34,1.51-1.51,1.14.18.75-.46v-.55l-1.25.25.67-.51-.52-.8-1.35.34-1.84-1.1-.45.49-.87-1.24,1.29-1.3.08-1.2,1-1,1-.08,1.13-1.05.81.09,1.27-1.28.44.38,1.05-.54,1.49-1.84.83-.2-.79-1.4.81-1.4-.86-3.72.39-1.66,1.76-2.52-2.75-4.94.61-.54-.29-.75-.61-.51-2.88-.06.76-.92.09-1.47,1.75-2.58-1,.15,0-.79-.93.21-1.65-.74,1.1-1.18-.22-1.14,1-.37-.16-.7.83-1-1-.43.59-2.91,2.31,3.78,1.23-.13.47-1.09.93-.21-.15-1.19h.66l-.33-1.17-2.22.24-1.44-.7-.24.55.17-1.64-.79-2,.56-1.24.51,1,.43-.35.7.58.18,1,3,.88.32-.61,1.54-.2-.08-2.06,1.2-.71-.13-1.46,4.6.08.14.47-.8.51.46,1.17-.58,1.7-.94-2.07-.24.4.66,1.05-.78.91,1.23.54.36-.47,2.43-.16-.18.78-2.74,1.37-.67-1.09-1.27-.15.56-1-.65.16-.38-.54-.17.69,1.25,1.28-1.12.73-.52,1.13.78,1.24,1.24-.28,4.55,1.06,3.2-.79.78.92,3.61-2.06,1.95.94-.29,1.58.53.5L189,357.1l.26.47.61-.46,1.33,1.12-.26.52.45.5-.83.64.51.47-.07,1-1.52,1-1.39-1.52-1,1.26.16.51-.7.11.27,1.55.67,1,1.14.19.38,1.54-1.31.68-.74,2.19h.81l.32.79,1.14,0-.05,1-1.33.36-.44,1.72-1.51.78-.77-1.73-.85.9-1.26.21-.42-.82-1.29-.7L180,374.12l-.21,1.6,2.57,1.63.38.5-.49.42.65.68,1.71,0,.8,1.11.08-1.58h.75l.27-1.05-.76-.51.1-.72,1.17.38.67,1,.43-.55,1.64-.57.44.29,2.39-1.29-.38-2.48,2.14-1.35,2.16-.53-.33-2.72.82-1.27-.28-1.12,1-1.24.52.55L198,366l.52,1.82,1.65,0,1.09-1,2.16,1.25.22-.53.74.27.41-.39,1.51,1.83,1.19-.47-.34-.54.78-.78-.23-.53.64.2.06-.55,1.88-.6.24,1-.7,1.49.67.59h1.32l1.14,1.39,1.35-.5,1.09.21.4-1.55.7-.47-1.74-1.74-.84-1.82.28-3.52-.91-1.75,1.28-.41.33.65.82-.49,0,1.5,1.25.73.89-.46.75-1.37.46.06.35-1.17-.13-2-.81-1.84-1.35-.57-.5-.91-1,.51-1.53-.1L213,351.52l.74-.55,2.34-.26.56-.62-.87-.41.17-.78-.73-.07-.91-2.45,3.44-1.89,2.06.6.92-.31,1.36-1.2,2.28-.15,1,.95,2.36-.79-.19-2,.67-.13-.29-.9-1.39-1.24L227,338l-.87-.15.61-2.37-1.38-.63-.55.34-1.55,1.37-.37,1.68-3.19-.77-1.27,1.05-1.61.1-.42.6-1.2-1.28L214,337.7l-1.79.5-.09-.65-2.11-.26-1.93-1.18-.34-1.15-.61-.3L206,332.29l-.24-3.89-.81-.6.11-.63,1.19-.43,0-1.75,1.56-2.07.84.09.48-1,2.15.18.72-.54-.16-.53,1.24-.31.84-1.59-.25-.5,1.42-1.74,2.42-1.07,1.2-1.35,1.41-.24.79-1.29h2l2.14-1.59,1.11-1.68,2.41-.22-.12-1.14,2.35-.22,3.57-2.56,1.14.11.75-1.12,1.69-.26.18-1.24,1.45-.56.38-1.15,1.31-.08,1.1-1,2.3.54.09-1.51.66-.46-.4-1.16,1.88.15-.37-1Z"/><path class="cls-1" d="M190.06,134.38l1.26-2-.67-1.38.39-1.92-.95-1.66-2-1.65.33-1.74h1.45l1.94,1.32,3.37-2.45.28-1,3.54-.81L200,119l2.88-2.43,1.9.2,1.94-.87.85.08,1.11,1.3,2.54-.5.62-2,.57-.18.6.56.63-.29-.61,2.66,1,1.27.81-.06,1,2.36,2,1.29.91-.29,1,.77,1.52-.21.24,1.94.68-.5,1.34,1,.26.89.48-.33,1.16.66.56,1,.7-.15.77-1.76,1.67.69.72-.72.86,0,1.59-1.65,1.71-.45.3-.78,1.16.41,1.92,1.94-.71,1.19,2.12,1.06.82,1.55.85.28-.3,2.12,2,3.11,1.31-.16,0-1.27.78.33.69-1.1.69.57.77-1.07,1.49.29,2-1.27-.2-.73,2.06-.7-.2,2.62.63,1.42-2.27,1.33.06,1.41-.51.62.79.93,1.78-1.57.7.53h0l.84.4-.17,1.21,2,1.1L254,140.89l.05,2-.66,1.09,2.47-.1,1.32.91-.46,1.74.57,1.06,1.24.43,2.06,2.88,1,.23-2,6,.82.85-.32.66.56,1.42,1.12.06,1.27,2.15L259.93,165l.25,1,.79-.16,1.15,1.09-.47,1.48,1.25.57.05,1.47,1.92,2h0l.21,1,1.46,1.35.54,1.8-3.09.23-1.3-1.14-.58-1.66-3.63.3-.33-.78-1-.42-1.44.85-1.65.09-.64-1.16-.61-.45-.54.35-1-1.24-1.43.08-.12.63-.6-.15-.9,1-2.09.1-1.48,1.17-1.42.16-.39.87-1.47-.68-1.66.69-1.1,2.1-1,.55.61,1.54-.71,1.1.51.46-1.31-.67-.72.5.27,1.07,1.23,0-.15,1.86-1.11-.65v1.47l-1.39,1.75,1.31,1.65-.19.71,1.12.63.07,1.27-1.29.6.8,1,1,0,.18.87-.28.62-3,1.7-2.42.61-.44.74h0l.29.57h0l-.79-.37-.82-1.46-.56,1-1.74.11.91-.9-.07-.71-1.23,1.32-1.34-1.23-.87.24-1.46-.88-1.21.12-.43-1.3-1.33-.44-.49-.74,1.14-.92-.14-2.59-1.85-1.55-1.06-.3-.51.37-.61-1,.23-1.06-.46.44-.62-.36-1.28-2.45-1.22.75-.91-.72-.13-1-1,.68h0l-1.41-1.63-2.53-1.16-.27-1.42.66-1.62-.9-.5,0-1.58,1.11-.87-.24-.4-1.12.31.52-1-.76-.84-.88.71.05-.82-.47.62-.09-.6-.63.28-.54-1.06-.88.79.42-.67-1.7-2.44-.4-1.44-.09.73-1.07.39.51,1.41-1,.31v.66l-3,.36-.16-1-.77-.59L197,168l-3.72-6.69-2-4.92,1.23.07-1.9-3.91-2.72-1.28-2.33-2-1-.45-1.26.32-.48-.45,2-2.41-1-.59.06-1.44,2.8-1.13,2.65-3.06,2.18-1.09-2-2.65Z"/><path class="cls-1" d="M373.75,370.88l2.51.47.55,1.11,1.46.38.89,3.49.82.37-.37.57,3.31,1.14.84,1.76-.36,1.94,1.48,2.22,3.95,1,.07-1.59,1.7-.26.39,2.36-1.31,2.37-.09,2,1,.76.91-.57.66,1.18-.9,5.11,2.36,1.52.46,3.13,1-1.59.67,1.26,1.34-.33.18.73,2.27-.37.45,1-.47,2-1,.13-1.09,2.55-.76,0-.71.74-.12,1.76-1.74.91-1.72-.05-1.85,1.77-.07,1.3h0l-.55,0-.1.52,1.62,1-.92,2.56-3.53.63-2.67,2.68-1.48-.07-1.16.55-2.14,3.2,1,1-1.53.27-.08,2.43.45.83,1.16.56-.71,1,.32.74-1.32.31.14,1-1.13-.55-.58.84.41,1.09-1.58,1.75,1.59,1.31-.78.53-.28-1.16-1.5,1L374,440.17l.38,1.36,1.08,1.18.21,1.34-.68.22-2.59-.92L372,445l.51.7-1.39.67-.7,3.28-1.73.9-2-.47-2.09-1.48-1.89.69-1.65-.25-.58.51-.9-.54-2.87.27.23,1.25-.88.81.32.91-1.71,2.49-1.66,1-.66,2.09-1.07-.07-.35-.94-1.35-.57-.28,3.29.81,3.52-1.09,1.84,1.39,1.15.19,1.5.54-.54.47,1.24-.87,2.36.88,1.38-.6.5.21,1.6-.85,1.51.29,2.22,5.11,1.93.83-.38,1.87.26-.18,2.52.42.59-.36,1-1.41.14-1.49,1.42-.34-1.34.55-1.1-3.73-1-1.32.55-1.22,1.35-2.68-4.38-1.29.53-3-1.88-.82,1-2.05-2.4-1.85,1.72-.72,2.25.31,1.09,2.73,1.39.48,1.54,2,.33-.55,2.06.21,4.3-.58,1,1.71-.21.68,2.23,1.57.16-.42,1.35-.62.1,1,1.1-.78,1.4.67,2.77-.47.84,1,.24.3.69-.44.79.76,1.18.36,2.7-1.65.39-.28,2.71-.79.86-1.18.05-.07,1.13-1.1-.18-1.63.73-.5,1.6-1.53-.56.07.76,1.63.89-.19.71-.94-.13-.29.93-1,.39-2.36,2.63-.43,1.71-2.14.15,0,.73-1.61.25-1.61,1.09-.58,1.94.44.69-.34,1.67-.86,1.65.09,1.51-1,2.42-1.07-.24-.22,2h0l-3.23-.14-2.33-1-2.12,1.71-1-.09-2.18-7.51.73-2.24-2.75.91-.34-1.67.47-.25-.93-.69-.78,1.75-1.56-.14,0-1.22,1.36-.91-1.08-1.24-.7-2.08.26-.68-.88-.26.2-.44-1.19-.93-.45-1.21L303.73,515l-3.49,1.08-1.83-3.4h0l-.62-1.09.84-.13,1.78-1.53-2-2.71V505.7l1.34-2.27.06-1.73,1.53-1.23-.08-1.3,1.32-.57,1-1.92,2.28-1.71,1,2.43,1.52-.5.41,1.12,1.5-.09,2.36-1.92-1.41-1.71,2.57-1-.32-1.38-.83-.27-.44-.87-1.51-.14-1.12-1.05-1.58-.1.22-2.08-3.11-2.14.07-1.17-1.81-.14.22,1.37-.63-.54-1.42,0,.07-.57.84.16,1.62-1.53-.36-.78-1.85-.18,0-.7.92-.52.91.65,1-.08.62-1.47v-2l-.14-1.15-1.05-.76-2.56-.14-.2-.49.69-.71-.76-1.35,3.15-.73.77-1,1.87-.7-.79-1.62.9-5.45-1.36-.22-1.36.71-.75-.83.64-1,1.79-.76-.85-2.14-.09-4.42-2.13.05-.79-2,.59-.72-.35-1.58.59-2,4.39-2,.93-1.26-.41-.86h0l1.82-3.72-.52-3,.23-3.3.6-1.21,1.69.27.5-1.51.12-3.46L312,428l.68-.1,1.6-4.19,1,.16.32,1.45.88-.08.11-.94-.81-.47,1.11-.48.09-2.55,1.61-.47.72-1.26-.1-3.89,1.73-1.3.94,1,1.41-1.27.7.47.47-1.12,1.38.5.44,1.7.68-1,.59.32-.25-.71,1,0,1-1.24,2.38,0,.19-.68.62-.12.2-1.67,1.24-.47.39-.71.44.75.54-.41-.39-1.67.93-1.07-.58-1.8.21-1,2.14-.47.09-.64,2-1.12-.54-2.23.49-1,2.12-.06,1.06-1,1.2.34.87-1-.21-2.29,1.15-1.52-.08-1.09-1.19-1-.66.16-.31-1.12-1.3.53-.77-.27,0-1-1,.28-1.48-3.18-2.2.56-.55-.93-1.69-.57-1.06,1.17-.95-.22-.65,1.11-.52-.44,0-1.17-.7-.12-.18-.9.81-.31.26-1.63.74,0,1.08-1.63-.32-.88-.85-.46-.22-1.6-.8-.61.3-1.43,1.26-.5,1.51,1.79-.09.5,1.57.76,1.73-.33,1.56-1.31.85.54,1.23-.27,1.1,1.14,2.89,0,1-.89-.11.56.66.68.72-.41,1.8.49,3.24-.2,1.39.72.7-.26-.43-.81,1.45,0,1.63-.9.11-1.38,2.26-.39,1.47-1.09h0l3.23,2.34,3.64-.06,2.54-1.16.65-1.83,1.48-.91.32-1.33Z"/><path class="cls-1" d="M190.06,134.38l-.53,2,2,2.65-2.18,1.09-2.65,3.06-2.8,1.13-.06,1.44,1,.59-2,2.41.48.45,1.26-.32,1,.45,2.33,2,2.72,1.28,1.9,3.91-1.23-.07,2,4.92L197,168l-.46,1.5.77.59.16,1,3-.36v-.66l1-.31-.51-1.41,1.07-.39.09-.73.4,1.44,1.7,2.44-.42.67.88-.79.54,1.06.63-.28.09.6.47-.62-.05.82.88-.71.76.84-.52,1,1.12-.31.24.4-1.11.87,0,1.58.9.5-.66,1.62.27,1.42,2.53,1.16,1.41,1.63h0l0,.86,1.45,1.25.47,1.15-.46.82h0l-.87-.08.08-.55-.66.25-.25-.63-1.69,1.11.88,1.84,1.68.75.62-.47h0l.37.86.68-.67-.09,1.1,1.35,1.17L215,193l.87.64-.77,1v1.24l.95,1.49-1.16.82v-.75L213.72,196l-.59.63-1.24-.77-1.43,1.29.28.81.67.15-.58.76-1,.2-1.59,1.57-1.54.16-.37,1.08,1.27-.84.69.73-.19.45.85.26-.3,2.84-.63.72-.6.15-.54-.67-1.32.63-.26-.59-1-.1-1-2.88-.72.54.51.73-.28.85-1.58-.61.56.61-.64.55-1.77-.31-1.16-1.13.2.68h-.53l1.59.86-1.4,1.89.42.31-.6.3.32,2.05-.93.44.45,1.13,1.42.55-3.1,2.06-.95-.27-1,1.67-.44-.26-1.3.7-2.12-.45L189,213.66l-.82.14-.6-.51-1.62.47-.21,1.51-1.77-.51-.3.76-1.1.11-.31-.66-1.1.17-1.66-1.36-1.61,2.73-1.07.5.37,1-.81-.32-.92,1.71.59.61-.2.57-1.79.62-.06-1.7-1.18-.66-.38-.93.92-.7,0-1.06.92-.76-1.2-2.45-.66.54,0,1.09-1.58-.72.42-.56-.64-.65.57-.67-.48-1.19-.48,1-1.86.64-1.83-2.62-.75.28-.09-.83-.79.26-1.19-.94-1.91.87-.82-.21-1.25,1.32.17.51-3.15-1.1h0l-15.48-.75.09-2.18,1.77-2.11v-2.09h0l-.21-1.89-2.13-3,.79-1.37.6-.12.19-1.2.67.16.52-1.23,1.24-1,1.08.19-.24-.72.61-.59,0-1.06.44.2.23-.76h.8l2-2.48,1.22-.3-.48-1.08.87-.42-.29-.48.75-1.37,1.15,0,.07-1.14,1.24-.59,1.34-1.71,1.67-.79.5-2.12,1.58.59,1.23-.42.54-1-.42-1-1.14.26-.23-.45-.72.11-.17,1.09-.83.27-.21-1-1-.48.16-3.84,1-.75,2.22-4.64-.38-.77-1.5-.43.94-.93-.07-1-2.06-4.46,0-.65.83-.23.11-2.18,1.08-1.65.55.13.92-1.06,1.07-.2.15-1,.66.59.29-.43,1.51-.08.23-1.22,1.15-.77.18-.77,1.32-.44,1.95,1.07,2.74-1.56,1.19.42.76-1.4,1.08.85,3.06-4.28.09-1-1.1-2h0l2.29.38,1.41-.45-.11.65.55.21.28,1,.68-2.11,4.5-2,.85-1.7,1.44-.31Z"/><path class="cls-1" d="M501.32,437.43l.69.66.12.86-1.21-.33Zm8.31-.2,1.69,1.36-1.5.05Zm-2.75-.51.7.65-.39.8-.71-.59Zm-4.59-.32,1.24,1-.92,1-1-1L502,436Zm5.79-.38.64,1.62-1.14.4.37-.65-.6-.7Zm4.78.31.47.53-.72.1-.1-1.32Zm-9.19-1,0,1.59-.95-.6Zm9.65-.73.15,1.1.54.44.4,1.13-.71.08v-.69l-.67-.61-.54-1.31Zm-4.43.24-.2,1.1-1-.57Zm-12.17-.25.86.47.29,1.08-1.05,1Zm3.52-.08.41,1-.57,1.24-.35-1.36Zm-6.15-.31.3.54-.29.48.39.43.07.62-.29,1.08-.75-2.27Zm21.07,0,.88,2.05L515,437l-1.29-1.65.26-.65Zm-12.58.12.66-.14.37.83-1.14,1.13-.63-1.45Zm8.24-.74,1.41,1.32-.48,1.66-1.18-1.64Zm-11.61.37.4.77-.43,1.14.52.83-.82.84-.47-2.25.59-1-.62-.39.41-.62Zm-4.8-.49,1.22.2.82,1.84-.34,1.81.48.62-.7.56-.84-.24Zm17.66-.22,1,1.06-1.07-.22Zm-13.87,0-.15.91.46.5-.57.44-.27-1.65Zm15.83-.06.93.71-.61.33Zm-4.4,0,.75,0-.64,1.36.5,1.85-.38.26-.87-.31.15-1.88-1,.17.52-1.09Zm-6.23-.54.93,1.27-.31.89-.76-1.56Zm9.78-.13.9,1.51-.27.25L512.48,433Zm-9.1-.2.23,1.11-.43-.37-.25-.57Zm-3.49,0,0,1.36-.82.51.11-1.32Zm6.11-.49,1.06,1.27-.16.73.34.16-.09.87-.83.17.47.73-1.51-.52.2-1.73Zm-4.23-.08.68.6v1.38l-1.31.43-.37-1.36Zm-3,0,.51.3-.51,1.56-.6-1.14Zm14.24,0h.42l.16,1.24-.81-.66Zm-4.23.2.06,1-1,.44.76-1.93Zm2.8-1.14.86.7-.29.86-1.22.48-.31-1.07Zm-8.61-.08.36.53-.09.82-.67-.47Zm-6.4.15.55,1.34.61.17-.07.52-.84.21-.19.94-.91-.22-.47-1.82Zm12.9-.55.52.36.85,3-1.67-1.38Zm-17.73-.25.88,1.66-.05,1.84-.67,1.65.28.78-1.12.64-1.67-.61-.12-.69.89-2.77Zm16.12.54.85-.94.44.48L508.59,432l-.19-.94Zm4.64-1,1.23.73-.31,1.09-1.48-.52Zm-8.81-.12.79.79-.36,2.2-.95-2.09Zm-1.46,0,.32.51-.5,1.41-.41-.6Zm-2.86-.19.88.45.2.83-1,1.08-1.1,0,.52-2Zm6.63.13.81.1.8,1-.56,2.06-1.51-1.5Zm-1.86-.58.68.27-.49.63Zm4.85.1,1.94-.27,1.27.72-.33.57-1.21.95Zm-2.78-.37,1.87.32.21.94-.45.52-.47-1-1.28-.22Zm.53-1.26.13.66.77.15.24.34-1.21-.08-.46-.91Zm-2.1-1,1.37.5-.92,1.52-1.22-.4Zm-12.79-.19-1.33,2.48-1,.56.64-2.21Zm16.55.19,2.22.2-.14,2-1,.24-2.39-1.07.34-1.15Zm5.64-.77.9,1.63-.36,1.38-.75.23-1.31-2.51.13-.91Zm-4.21-.81.41,1.21-2.23-.33Zm-.72-.65.33.43-1.56.44-.25.59-.59-.17.65-1.38.89-.33Zm.37-2.32,1.46,2.68-1.07.06-1-1,1-.41-.83-1.41Zm2.44.22.72.91-.49,1.51-1,.71,0,1.07.55.64-.28-1.46.71,0,.22,1.82,1.21,1.75-.22.52-1.88-.9-.58-1.54-.28-1.88.72-.86-.91-1.9.64.23Zm1.15-.43,1.2,1.82-.32,1.72L512.9,425l.72-1.74-.59-1.47Zm-7.6,0,2.35.78-2.61,2.33,1.3,1.33-.23.58-1.61-.56-.67-2Zm3.9,1.3-1.83,1-1,1.44-.4,0-.5-.54,2.71-2.52.51-.11Zm2.36-2,.34.74-.74.54-.17-.49.05-.56Zm-3.33-1.54.32,1.11-.67.41.59,1-.8.16-1-.71.1-.63Zm.71-1.65,1.24.07.48,1,.64.18.18,1.59-1,.42.27,1.27L509.08,421l.55-.31-.37-2.35Zm3.53-1,0,1.51,1,.74-.72.3,1.8,2.33,0,1.35.68-.21-.84.71-1-2-1.17-.12-.43-1.27.42-3.78Zm-2.24-4.06,0,1.86.72,1.7-.83.61-.61-3.38Zm1-.64.63.29,1,3.14-1,.52-.43,2.67-.85-.69v-1.1l.65-.51-.68-1.88,0-2.19Zm-22.61-126,1.42.5.27,1.63,1.26.68,1.45-.53.91.45,1.77-.24.48.65,2.67.64,2.41-1.89-.22-.77.94-.29,1.48,0,.92.7.69-.49,1,1.15.67-.27h0l2.91,1.09.13,4.33,1.08-1.23.86.77-.34.71.55.5,1.55-.44.53,1,1.08.26.29,1.59.71.77,3.07-.24,3-1.36.34.7,1.44.2.24.75,2.46-.25,1.55,1.06.57-.11.24.48-1,1,.47.25.65,0,.37-.6,1.3.49.75-.39.43,1,.81-.43,1.23.31h0l.48,1.49-.48.72.51,1.07-.39.17-.23,2.47.45.77-1.07,1.73.48-.17.26.5-1.86.86,0,.61-.74.26.2.88-1-.45.49.95-.31.34-.5-.31.59.86-.78.58.86.13-.92.64,1,.38-.38.25h0l-.48-.07-.56-.9-.08-.47-.88-.25.57,1.43-1-.07-.15.67-.46-.1.94,1.05-.9.49.41.34.48-.51.5,1.19L528,318.83l0,1.53-.9-.07,0-1-2.56-.08-.23-1-.76,1.05-1.14-.1-1.71-1.05.05-.46-.58.05.27-.75-1-.85-1.67-.44-.54-1.13.16-1.51-1-1.28.89-1-1.32,0,.4-.47-.5-.74.16-.91-1.29,0-1.89-1.78-.32.93-.44-.2-.55.67.21,1.15,1.08.11.12.32.56.06.4.64-.38.65,1,.53.78-.23.12,1.06-2.45.37-.88-1.28-1.15-.09-.49.39.41,1.06-.94.12-.68-.69.06-1.13-.56-.34-.92.35-.31-1.44-1.1.51-.56-1.26.52-.22-1.93-1.28-.09-1-.63,0,0,.61-1-.2.1-.88-.85.2-1-1.64-1.24-.15-.5-2.39-.93,1.11-1.05,3.18.52.87.28-1.13,2.86.71,1,2.78-.93.29-.72-.67-.49,1-.76.18.22.4-1.59.94,0,1.68-2.53.84-1.71,1.19-.48,1.85.6.2-.3,1,.35.23-1.07.34-1.41,2.71.53.62.22,2.53.85.63.86-.69.55.37,1.51-.62,0,.77,2.64,1.83.7,1.18,1.23.24-.26,1.73,1.32.42-.08.64,2,1.42.77-.21,1,1,1.2.19.31-.74,1.43.13-.16-.79,1.17,0,.71,1.37-.55,1.66.7.44,0,.81,1.11,1.08.44-.35.47.86,2.12.31-1.35.89.05,1.08-.59,0,.31.92-.6.46-1.93-1.19-1,1.05-.76-.5-.52.35-1-.86-2.27.1-1.27.77-1.63-.92-1.32.41.41,1.47-.49.43.25,1.27-.4.79.42.39-1.39,1.8.1.64-1.47.18-.38.76.53.5-.56.71-1.18-.8-.33.54v-1.15l-.88-1.11-2.17.63.88,2-.69.29-.28,1.21-.34-.44-.41,1.14-.87.27-.14,1.3-1.34,1.47L492.7,360l1.28,1.21,1.86.59,1.42,1.49,2.85.17,2,.89.65,1.28.32-.81.45,0,1.07.53,1.79-.12.8.95-.07,2.09-.8.85.26,1.26-.38.15.13.5.63,0,0,2.72.78-.36.3.62-.89.18-.08,1.75h-.73l-1.07,1.2-2,.23.64,1.15-1,.84.47.54-.42,3.3.76.14-.29,1,1.58-.19.36,1.48,2.06,1.92,1.37-.38-.19,1.44-.63,0-.19.63.12,1.53-.71.41.31,1-1.2.36.56,1.16,1.89,1,.42,0,.1-.92.86.7,1.49-.14.14.58,1.87-.11-.32.83-.5-.23-1,1.7-1.25.8.09,2.44-.66,0,.52.35-.16.91.84.13.45.85-.11,1.09h.91l.53.93-.23,1.29-1,.86,1,1.89-.66,1.91.62.21-.49,1.09-1.7.63-.64,1,.38.71-.3,2.46.74.88-1.41-.22-.47,2-1.44,1.3-.13.86-1.34-.1L504.32,424l.43,1.68-.94,1.87.2,1.63-.71.62-.14-.47-.78.09-.31,1.34-.83-.68.77-1.35-2.61.62-.55.56-.17,2.28-.66,0-.26-1.56-1,.26-1.35,1,.34,1.36-1.37-.22-1.33-3,.35-1.23-.58-.88,1.33-1.67.4-1.4-.52-2.42-.92-.85-2.36-.35.87-2.45-1.38,2.24-1.59-.68-.64-1-.3-3.22-.57-.77-1-.17,1.44,2-.05,2.82,1.69,1.55,3.13.45,1.31,2.26-3.12,2.28-.22.07-1.8,4-1.26,1.51-1,.19-2.46,2.6-.9-.13-1.57,1.12-5.12,1.28h0l-.58-.95.3-1.64-.68-.58v-.84l-1.81,0-.44-.68-2.21-.74-.68-3.71-1.66-.5-.23,1.13-1.6.6,0,1.25-1.59-.13-.79-1.11.89-2.16-.41-1.38-1.49-1.11-3.09-.31-1-1.56-1.85.28.18-1.9h0l1.09.1.22-.06h.6l.24-.64.05-.69.11.39,1.71-.08v-1.11l-1.4-.81.36-1.89-2-.77-.42-1.34,1.08,0,.23-.65-.95-2-2.67-.09L455,409,453,407.77l-.81.51-2.23-2,.41-2.23.75-1-.75-.72.93-.69.35.4.83-.26.54-1.15-.69.56-.37-.63-2-.13-.57.55-2.33-1-2.12.57-1.54-1.31-.33-1.12-2.18-.68-.28-.93-3,.37-1.42-1.73-.64,0-.13-1.81,1.27-1.62-.28-1.1.72-.15-.81-1,.08-1.61,1.92.41,2.55-1-.9-1.55.89-.86,2.41.43,0,2.53,1.86.46.44-.37-.35.91.46.43.87-.58.53.57.35-.22-.35-.42,1.77-1-.45-.37.11-1.24.56-1.11,1.45-.66v-.55l2.19,0,1.55-1.13,2.52-.63.93,0,.16.44,1.33-.26.68-2-.66-1.88.69.54,1.24-.89.1-.48.49-.47,1,.94.75-.55,3.88,1.88.6,0,.44-.67-.87-1.27,1.59.34-.17.36.74.27.59.12.14-2.17.54.91.6-.68-.07-1.53-.75-.28-.58-2,2.33.27-.42.72.31.22.71-.35,2.5.74-.6-.72,1.21-.14.68-.7-.47-.33.06-1.7,2,.81-.17-.58.95-.6-.94-.71,3,.15.07-1-1.35-.68-.05-.84,1.13-.1.71-1.23,1.14-.31,1.32-2.77-.62-.22.94-2.15-.4-.43-.29.52.28-1.46-.91-1,1.94.83,1-.32.55-.84-.91-.45.71-.05-.42-.38.71-.86-.66-.42.35-1.28-1.51-.45-.53-.75.48-.59-.06.66.48,0,.54-.79-.22-.79.76,0-.23-.77,2.08-1.18-.17-.89L486,345.9l-2.47-1.71.27-3.5h0l1.21.58-.34-.95.83-1.18-1.79-1.48.12-1.08-.57-.16-.17-.73.55-1.08.68.28.62-.82.73,0,.39-1.38.48.32.67-.87,1.48.31V333l.44.23.08-.44.49.65,1.06.16.06-.64-.92-.89-.36-1.37.82-1.24-.46-.11.32-1.47-2.16-.92-.71-1.27-.83,0,.29-1.23-.66-.37.67-.64-2.17-.53-.47-1.11.65-.64.3-3L486.9,317l.45.6.17-.42.75.08-.1-1.93,1.2.31.6-1,.8.06,1.84-2.11,1.72-.79,1.92-2-.6-.74-.74.16-.18-.51.93-.76-1-.7-.07-.79-.8.11-.36-.51,1.34-1.14-.06-.54-1.55.4-.56.72-1-.67h0l0-.09h0l1.42-2.66.68-3.71-.36-2.58-.91-.91.24-.6-.64-.82.36-1-1.05-.51-.38-.86-1,0-.41-1.41-.73-.49.68-1.81Z"/><path class="cls-1" d="M147,591.37l-.73-.53.92-.19-.08-1,1.82-.91.57-.82.56,1.13,1,.05,1.8-.87.6-1.8-1.11-.2.73-1,.48,1,.45,0-.49-1.24,1.93-3.55-.83-.42-1.14.55-.54-.45,1.64-1.47,1.34.59-.08-1.52.67-1.05-.24-1.09-2-.68,0-.59L152.6,575l-.48.6.37-.6-.63-.85.06-1.39.43-.29.46.66.18-.75-.65-.16-.09-1.32-1.05-.17.09-1.12-.77.68-.39-.48.81-.22-.23-1.05.93,1.09.37-1.32.9-.09-.08.47.68.28.33-1.3,1.7-.67.12-1.43.51.87,1.32-.17.56,2.08,1.53-.61.16-.79,1.17.06-.73-.85.88-1,.05-1,3.86-1.42,1.7,0-.29-2.2,1.28-.56.08-.7-1-.52.28-.4h2.27l0,.41,1.44-.59,1.25,1.92h1.2l-.16.81.8,0,1.65-.86.14-2.07,1.4.06,1.22-.61.9.33.91-.56.6,1.09,1.92-.54.14-1.13.83.12,0,.86.85.48.73-.24-.06-1.93-.7,0,.85-.68v-.8l-1.25-2,.84-1-.05-1.36-1.33-1.07.17-1-.69-.19-.16-.85.92-.23.49-2.2,1,.51.34,1.16,1.13-.24,1.61,1.33.55-1.35.92,1,.62-.81.16,1.63.93.76,3-.77.59.62,1.05-.93,1,.65.31,1.12-.08-1.32,1.78-.66.77,1.13,1.67-.5.21,1,.73,0,.65-1.48-1.14-.14.28-1.53-1,.06-.07-.94,1.09-.64-.78,0,.56-.71-.65-.53-.2-1.34,2.07-.24.32-1,1.49-.42-.07-1.36.92-.05v-1.12l1.22,0v1.49l1-1.7,1.2,2.07.67.2.19-1.18.73-.28-.3-1.16,1.16-.13.63-1-1.25-.79.08-1.06,1.53.77,2.8-1.21,0-3,.91-.17-.18-.87.52-.61-1.13-.49.78-1.77.83-.09.89.66.22-.54.61.81h1.27l-.33-1.09,1.34-.56.51-1.66.88.08-.27-.9,1.22-1.49-.12-1,1.91-1.16.61.6.68-.45v1.22l1,.31-1.26,2,1.91.11.72,1.2,1.1-.47,0-.73,1,.39h0l1.31.35-1,2,.83,1.25.07,1.35-1.35,1.18,1.14,1.12,1.33.44.18.61-.23.6-.5-.3-.18,1.42-.77-.14.28,1-.59-.06-.56,1.41-.59-.23-.37.66-.16.48,1.52.48-.1.43L229,539.16,228.7,542l1.23.39.29.66.64-.83.51.61,1-.35.05.78,2.32.69,0,.85-.89-.22L234,544l-.31.7-.73.16v.66l-.93-.25v.63l-1.54.06.63.59-.19.82-.71.47-1.17-.42-.44,2.11.51.31-1.83,1.45.45.28-1,1.21,2.53,1.47.9,2.48L229,559.24l.44,3.32-.83-.1-.35,1.76,1.07.06,0,.86-1.2.4.41.64.9-.23-.13,1.6-1.8.49.59,1.21-.89.18-.31.68-1.72-.19-.12.46-1.4.14,1.22,1.66,1.44.59,1.7.44,2-.34,2.39,1,0,1.3-.63-.28-.76.89-.81-.13-.33.46,0,.65.55,0-.67,1.65.07,1.09.56.31-.46,1.86.48.73,0,2.07h0l-6.42-.94-2.6.44-1.91,1-1.08,1.72,1,.22-.51,2.26,2,1.92-.21.86-.86-.71-1.29.49-.06,3.4-1.35-.16,0,.39,1.41,1.42.84,2.88,1.18-.14.14.95.81.11.4.67-1.07,1,.92.7v1.14l-.64.16.55.56-1.86,3.06-.93-.14.14-.6h-1.14l-.46.49-2.59-.47-2-1.57-.56.49.26,1.39-.52,1.18,1.59.48.9-.33-.39,4.06-1.69.62.44,1.14-.93,3.36,1,1.88.69.11,1.05,1.39,2.54-.25-.73.84-.05,1.15-.7-.35-.74.58-.1,1.11,1.75,1.33-.62.55.32.81h2.75l.64.77.73-.1.17-1.88,1-1.27,2,.68,1.21-.51,0,1.39,2,.17-.09,1,.7,1,.78-.51-1-2.1.26-.75,1.4.38.31,1h1l.1,3-2.72-.36-.33.9-.71.13-.08.72,1.12-.57.14.38-1.71,2,1.41.39-.19,1h1.35l-.56.83.49.68-.88.74,0-.45-1,0,.13-2.17-1-1.07-4.1.84-.64-1.28-2.41-.28-.38-1.13.29-1.89-1.93-.42-.12.59-1.12.18-.19.71,1.07.09,1.18,1.57-1.08,1.07,2.58,2.45.14.71-.59.11-1.21,2,.6,1.81.46.25.37-1,.83.82.87-.55,1.76.15-.11-1.66-.94-.72,1-.2-.16-1.08.52-.44,0,1.45.64-.54.17.5.55-.84.41,1.4,1.39-.45.32.79,1-.5,1.61.27-.39.9,1.2.06-.19,3.06.82-.1.11-.69.61.54.18-1.47.9.69,1-.68.63.4.38-.19-.65-.51.95-.52.53,0-.16.64.78-.23.32.72.11-1.46,1.61-.56-.06-.58,1.28-.63-.53-1.21.3-.66,1.69.09.61.86,1.35-1.35.28,1.45-.87.33,0,1.52h.52l.48-1,1.3.22.08-.86,1.79,1.16.11,1.61-.82,1.1.6.59-.1.65-1-.1-.15.54.56.8,1.85-.34.11.64.83.18-.27,1.5,1.1-.77,4,.23-.88,5.61,1,.58-.75.31.6.41.82-.39.28.52.89-.24,1.21,1.32.85-1.1.54.94-.21,1.45-.69.43.7.77-1.49.93.47.56-.64.39.07.73-1.31.53.15,1.72-.86-.13.32,1.7-1.42.14-.81-.82-1,2h-1.53l-.5,2.38h0l-2.47-.43-1.82-1.82-.79-.09-.33,1.27h-.49l-.89-1.35-.51.9-.38-.21.62-.86-.41-.56-3.28,1.12.36,1.18-1.68,3.09-.68-.25-.62.62-.6-.63-1.58.42.19.92-.69,1.58.21,1.28.69.18-.76.79,1.22-.23-.12,1.73-.4,1.37-1.51,1.76-1.79.55-.11,1.49,6.43.88,1,1.54-2,2.4-.72,1.79-4.34.15-.18,1.41-.6-.31.09,1.23-.91,2.22-1.48-.71-.82.5-1-1-1.06-.1-.36.47-3.07.51.16,1.26-.93-.3-.37-1.31-.84.31.23-.48-.67-.47-.78.05-.33.89-1.48-.45-1.75,3.48.55,1.06-.33.68-.52-.56-1.73-.34H207l-.48-1.51-.9-.69-1.3,1.08-.69-.11h0l-.66-1,.55-.4-.28-.91-1.79.57-1.55-1.83-1.32.09-.85-1.6-1.87.32v-3l-2.8,1.18-2.9-.43-1.29-1.09-.61-2.18-2,.23-.38-1-1,.23-.67-1.28-1.44-.21-2.32-3.4h-1.56l.05-2-1.37-1,0-1.12,1.38-.21-.2-.92-1.82,1-.14-.86-1.33-.7-.1-1.15,1.25-.53-1.26-.66L174,669.37l-.53-1.57-1,.2-.4-.41.19-1.08-1.59-.53-.08.78-.87.16.05-1.37-1.05.14.12-.34-.67-.18.58-.77-.4-.75-3.09.9h0l-1.13-2.46L161,649.64l-.61-7.21-1.57-5.87-.91-2-.95-.46-.74-1.46-.75-4.06-.72-1-2.17-7.06,1-.72-.7-.57-.22.8-1.14,0-.37-2-.62-.64.38-.33-.45-1.9-.79-.83-.73.76-2.7-2,.69-.15.19-1.05-.47,0-.36-1.24h0l1-.63.89.3-.08-1.07,1,.75,1.43-1.15-.2-.61,1-1.25-.59-1.42.28-1.2.79-1-.37-1-1.21-.87,2.07-.9-.33-1.89-1.13-.54v-1.39l-.64-1.18.76-.92-.81-1,.35-1.11-.33-1.13-.59-.32-.45.45-.57-.82-.41.74Z"/><path class="cls-1" d="M505,261.69l.53.69,2.08,0,2,1.72.08,2.21.62.23.6,1.73-.77,1.24-.19,4.09-2,2.88,1,4.41,2.79,2.18-.58,1.42-2.41.76-.32,1.7-.9,1h0l-.67.27-1-1.15-.69.49-.92-.7-1.48,0-.94.29.22.77-2.41,1.89L497,289.2l-.48-.65-1.77.24-.91-.45-1.45.53-1.26-.68-.27-1.64-1.42-.49h0l1.28-3.22-.61-1,.12-1,.82-.58-.89-1.92,3.79-8.16-.6-.82.69-.47-.12-.45-1.7-.78-.15-1.93.37-.35,1.23.55,1-.67.35.54,2.5-1.14,1.1.32,2.3-1.88,1.37.19.39-1.28,1.52-.52-.11-.72Z"/><path class="cls-1" d="M348.51,564.22h0Zm.77-.05-.46,2.91-.89-1.26,0-.94Zm-.77.05-.15-.73L348,564l-1.48.12-.07-.86-1.06.68,2,.9h0l0,1.21.53.17.78,1.75-9,4.41-5.53,2.17-4.42-1.25-3.66.43L323,575.29,320,582l.11,1.14-3.42,3.62-.32.55.45,1-1.12,1-3.57.48-1-1.72.31-.91h.44l-.14-.68-2.92-1-3.68.71-2.63,1.25-2.25,1.48-1.72,1.92-1.71,5.26-2.5,4L293,605.92l1.64,8.78,2.08,3.63L295,630.12l2.84,7.62-.21,4.54,1.95,5.19L296,641l-.66-.3-.14,2.23-.73-.72.42-.72-.47-.09-1.38,2.16,2.73,2.48,1.85.05,1.86,1.64h0v1.34l-.89-.5-1.12-2.21-1.93,0-2-1.48-1.86.2-.1.5,1.05.2.08.44-.74-.08-.26.71-.82.21,0,.84-.76.34.52.76-.69,1-1.83.82-1.26,0-.5.56-.64-.52-.81.76,1.57,1.23-1,.72-.53-.68-.84.37.18-.67-.56.11-.12-1.32-2.17.92-.78-.55-.32-1.1-2.63-.32-1.34.52,1.24.55-.35,1.74.62-.45.24.33-.59.21.05.53-1.87.61.16.84-1.15.83-1-1.12-1.2.14v.8l-.72.48-.89,2-2.07-.17-2.2-1.57-1.61.22-.51.82.76.42-1.05,0-.14-1.67-3.21,1-1.07-.27-.22,1.3-1.05-.34-.92,1,.81,1.5h-.52l-1.08,3.73-.89.68,0,1.46-.57.15-.21-.6h0l-.14,0-.42,0-.12,1-.76,0,.05,1.12-2.25.14-1.92-1-.64-1-1.84.27.92-.85-.16-.94h0l.5-2.38H250l1-2,.81.83,1.42-.14-.32-1.71.87.14-.16-1.72,1.31-.53-.07-.73.64-.4-.47-.56,1.49-.92-.7-.78.69-.42.21-1.46-.53-.94-.86,1.1-1.21-1.31-.88.24-.29-.52-.82.38-.59-.41.74-.31-1-.57.88-5.62-4-.23-1.09.78.26-1.51-.82-.18-.12-.64-1.85.34-.55-.8.14-.53,1,.09.1-.65-.61-.59.82-1.09-.11-1.61-1.79-1.16-.08.85-1.3-.22-.48,1.05h-.52l0-1.53.88-.33-.29-1.44-1.35,1.34-.61-.85-1.69-.1-.3.67.53,1.21-1.27.62.06.58-1.62.57-.1,1.45-.33-.72-.78.23.16-.64-.52.05-1,.51.65.51-.38.2-.63-.41-1,.68-.89-.69-.19,1.47-.61-.53-.11.68-.82.1.19-3.06-1.2,0,.39-.91-1.6-.27-1,.51-.32-.8-1.39.45-.41-1.4-.55.85-.16-.5-.65.54,0-1.46-.52.45.16,1.08-1,.19.94.72.11,1.67-1.76-.16-.87.56-.83-.82-.37,1-.46-.24-.6-1.82,1.21-2,.59-.1-.14-.71-2.58-2.45,1.08-1.08L216.05,630l-1.07-.1.19-.71,1.13-.17.11-.59,1.93.42-.28,1.88.38,1.13,2.4.28.64,1.28,4.1-.84,1,1.07-.13,2.17,1,0,0,.45.88-.74-.49-.68.57-.82h-1.36l.19-1-1.41-.39,1.71-2-.14-.38-1.12.56.08-.71.72-.13.32-.9,2.73.36-.11-3.06h-1l-.31-.95-1.39-.38-.27.75,1,2.11-.79.51-.7-1,.1-1-2-.18,0-1.39-1.21.51-2-.67-1,1.27-.17,1.87-.73.1-.64-.76h-2.75l-.32-.82.62-.55-1.75-1.32.1-1.11.74-.59.7.35.05-1.15.73-.84-2.54.25L213.6,620l-.69-.12-1-1.88.93-3.36-.44-1.13,1.69-.63.39-4.05-.9.33-1.58-.48.51-1.19-.26-1.39.56-.49,2,1.58,2.59.46.47-.49H219l-.15.61.93.13,1.86-3-.54-.57.63-.16V603l-.92-.7,1.07-1-.4-.68-.8-.1-.14-.95-1.19.13-.84-2.88-1.41-1.41,0-.39,1.35.16.06-3.41,1.29-.48.86.71.21-.87-2-1.92.51-2.26-1-.22,1.08-1.72,1.91-1,2.6-.44,6.43,1h0l2.39.23,1.29.89,1.41-.25,2.05.54,2.18-.78,2.82.94.84-1.1.68,1.47,1.13.44.4-.55h1L247,585l1.43-.72.46-2.61,1.46.06,2.21-1.33,3.78.63,1.43-1.08,2.38,1.84,1.52.07,1.51-1.62,0-1.77.61.09.24,1.1.94.12-.13-1.95.5-.52,2.6-1.11,3.59.73,1-.57.16-6.86,1-1.36,4-.54,1.74-1.23,3.72-.8,3.13-1.73.87,1,1.27-.2,1,1.54,1.38-.1,2.22-2.64.53-1.75-.9-1-1-.27.44-1.13.9-1.49,2.17-.51,1.19-1.53.47.82,1.5.06,1,1.4.44,2.18,1,.41.35,1.12.66-1,1.3.88.1.65,2.62.7,1-.64-1.22-1,.25-1.13.54-.13-.06-1.34-2.29-.56-.09.79-3.19-1.36.75-1.12-.54-1.09.7-.53.62,1.35.64.2.89-.86.34-1.47,1.58-.78,2.38,1.29-.42.84,2.12-.24,2.63,1,.65-.65.28-2.45h1.06l-.19-1.42,2.11.56,1.37-.88,2.86-.48.47-2.3,2.11.06,1.41-1.81,1.17.85,1.08-.11,1.91-2.24.2-2.33.55-.78-.51-.51,1.68-2.52.13-1,5.07-2.72L336,535l-.85-1h0l1-1.1,3.72-1.45,1.8-1.69,3.34.37.42.85,1.59.79.63-.17V530l.76-.36.19.63.6-.07.09-2.63.6.45.18-.38-1.45-1.44.66-.52.1-1.3.86-.21.52-.83-1.44-.28,1.23-1.34-.57-1.05,2.78-3.28.62.91.59-.06.17,1.8.58-.09-.46,1.24,1.62.54.26.58-.86,1,.11,1,1.14,1.07.78-1.5,2.67-1.15.65-1.65-.42-.63.56-.51,1.13.76,1-.08.18,1.19,1,.4,2.09-.86.89.24.12-1.39-.51.26-.55-.65,1.83-2.42-1.4-.26-.14-.52.67-.48L366,516l.09-1.3,1-.4,2-3.06,1.7.79.08.68.35-1.29,1.15.22.34-.84,1.89-.27.06-.83.92,0,.37-.74-1.59-1.75.83.1-.85-.88-.42,1-.58-1.88,1-.53,1.54.36,1.15,1.31-.17-1.4.64,0,.09-.54-.46-1.26.34-.21.5.64.29-.3.21,1-.5-.05.05.4.88.15.37-1.77.8.62.63-1-.25-.83.72-.86,1.82,3.55.64.12-.43.69,1,1.74.84.27-1-1.83,1.18-.78,2,4.92,1.72.57,2.15-.15,1.35,1.49,1-.09.7-.71,4.46-.42.09-1.94.65.41.22-.42-.49-.41.89.14-.55-.48.8.26.78-.71-.34-.63.62-.75-.63-1.22,1.39.85.44-1,1.89-1.14.53,1.35.62-1.09,1,.07v-.75l-.85.12-.69-1.23,1.71,0,.1-.9.91.14-.2.82.62.62h0l1,.63-4.39,5.06-.71,2.16-2.17,2.06-2.71,4-5.68,5.31,0,1.09-10,5-3.61,2.47-1.06,1.77-2.95,2.72v.86l-1.62,2.19L371,541.74l-14.93,7.57-5.9,4.56-1.74,2.2-.64,2.35-.56.27.17,1.12L348.8,561l1.05-.29-.28,2.91Z"/><path class="cls-1" d="M165.27,664.56l3.09-.91.4.75-.59.77.68.18-.13.34,1.05-.14,0,1.37.87-.15.07-.79,1.59.54-.19,1.08.4.4,1-.2.53,1.57,1.33-1.23,1.26.66-1.26.53.11,1.16,1.32.7.15.85,1.82-1,.19.92-1.37.22,0,1.11,1.38,1-.06,2h1.57l2.32,3.4,1.44.21.67,1.28,1-.23.39,1,2-.23.61,2.18,1.29,1.09,2.9.44,2.8-1.19v3l1.88-.31.85,1.59,1.32-.09,1.55,1.83,1.79-.57.28.91-.56.4.67,1h0l0,.91-1.1,0-.74,1-1.29.46-.66-.71-1.11.71.35,2.62.93-.37,1.06.74.32-.35,1.89.63.93,1.3,1.51.87.71-.12.05,1.48-2.31,1.54.15,1.26.86-.56,3.34.42,1.82-1.14.71.56-.85,1.61,1.17.58,0,1.84,1.37.13-2.12.27-1.42,2.68,4.16,1.55.56,1.35,1.18.2.23.72-1,2.38.42,1.15-1.66.07.61,1-.56,4.24.79,1.38-.48,1.6.46.44.64-.31,0,.57,1.06,1,1.61.4,1.67-1,.33-.93,2.74-1.51,1.46.15-.19.86.89,1.29-.1.83.84.33-.51,2.19-1.78.67,1.49,1.79.27,1.67-.6.26-.88,1.91.61.42L223,738l.62.64-.6.22,0,1.45-.46.15-.93,2.72,1.08.05,1.46,1,1.22-.7.5.75.4-.8.24,1.71,1.12.74-.43,1.14-1.1.49-.56,2.56h-.67l-.43.91v2l-.74.74.37.9L222.68,756l-.34,1.29-1.23.61,1.19,1.61v.77l.6,0,.94,1.44-.69,2.07-.94,1-.53-.06,2.71,5-.43.89-1.51.2.57,1.38-1.84,1.46.61,1.64-.93-.26-.63.61h0l-3-2.15-8.45-11.18-2.11-1.64-.68-2.87-4.46-9.87-2.48-13.65.39-.11,1.05,2,1.6,1.7v3l.73.5-.82,3.84.65.47v-.48l2.92-.13-2.12-.87.35-1.12-.22-1-.46.07.28-1.23-.77-.16-.13-4-.92-1.36-.4.13.29.75-.41-.12-1.71-3.51.37-1.23-1.45-1.68.93,4.13-.48.1-3.07-10.05L191,713.65,189.69,708l-3-8.36-1.31-2.37-1.6-.72-1.85-5.12-3.39-3.91-1.22-.54-2.21-3.66-.87-.46-.72.47-.48-2.25L167.89,671Z"/><path class="cls-2" d="M199.19,241.48a25.76,25.76,0,1,1,50.45,7.33c-3.66,14.84-24.81,31.43-24.81,31.43s-23.89-18.73-25.3-34.19h.07a25.36,25.36,0,0,1-.41-4.56h0m25.4,5.74a10.54,10.54,0,1,0-10.53-10.54,10.53,10.53,0,0,0,10.53,10.54h0"/><path class="cls-2" d="M436.53,402.37A25.76,25.76,0,1,1,487,409.7c-3.67,14.84-24.81,31.43-24.81,31.43s-23.89-18.73-25.3-34.19l.06,0a26.1,26.1,0,0,1-.41-4.55h0m25.41,5.74a10.54,10.54,0,1,0-10.54-10.54,10.54,10.54,0,0,0,10.54,10.54h0"/><path class="cls-2" d="M157,459.71a25.76,25.76,0,1,1,51.52,0,26.15,26.15,0,0,1-1.06,7.34c-3.67,14.83-24.82,31.42-24.82,31.42s-23.89-18.73-25.3-34.19h.07a25.36,25.36,0,0,1-.41-4.56h0m25.4,5.74a10.54,10.54,0,1,0-10.53-10.54,10.53,10.53,0,0,0,10.53,10.54h0"/><path class="cls-2" d="M240.61,669.58a25.76,25.76,0,0,1,51.52,0,26.15,26.15,0,0,1-1.06,7.34c-3.67,14.83-24.82,31.42-24.82,31.42s-23.89-18.73-25.3-34.19H241a25.36,25.36,0,0,1-.41-4.56h0m25.4,5.74a10.54,10.54,0,1,0-10.53-10.54A10.53,10.53,0,0,0,266,675.32h0"/><path class="cls-2" d="M168.53,599.5A25.76,25.76,0,1,1,219,606.83c-3.67,14.83-24.82,31.43-24.82,31.43s-23.89-18.74-25.29-34.2h.06a25.25,25.25,0,0,1-.41-4.55h0m25.41,5.74a10.54,10.54,0,1,0-10.54-10.55,10.54,10.54,0,0,0,10.54,10.55h0"/><path class="cls-2" d="M586.28,304.41a25.76,25.76,0,1,1,50.46,7.33c-3.67,14.83-24.82,31.43-24.82,31.43S588,324.43,586.63,309h.06a25.25,25.25,0,0,1-.41-4.55h0m25.41,5.74a10.54,10.54,0,1,0-10.54-10.55,10.54,10.54,0,0,0,10.54,10.55h0"/></g></g></svg>