<svg width="166" height="47" viewBox="0 0 166 47" fill="none" xmlns="http://www.w3.org/2000/svg">
<g clip-path="url(#clip0_601:237)">
<path d="M50.3866 0.405823H53.3425C53.5319 0.405823 53.7135 0.482174 53.8474 0.618081C53.9813 0.753987 54.0565 0.938316 54.0565 1.13052V28.0601C54.0565 28.2523 53.9813 28.4367 53.8474 28.5726C53.7135 28.7085 53.5319 28.7848 53.3425 28.7848H50.3866C50.1972 28.7848 50.0156 28.7085 49.8817 28.5726C49.7478 28.4367 49.6726 28.2523 49.6726 28.0601V1.13414C49.6721 1.03867 49.6903 0.944041 49.7259 0.855699C49.7616 0.767356 49.8141 0.687038 49.8805 0.61936C49.9468 0.551682 50.0257 0.497977 50.1125 0.461331C50.1994 0.424686 50.2925 0.405822 50.3866 0.405823Z" fill="#5603AD"/>
<path d="M58.055 0.405803H62.2926C62.4522 0.404917 62.6074 0.458324 62.7336 0.557499C62.8598 0.656675 62.9496 0.795899 62.9887 0.952947L67.1156 17.3926H67.1977V1.13412C67.1977 0.941919 67.2729 0.757591 67.4068 0.621684C67.5407 0.485778 67.7223 0.409427 67.9117 0.409427H70.3893C70.5786 0.409427 70.7602 0.485778 70.8941 0.621684C71.028 0.757591 71.1033 0.941919 71.1033 1.13412V28.0601C71.1033 28.2523 71.028 28.4366 70.8941 28.5725C70.7602 28.7084 70.5786 28.7848 70.3893 28.7848H67.1513C66.9917 28.7857 66.8364 28.7323 66.7102 28.6331C66.5841 28.5339 66.4942 28.3947 66.4552 28.2377L61.3322 8.06944H61.2537V28.0601C61.2537 28.2523 61.1785 28.4366 61.0446 28.5725C60.9107 28.7084 60.7291 28.7848 60.5397 28.7848H58.0621C57.8728 28.7848 57.6912 28.7084 57.5573 28.5725C57.4234 28.4366 57.3482 28.2523 57.3482 28.0601V1.13412C57.3472 0.942542 57.421 0.758375 57.5535 0.621892C57.6859 0.485409 57.8663 0.407716 58.055 0.405803Z" fill="#5603AD"/>
<path d="M75.912 27.3499C74.7958 26.118 74.2365 24.3545 74.2341 22.0597V1.13415C74.2341 0.941947 74.3094 0.757619 74.4433 0.621712C74.5772 0.485806 74.7588 0.409454 74.9481 0.409454H77.9076C78.097 0.409454 78.2786 0.485806 78.4125 0.621712C78.5464 0.757619 78.6216 0.941947 78.6216 1.13415V22.3822C78.6216 23.3484 78.8144 24.0514 79.2 24.491C79.6543 24.9086 80.2453 25.1399 80.8582 25.1399C81.4711 25.1399 82.0621 24.9086 82.5165 24.491C82.902 24.061 83.0948 23.3581 83.0948 22.3822V1.13415C83.0948 0.941947 83.17 0.757619 83.3039 0.621712C83.4378 0.485806 83.6194 0.409454 83.8088 0.409454H86.6041C86.7934 0.409454 86.975 0.485806 87.1089 0.621712C87.2428 0.757619 87.3181 0.941947 87.3181 1.13415V22.0597C87.3181 24.357 86.7588 26.1204 85.6402 27.3499C84.5216 28.5795 82.8961 29.1943 80.7636 29.1943C78.6454 29.1943 77.0282 28.5795 75.912 27.3499Z" fill="#5603AD"/>
<path d="M90.4524 1.13415C90.4524 0.941947 90.5276 0.757619 90.6615 0.621712C90.7954 0.485806 90.977 0.409454 91.1664 0.409454H96.9247C99.1096 0.409454 100.748 1.0037 101.841 2.1922C102.933 3.3807 103.478 5.12479 103.476 7.42449V10.2182C103.476 12.5155 102.931 14.2583 101.841 15.4468C100.751 16.6353 99.1119 17.2308 96.9247 17.2332H95.5646C95.3752 17.2332 95.1936 17.3096 95.0597 17.4455C94.9258 17.5814 94.8506 17.7657 94.8506 17.9579V28.0601C94.8506 28.2523 94.7754 28.4367 94.6415 28.5726C94.5076 28.7085 94.326 28.7848 94.1366 28.7848H91.1771C90.9877 28.7848 90.8061 28.7085 90.6722 28.5726C90.5383 28.4367 90.4631 28.2523 90.4631 28.0601L90.4524 1.13415ZM96.9247 13.1786C97.2199 13.2004 97.5162 13.1573 97.7935 13.0523C98.0707 12.9472 98.3224 12.7826 98.5312 12.5698C98.9001 12.1616 99.0834 11.4743 99.081 10.5081V7.13461C99.081 6.16835 98.9013 5.47989 98.5419 5.06923C98.3319 4.85496 98.0785 4.68955 97.7993 4.58444C97.52 4.47934 97.2216 4.43704 96.9247 4.46049H95.5646C95.3752 4.46049 95.1936 4.53684 95.0597 4.67275C94.9258 4.80865 94.8506 4.99298 94.8506 5.18518V12.4321C94.8506 12.6243 94.9258 12.8086 95.0597 12.9446C95.1936 13.0805 95.3752 13.1568 95.5646 13.1568L96.9247 13.1786Z" fill="#5603AD"/>
<path d="M105.953 12.5698H113.304C113.493 12.5698 113.675 12.6461 113.809 12.7821C113.943 12.918 114.018 13.1023 114.018 13.2945V15.8925C114.018 16.0847 113.943 16.269 113.809 16.4049C113.675 16.5409 113.493 16.6172 113.304 16.6172H105.953C105.764 16.6172 105.582 16.5409 105.448 16.4049C105.314 16.269 105.239 16.0847 105.239 15.8925V13.2981C105.239 13.2026 105.257 13.108 105.293 13.0197C105.328 12.9313 105.381 12.851 105.447 12.7833C105.513 12.7157 105.592 12.6619 105.679 12.6253C105.766 12.5887 105.859 12.5698 105.953 12.5698V12.5698Z" fill="#5603AD"/>
<path d="M117.377 0.405823H120.337C120.526 0.405823 120.708 0.482174 120.841 0.618081C120.975 0.753987 121.051 0.938316 121.051 1.13052V28.0601C121.051 28.2523 120.975 28.4367 120.841 28.5726C120.708 28.7085 120.526 28.7848 120.337 28.7848H117.377C117.188 28.7848 117.006 28.7085 116.872 28.5726C116.738 28.4367 116.663 28.2523 116.663 28.0601V1.13414C116.663 1.03867 116.681 0.944041 116.716 0.855699C116.752 0.767356 116.805 0.687038 116.871 0.61936C116.937 0.551682 117.016 0.497977 117.103 0.461331C117.19 0.424686 117.283 0.405822 117.377 0.405823Z" fill="#5603AD"/>
<path d="M124.235 25.7266C124.189 23.9408 124.515 22.1651 125.192 20.5161C125.834 19.0667 126.98 17.4651 128.63 15.7114C130.279 13.9576 131.404 12.4575 132.003 11.211C132.62 10.008 132.942 8.6719 132.942 7.31578C132.942 6.10192 132.749 5.25403 132.364 4.77935C132.155 4.53429 131.894 4.34141 131.599 4.21572C131.305 4.09002 130.987 4.03491 130.668 4.05466C129.147 4.05466 128.388 4.9871 128.39 6.85198V9.16375C128.39 9.35595 128.315 9.54028 128.181 9.67619C128.047 9.81209 127.866 9.88844 127.676 9.88844H124.956C124.767 9.88844 124.585 9.81209 124.451 9.67619C124.317 9.54028 124.242 9.35595 124.242 9.16375V7.13461C124.242 4.83733 124.801 3.07391 125.92 1.84435C127.039 0.614782 128.665 0 130.8 0C132.942 0 134.567 0.614782 135.673 1.84435C136.78 3.07391 137.339 4.83733 137.351 7.13461C137.343 8.89914 136.926 10.637 136.134 12.2075C135.32 13.8549 133.916 15.7476 131.921 17.8854C130.615 19.2913 129.735 20.4339 129.283 21.3132C128.832 22.1809 128.599 23.1479 128.605 24.1287V24.7374H136.234C136.423 24.7374 136.605 24.8138 136.739 24.9497C136.872 25.0856 136.948 25.2699 136.948 25.4621V28.0601C136.948 28.2523 136.872 28.4367 136.739 28.5726C136.605 28.7085 136.423 28.7848 136.234 28.7848H124.967C124.777 28.7848 124.596 28.7085 124.462 28.5726C124.328 28.4367 124.253 28.2523 124.253 28.0601L124.235 25.7266Z" fill="#5603AD"/>
<path d="M141.014 0.405823H143.973C144.163 0.405823 144.344 0.482174 144.478 0.618081C144.612 0.753987 144.687 0.938316 144.687 1.13052V28.0601C144.687 28.2523 144.612 28.4367 144.478 28.5726C144.344 28.7085 144.163 28.7848 143.973 28.7848H141.014C140.824 28.7848 140.643 28.7085 140.509 28.5726C140.375 28.4367 140.3 28.2523 140.3 28.0601V1.13414C140.299 1.03867 140.317 0.944041 140.353 0.855699C140.389 0.767356 140.441 0.687038 140.508 0.61936C140.574 0.551682 140.653 0.497977 140.74 0.461331C140.827 0.424686 140.92 0.405822 141.014 0.405823Z" fill="#5603AD"/>
<path d="M49.6689 33.8215H50.6328V38.2856H49.6689V33.8215Z" fill="#5603AD"/>
<path d="M51.4291 33.8215H52.5001L53.6318 36.597V33.8215H54.3779V38.2856H53.514L52.1752 35.0535V38.2856H51.4255L51.4291 33.8215Z" fill="#5603AD"/>
<path d="M55.1738 33.8215H56.2163C56.5913 33.808 56.9651 33.8708 57.3158 34.0062C57.6141 34.1449 57.8544 34.3862 57.9941 34.6875C58.1843 35.1083 58.2725 35.5693 58.2511 36.0318C58.2584 36.4004 58.2053 36.7678 58.0941 37.1188C58.0107 37.387 57.8719 37.634 57.6871 37.8435C57.5353 38.0144 57.3402 38.1397 57.123 38.2058C56.8642 38.2727 56.5975 38.3032 56.3305 38.2964H55.1738V33.8215ZM56.1413 34.586V37.521H56.3055C56.4883 37.5324 56.6701 37.4869 56.8267 37.3906C56.9705 37.274 57.0743 37.1141 57.123 36.934C57.2055 36.6273 57.2416 36.3096 57.2301 35.9919C57.2434 35.6945 57.2022 35.3972 57.1088 35.115C57.0566 34.9455 56.9497 34.7986 56.8053 34.6983C56.6521 34.6148 56.4791 34.5759 56.3055 34.586H56.1413Z" fill="#5603AD"/>
<path d="M58.8833 33.8215H59.8508V38.2856H58.8833V33.8215Z" fill="#5603AD"/>
<path d="M61.4608 33.8215H62.4318L63.692 38.2856H62.6996L62.4818 37.3652H61.243L61.0288 38.2856H60.1399L61.4608 33.8215ZM62.2997 36.6007L61.857 34.7853L61.4287 36.6152L62.2997 36.6007Z" fill="#5603AD"/>
<path d="M64.0204 33.8215H65.0914L66.2231 36.597V33.8215H66.9692V38.2856H66.1053L64.7665 35.0535V38.2856H64.0168L64.0204 33.8215Z" fill="#5603AD"/>
<path d="M68.9612 33.8215H70.0322L71.1639 36.597V33.8215H71.91V38.2856H71.0425L69.7038 35.0535V38.2856H68.9541L68.9612 33.8215Z" fill="#5603AD"/>
<path d="M73.6092 33.8215H74.5838L75.8404 38.2856H74.8516L74.6338 37.3652H73.3914L73.1772 38.2856H72.2883L73.6092 33.8215ZM74.4517 36.6007L74.0055 34.7853L73.5807 36.597L74.4517 36.6007Z" fill="#5603AD"/>
<path d="M76.1725 33.8215H77.2435L78.3716 36.597V33.8215H79.1213V38.2856H78.2574L76.9151 35.0535V38.2856H76.1689L76.1725 33.8215Z" fill="#5603AD"/>
<path d="M82.9519 36.0535C82.9519 37.585 82.4212 38.352 81.3597 38.3544C81.1275 38.3689 80.8956 38.3224 80.6861 38.2197C80.4767 38.1169 80.2968 37.9611 80.1638 37.7674C79.8617 37.2506 79.721 36.6531 79.7604 36.0535C79.7604 34.522 80.2923 33.755 81.3562 33.7526C81.586 33.7402 81.8151 33.7865 82.0228 33.8871C82.2304 33.9878 82.41 34.1396 82.545 34.3287C82.8511 34.8479 82.9931 35.4499 82.9519 36.0535V36.0535ZM81.9345 36.0535C81.9614 35.6472 81.9142 35.2394 81.7953 34.8505C81.7595 34.7622 81.6986 34.6866 81.6204 34.6335C81.5423 34.5803 81.4503 34.5519 81.3562 34.5519C81.2621 34.5519 81.1701 34.5803 81.0919 34.6335C81.0137 34.6866 80.9529 34.7622 80.9171 34.8505C80.7984 35.2395 80.7512 35.6472 80.7778 36.0535C80.7537 36.4559 80.7996 36.8594 80.9135 37.2456C80.9462 37.3379 81.0064 37.4174 81.0857 37.4733C81.1651 37.5292 81.2596 37.5585 81.3562 37.5572C81.4506 37.5599 81.5436 37.5327 81.6223 37.4795C81.7009 37.4263 81.7613 37.3497 81.7953 37.2601C81.9144 36.87 81.9616 36.461 81.9345 36.0535V36.0535Z" fill="#5603AD"/>
<path d="M83.6267 33.8215H86.3006V34.586H84.6085V35.626H85.9365V36.3905H84.6085V37.4776H86.3149V38.2747H83.641L83.6267 33.8215Z" fill="#5603AD"/>
<path d="M86.7754 33.8215H87.7428V37.4449H89.1708V38.282H86.7861L86.7754 33.8215Z" fill="#5603AD"/>
<path d="M89.585 33.8215H92.2625V34.586H90.5524V35.626H91.8805V36.3905H90.5524V37.4776H92.2625V38.2747H89.585V33.8215Z" fill="#5603AD"/>
<path d="M94.8755 36.6622L95.768 36.7166C95.7541 37.1513 95.5941 37.5681 95.3146 37.8978C95.1794 38.0483 95.0136 38.1671 94.8287 38.2459C94.6437 38.3248 94.4441 38.3618 94.2436 38.3544C94.0033 38.3671 93.7638 38.3179 93.5472 38.2115C93.3306 38.1051 93.1441 37.9448 93.0048 37.7457C92.7271 37.2268 92.5815 36.6458 92.5815 36.0553C92.5815 35.4648 92.7271 34.8838 93.0048 34.365C93.144 34.1646 93.3309 34.0033 93.5482 33.8962C93.7655 33.7891 94.006 33.7397 94.2472 33.7526C95.1611 33.7526 95.6597 34.3287 95.743 35.481L94.8612 35.5462C94.8362 34.8831 94.6327 34.5498 94.2472 34.5498C94.1452 34.5525 94.046 34.5841 93.9608 34.6411C93.8756 34.6981 93.8079 34.7782 93.7652 34.8722C93.6159 35.268 93.555 35.6925 93.5867 36.1151C93.5604 36.5007 93.6164 36.8876 93.7509 37.2492C93.7953 37.3439 93.8658 37.4235 93.9539 37.4782C94.042 37.5329 94.1439 37.5603 94.2472 37.5572C94.6042 37.5572 94.8112 37.2601 94.8755 36.6622Z" fill="#5603AD"/>
<path d="M95.843 33.8215H98.5848V34.6585H97.6851V38.282H96.7177V34.6585H95.843V33.8215Z" fill="#5603AD"/>
<path d="M98.9204 33.8215H100.316C100.523 33.8187 100.729 33.8308 100.934 33.8577C101.091 33.8907 101.239 33.9602 101.366 34.0606C101.523 34.176 101.646 34.3325 101.723 34.5135C101.809 34.7158 101.852 34.9345 101.848 35.1549C101.868 35.3908 101.82 35.6276 101.711 35.8366C101.601 36.0456 101.434 36.2178 101.23 36.3325L102.037 38.2856H100.959L100.37 36.521H99.8879V38.2856H98.9204V33.8215ZM99.8879 34.5462V35.7963H100.316C100.695 35.7963 100.884 35.5825 100.884 35.1549C100.889 35.0284 100.859 34.9031 100.798 34.7926C100.754 34.7095 100.685 34.6424 100.602 34.6005C100.498 34.5601 100.388 34.5428 100.277 34.5498L99.8879 34.5462Z" fill="#5603AD"/>
<path d="M105.525 36.0535C105.525 37.585 104.994 38.352 103.932 38.3544C103.7 38.3682 103.469 38.3214 103.259 38.2187C103.05 38.116 102.87 37.9606 102.737 37.7674C102.434 37.2506 102.294 36.6531 102.333 36.0535C102.333 34.522 102.865 33.755 103.929 33.7526C104.159 33.7402 104.388 33.7865 104.596 33.8871C104.803 33.9878 104.983 34.1396 105.118 34.3287C105.424 34.8479 105.566 35.4499 105.525 36.0535V36.0535ZM104.507 36.0535C104.534 35.6472 104.487 35.2394 104.368 34.8505C104.332 34.7622 104.271 34.6866 104.193 34.6335C104.115 34.5803 104.023 34.5519 103.929 34.5519C103.835 34.5519 103.743 34.5803 103.665 34.6335C103.586 34.6866 103.526 34.7622 103.49 34.8505C103.371 35.2395 103.324 35.6472 103.351 36.0535C103.326 36.4559 103.372 36.8594 103.486 37.2456C103.519 37.3379 103.579 37.4174 103.658 37.4733C103.738 37.5292 103.832 37.5585 103.929 37.5572C104.023 37.5599 104.116 37.5327 104.195 37.4795C104.274 37.4263 104.334 37.3497 104.368 37.2601C104.487 36.87 104.534 36.461 104.507 36.0535V36.0535Z" fill="#5603AD"/>
<path d="M106.164 33.8215H107.235L108.366 36.597V33.8215H109.113V38.2856H108.249L106.91 35.0535V38.2856H106.16L106.164 33.8215Z" fill="#5603AD"/>
<path d="M109.909 33.8215H110.876V38.2856H109.909V33.8215Z" fill="#5603AD"/>
<path d="M113.846 36.6622L114.739 36.7166C114.727 37.1517 114.567 37.5691 114.286 37.8978C114.151 38.0487 113.985 38.1677 113.8 38.2466C113.615 38.3255 113.415 38.3623 113.215 38.3544C112.974 38.3671 112.735 38.3179 112.518 38.2115C112.302 38.1051 112.115 37.9448 111.976 37.7457C111.666 37.242 111.518 36.6534 111.551 36.0607C111.516 35.4649 111.663 34.8727 111.972 34.365C112.112 34.163 112.301 34.0007 112.52 33.8935C112.74 33.7863 112.982 33.7378 113.225 33.7526C114.142 33.7526 114.641 34.3287 114.725 35.481L113.843 35.5462C113.818 34.8831 113.614 34.5498 113.229 34.5498C113.127 34.552 113.027 34.5835 112.942 34.6406C112.857 34.6976 112.789 34.7779 112.747 34.8722C112.598 35.268 112.537 35.6925 112.568 36.1151C112.54 36.5008 112.596 36.8881 112.733 37.2492C112.776 37.3436 112.846 37.4231 112.934 37.4778C113.021 37.5325 113.123 37.5601 113.225 37.5572C113.579 37.5572 113.786 37.2601 113.846 36.6622Z" fill="#5603AD"/>
<path d="M117.998 34.7853L117.199 35.0969C117.084 34.7346 116.877 34.5425 116.574 34.5425C116.513 34.5396 116.452 34.5489 116.394 34.5701C116.336 34.5912 116.283 34.6237 116.238 34.6657C116.199 34.7023 116.168 34.7465 116.147 34.7957C116.125 34.845 116.114 34.8981 116.113 34.952C116.111 35.011 116.124 35.0695 116.149 35.1226C116.175 35.1756 116.213 35.2215 116.26 35.2563C116.453 35.377 116.659 35.4755 116.874 35.5498C117.106 35.6326 117.33 35.7394 117.541 35.8687C117.707 35.9747 117.843 36.1219 117.938 36.2963C118.041 36.4883 118.093 36.7045 118.088 36.9231C118.093 37.1149 118.058 37.3057 117.985 37.4826C117.911 37.6594 117.802 37.8183 117.663 37.9486C117.349 38.2254 116.942 38.3683 116.527 38.3472C116.169 38.3687 115.815 38.2558 115.534 38.03C115.252 37.8042 115.062 37.4812 115 37.1224L115.842 36.876C115.944 37.3253 116.182 37.55 116.556 37.55C116.703 37.5576 116.848 37.5099 116.963 37.4159C117.016 37.3727 117.058 37.3172 117.085 37.2541C117.112 37.1911 117.124 37.1223 117.12 37.0536C117.121 36.9461 117.082 36.8422 117.009 36.7637C116.864 36.6344 116.692 36.5402 116.506 36.4883C116.246 36.4 115.994 36.2897 115.753 36.1586C115.584 36.052 115.443 35.9053 115.342 35.731C115.233 35.5395 115.178 35.3216 115.182 35.1005C115.176 34.9185 115.207 34.7372 115.272 34.5677C115.338 34.3982 115.437 34.2442 115.564 34.115C115.698 33.9851 115.856 33.8841 116.03 33.8181C116.204 33.7521 116.389 33.7224 116.574 33.7309C116.897 33.6985 117.221 33.7881 117.484 33.9826C117.747 34.177 117.93 34.4627 117.998 34.7853V34.7853Z" fill="#5603AD"/>
<path d="M119.912 33.8215H120.879V36.3579C120.871 36.6102 120.888 36.8626 120.929 37.1116C120.954 37.2407 121.025 37.3557 121.129 37.4341C121.24 37.5088 121.371 37.5468 121.504 37.5428C121.642 37.5499 121.779 37.5076 121.889 37.4232C121.984 37.3404 122.046 37.226 122.064 37.1007C122.092 36.8541 122.102 36.606 122.097 36.3579V33.8215H122.903V36.3325C122.914 36.709 122.885 37.0855 122.818 37.4558C122.754 37.7142 122.599 37.9399 122.382 38.0899C122.099 38.2819 121.762 38.3748 121.422 38.3544C121.11 38.3699 120.799 38.3038 120.519 38.1624C120.306 38.0396 120.141 37.8465 120.051 37.6152C119.936 37.2118 119.889 36.7917 119.912 36.3724V33.8215Z" fill="#5603AD"/>
<path d="M126.427 34.7853L125.627 35.0969C125.513 34.7345 125.306 34.5425 125.002 34.5425C124.941 34.5396 124.88 34.5489 124.823 34.5701C124.765 34.5912 124.712 34.6237 124.667 34.6657C124.627 34.7017 124.596 34.7458 124.574 34.7952C124.553 34.8445 124.542 34.898 124.542 34.952C124.54 35.011 124.552 35.0695 124.578 35.1226C124.603 35.1756 124.641 35.2215 124.688 35.2563C124.881 35.3778 125.087 35.4763 125.302 35.5498C125.535 35.6333 125.758 35.7401 125.97 35.8687C126.135 35.975 126.27 36.1221 126.363 36.2963C126.466 36.4882 126.518 36.7044 126.513 36.9231C126.519 37.1147 126.484 37.3053 126.412 37.4822C126.339 37.6591 126.23 37.8181 126.091 37.9486C125.776 38.2247 125.368 38.3673 124.953 38.3471C124.594 38.3687 124.241 38.2558 123.959 38.03C123.677 37.8042 123.487 37.4812 123.425 37.1224L124.271 36.876C124.373 37.3253 124.611 37.55 124.985 37.55C125.132 37.5576 125.277 37.5099 125.392 37.4159C125.437 37.3776 125.474 37.3306 125.5 37.2775C125.527 37.2245 125.543 37.1665 125.548 37.107C125.552 37.0475 125.545 36.9878 125.526 36.9313C125.507 36.8748 125.477 36.8228 125.438 36.7782C125.293 36.6489 125.121 36.5547 124.935 36.5028C124.675 36.4145 124.423 36.3042 124.181 36.1731C124.011 36.0686 123.869 35.9213 123.771 35.7455C123.662 35.554 123.607 35.3361 123.61 35.115C123.604 34.933 123.635 34.7517 123.701 34.5822C123.767 34.4127 123.866 34.2586 123.992 34.1294C124.126 33.9992 124.285 33.898 124.458 33.832C124.632 33.7659 124.817 33.7365 125.002 33.7453C125.324 33.7132 125.646 33.8011 125.908 33.9925C126.17 34.184 126.355 34.4658 126.427 34.7853V34.7853Z" fill="#5603AD"/>
<path d="M127.109 33.8215H129.786V34.586H128.076V35.626H129.404V36.3905H128.076V37.4776H129.786V38.2747H127.109V33.8215Z" fill="#5603AD"/>
<path d="M130.258 33.8214H131.643C131.849 33.8188 132.056 33.8309 132.26 33.8577C132.417 33.8916 132.565 33.9609 132.692 34.0606C132.85 34.1759 132.973 34.3325 133.049 34.5135C133.128 34.715 133.166 34.9308 133.16 35.1476C133.18 35.3835 133.133 35.6203 133.023 35.8293C132.913 36.0383 132.746 36.2106 132.542 36.3252L133.349 38.2783H132.296L131.711 36.5137H131.225V38.2783H130.258V33.8214ZM131.225 34.5461V35.7962H131.65C132.028 35.7962 132.217 35.5824 132.217 35.1549C132.222 35.0289 132.193 34.904 132.135 34.7925C132.091 34.7094 132.022 34.6423 131.939 34.6005C131.834 34.5602 131.722 34.5429 131.611 34.5497L131.225 34.5461Z" fill="#5603AD"/>
<path d="M136.548 34.7853L135.748 35.0969C135.634 34.7346 135.427 34.5425 135.123 34.5425C134.999 34.5368 134.877 34.581 134.784 34.6657C134.746 34.7024 134.715 34.7468 134.694 34.796C134.673 34.8453 134.663 34.8984 134.663 34.952C134.661 35.011 134.673 35.0695 134.699 35.1226C134.724 35.1756 134.762 35.2215 134.809 35.2563C135.002 35.3786 135.208 35.4771 135.423 35.5498C135.655 35.6341 135.879 35.7408 136.091 35.8687C136.255 35.9759 136.39 36.1229 136.484 36.2963C136.587 36.4883 136.639 36.7044 136.633 36.9231C136.639 37.1149 136.604 37.3057 136.53 37.4826C136.457 37.6594 136.347 37.8183 136.209 37.9486C135.895 38.2254 135.488 38.3683 135.073 38.3472C134.715 38.3687 134.361 38.2558 134.08 38.03C133.798 37.8042 133.608 37.4812 133.545 37.1224L134.392 36.876C134.495 37.3253 134.731 37.55 135.106 37.55C135.254 37.5568 135.4 37.5092 135.516 37.4159C135.605 37.3375 135.66 37.2263 135.669 37.1068C135.678 36.9873 135.639 36.8691 135.562 36.7782C135.416 36.6506 135.245 36.5566 135.059 36.5028C134.799 36.4152 134.547 36.3049 134.306 36.1731C134.128 36.0736 133.979 35.9287 133.874 35.7528C133.765 35.5612 133.71 35.3433 133.713 35.1223C133.707 34.9402 133.738 34.7589 133.804 34.5895C133.87 34.42 133.969 34.2659 134.095 34.1367C134.229 34.0063 134.388 33.905 134.561 33.8389C134.735 33.7729 134.92 33.7435 135.106 33.7526C135.429 33.7155 135.754 33.8002 136.02 33.9906C136.286 34.1809 136.474 34.4637 136.548 34.7853Z" fill="#5603AD"/>
<path d="M138.461 33.8215H139.729C140.029 33.8115 140.329 33.8445 140.621 33.9193C140.847 33.9969 141.037 34.1553 141.157 34.365C141.307 34.6234 141.381 34.9201 141.371 35.2201C141.381 35.5002 141.321 35.7784 141.196 36.0282C141.091 36.2333 140.921 36.3967 140.714 36.492C140.411 36.6028 140.089 36.6509 139.768 36.6333H139.429V38.2856H138.461V33.8215ZM139.429 34.5462V35.8723H139.729C139.993 35.8723 140.16 35.8107 140.239 35.6876C140.32 35.5393 140.36 35.3714 140.353 35.202C140.361 35.0575 140.331 34.9134 140.264 34.7853C140.22 34.6961 140.147 34.6254 140.057 34.586C139.951 34.5532 139.84 34.5385 139.729 34.5425L139.429 34.5462Z" fill="#5603AD"/>
<path d="M141.835 33.8214H143.217C143.423 33.8185 143.629 33.8307 143.834 33.8577C143.993 33.891 144.141 33.9604 144.27 34.0606C144.427 34.176 144.55 34.3325 144.627 34.5135C144.712 34.7162 144.754 34.9346 144.752 35.1549C144.772 35.3912 144.724 35.6284 144.614 35.8375C144.503 36.0467 144.336 36.2187 144.13 36.3325L144.941 38.2855H143.87L143.281 36.5209H142.799V38.2855H141.835V33.8214ZM142.802 34.5461V35.7962H143.227C143.606 35.7962 143.795 35.5824 143.795 35.1549C143.799 35.0289 143.771 34.904 143.713 34.7925C143.668 34.7094 143.6 34.6423 143.516 34.6005C143.412 34.5602 143.3 34.5429 143.188 34.5497L142.802 34.5461Z" fill="#5603AD"/>
<path d="M148.443 36.0535C148.443 37.585 147.911 38.352 146.847 38.3544C146.615 38.3681 146.383 38.3214 146.174 38.2187C145.965 38.1159 145.785 37.9606 145.651 37.7674C145.351 37.25 145.21 36.6529 145.248 36.0535C145.248 34.522 145.78 33.755 146.844 33.7526C147.074 33.7396 147.303 33.7855 147.511 33.8862C147.719 33.9869 147.898 34.1391 148.032 34.3287C148.342 34.8468 148.485 35.4493 148.443 36.0535V36.0535ZM147.426 36.0535C147.453 35.6472 147.405 35.2394 147.286 34.8505C147.251 34.761 147.19 34.6844 147.112 34.6303C147.033 34.5763 146.94 34.5474 146.845 34.5474C146.751 34.5474 146.658 34.5763 146.579 34.6303C146.501 34.6844 146.44 34.761 146.405 34.8505C146.286 35.2395 146.239 35.6472 146.265 36.0535C146.24 36.4561 146.287 36.8601 146.405 37.2456C146.439 37.3354 146.499 37.4125 146.578 37.4669C146.656 37.5212 146.749 37.5503 146.844 37.5503C146.939 37.5503 147.031 37.5212 147.11 37.4669C147.188 37.4125 147.248 37.3354 147.283 37.2456C147.407 36.8614 147.46 36.4573 147.44 36.0535H147.426Z" fill="#5603AD"/>
<path d="M150.653 35.905H152.181V38.2856H151.77L151.645 37.7783C151.536 37.9644 151.378 38.1164 151.189 38.2179C151 38.3195 150.788 38.3667 150.574 38.3544C150.343 38.3604 150.113 38.3091 149.905 38.205C149.698 38.1008 149.518 37.9469 149.382 37.7565C149.068 37.2801 148.913 36.7132 148.943 36.1405C148.911 35.5282 149.063 34.9205 149.378 34.3976C149.519 34.1865 149.71 34.016 149.935 33.903C150.16 33.7899 150.41 33.7381 150.66 33.7526C151.56 33.7526 152.064 34.2635 152.174 35.2853L151.303 35.4267C151.242 34.8433 151.035 34.5498 150.678 34.5498C150.57 34.5508 150.464 34.5817 150.373 34.6392C150.281 34.6967 150.206 34.7785 150.157 34.8759C149.996 35.2625 149.93 35.6826 149.964 36.1006C149.934 36.4875 149.999 36.8759 150.153 37.2311C150.206 37.333 150.287 37.4175 150.385 37.4752C150.484 37.5329 150.596 37.5613 150.71 37.5573C151.103 37.5573 151.299 37.2638 151.303 36.6695H150.653V35.905Z" fill="#5603AD"/>
<path d="M152.941 33.8214H154.323C154.529 33.8185 154.736 33.8307 154.94 33.8577C155.099 33.891 155.248 33.9604 155.376 34.0606C155.533 34.176 155.656 34.3325 155.733 34.5135C155.818 34.7162 155.86 34.9346 155.858 35.1549C155.878 35.3912 155.83 35.6284 155.72 35.8375C155.61 36.0467 155.442 36.2187 155.237 36.3325L156.047 38.2855H154.994L154.405 36.5209H153.923V38.2855H152.955L152.941 33.8214ZM153.909 34.5461V35.7962H154.333C154.712 35.7962 154.901 35.5824 154.901 35.1549C154.906 35.0284 154.876 34.9031 154.815 34.7925C154.773 34.7089 154.706 34.6415 154.623 34.6005C154.518 34.5602 154.406 34.5429 154.294 34.5497L153.909 34.5461Z" fill="#5603AD"/>
<path d="M157.314 33.8215H158.289L159.546 38.2856H158.557L158.335 37.3652H157.097L156.882 38.2856H156.008L157.314 33.8215ZM158.15 36.597L157.711 34.7853L157.282 36.6152L158.15 36.597Z" fill="#5603AD"/>
<path d="M159.913 33.8215H161.341L161.962 36.5789L162.676 33.8215H164.055V38.2856H163.148V34.5462L162.248 38.2856H161.534L160.713 34.5462V38.2856H159.928L159.913 33.8215Z" fill="#5603AD"/>
<path d="M164.69 36.2347H166.004V36.9594H164.694L164.69 36.2347Z" fill="#5603AD"/>
<path d="M49.6689 41.8619H50.6328V46.326H49.6689V41.8619Z" fill="#5603AD"/>
<path d="M51.4646 41.8619H52.507C52.882 41.8485 53.2559 41.9113 53.6066 42.0467C53.9056 42.1843 54.1462 42.4259 54.2849 42.7279C54.4751 43.1488 54.5632 43.6097 54.5419 44.0722C54.5492 44.4409 54.4961 44.8082 54.3848 45.1593C54.3028 45.428 54.1639 45.6754 53.9779 45.884C53.8268 46.0557 53.6314 46.1812 53.4138 46.2463C53.1549 46.3132 52.8883 46.3436 52.6213 46.3369H51.4646V41.8619ZM52.4321 42.6265V45.5615H52.5963C52.7791 45.5729 52.9609 45.5273 53.1175 45.431C53.2594 45.3134 53.3618 45.1538 53.4102 44.9745C53.496 44.6684 53.5334 44.3504 53.5209 44.0324C53.5338 43.7338 53.4926 43.4354 53.3995 43.1519C53.3462 42.9829 53.2396 42.8365 53.0961 42.7352C52.9417 42.6551 52.7694 42.6176 52.5963 42.6265H52.4321Z" fill="#5603AD"/>
<path d="M55.1738 41.8619H57.8513V42.6265H56.1413V43.6628H57.4765V44.4273H56.1484V45.5144H57.8584V46.3115H55.181L55.1738 41.8619Z" fill="#5603AD"/>
<path d="M59.1009 41.8619H60.0755L61.3321 46.326H60.3325L60.1112 45.402H58.8724L58.6582 46.326H57.7693L59.1009 41.8619ZM59.9398 44.6375L59.4972 42.8258L59.0688 44.6375H59.9398Z" fill="#5603AD"/>
<path d="M62.4353 41.8619H65.1806V42.6989H64.281V46.3224H63.3135V42.6989H62.4353V41.8619Z" fill="#5603AD"/>
<path d="M68.6148 44.0903C68.6148 45.6267 68.0829 46.3949 67.019 46.3949C66.7869 46.4086 66.5552 46.3619 66.3459 46.2592C66.1366 46.1564 65.9566 46.0011 65.8231 45.8079C65.5221 45.2893 65.3816 44.6909 65.4197 44.0903C65.4197 42.5588 65.9516 41.7931 67.0155 41.7931C67.2453 41.78 67.4747 41.826 67.6825 41.9267C67.8903 42.0274 68.0697 42.1796 68.2043 42.3692C68.5133 42.886 68.6567 43.4873 68.6148 44.0903V44.0903ZM67.5974 44.0903C67.6243 43.6853 67.5771 43.2786 67.4581 42.891C67.4229 42.8015 67.3621 42.7248 67.2835 42.6708C67.2049 42.6168 67.1122 42.5879 67.0172 42.5879C66.9223 42.5879 66.8296 42.6168 66.751 42.6708C66.6724 42.7248 66.6116 42.8015 66.5764 42.891C66.4612 43.2794 66.4153 43.6855 66.4407 44.0903C66.4145 44.494 66.4604 44.8991 66.5764 45.2861C66.6108 45.3758 66.6711 45.453 66.7495 45.5073C66.8278 45.5617 66.9205 45.5908 67.0155 45.5908C67.1104 45.5908 67.2031 45.5617 67.2814 45.5073C67.3598 45.453 67.4201 45.3758 67.4546 45.2861C67.5757 44.9001 67.6242 44.4945 67.5974 44.0903Z" fill="#5603AD"/>
<path d="M70.5176 41.8619H71.485V46.326H70.5176V41.8619Z" fill="#5603AD"/>
<path d="M72.2814 41.8619H73.3524L74.4841 44.6339V41.8619H75.2302V46.326H74.3663L73.0275 43.0939V46.326H72.2778L72.2814 41.8619Z" fill="#5603AD"/>
<path d="M75.9905 41.8619H77.0615L78.1931 44.6339V41.8619H78.9393V46.326H78.0753L76.7544 43.0939V46.326H76.0048L75.9905 41.8619Z" fill="#5603AD"/>
<path d="M82.7735 44.0903C82.7735 45.6267 82.2416 46.3949 81.1777 46.3949C80.9456 46.4086 80.7139 46.3619 80.5046 46.2592C80.2953 46.1564 80.1153 46.0011 79.9818 45.8079C79.6808 45.2893 79.5403 44.6909 79.5784 44.0903C79.5784 42.5588 80.1103 41.7931 81.1742 41.7931C81.404 41.78 81.6334 41.826 81.8412 41.9267C82.049 42.0274 82.2284 42.1796 82.363 42.3692C82.672 42.886 82.8155 43.4873 82.7735 44.0903V44.0903ZM81.7561 44.0903C81.783 43.6853 81.7358 43.2786 81.6168 42.891C81.5816 42.8015 81.5208 42.7248 81.4422 42.6708C81.3636 42.6168 81.2709 42.5879 81.1759 42.5879C81.081 42.5879 80.9883 42.6168 80.9097 42.6708C80.8311 42.7248 80.7703 42.8015 80.735 42.891C80.5494 43.6782 80.5494 44.4988 80.735 45.2861C80.7666 45.3783 80.826 45.4581 80.9049 45.5141C80.9837 45.57 81.078 45.5993 81.1742 45.5977C81.2684 45.5993 81.3609 45.5717 81.4394 45.5187C81.5178 45.4656 81.5785 45.3895 81.6133 45.3006C81.7332 44.9094 81.7804 44.499 81.7525 44.0903H81.7561Z" fill="#5603AD"/>
<path d="M82.9412 41.8619H83.955L84.6298 45.2643L85.3437 41.8619H86.1755L85.1046 46.3478L84.0336 46.326L82.9412 41.8619Z" fill="#5603AD"/>
<path d="M87.2073 41.8619H88.1783L89.4349 46.326H88.446L88.2247 45.402H86.9859L86.7717 46.326H85.8828L87.2073 41.8619ZM88.0462 44.6375L87.6035 42.8258L87.1751 44.6375H88.0462Z" fill="#5603AD"/>
<path d="M89.1921 41.8619H91.9339V42.6989H91.0342V46.3224H90.0704V42.6989H89.1921V41.8619Z" fill="#5603AD"/>
<path d="M92.2695 41.8619H93.237V46.326H92.2695V41.8619Z" fill="#5603AD"/>
<path d="M97.1032 44.0903C97.1032 45.6267 96.5725 46.3949 95.511 46.3949C95.2789 46.4086 95.0472 46.3619 94.8379 46.2592C94.6285 46.1564 94.4486 46.0011 94.3151 45.8079C94.0125 45.29 93.8718 44.6911 93.9117 44.0903C93.9117 42.5588 94.4436 41.7931 95.5074 41.7931C95.7372 41.7807 95.9664 41.827 96.174 41.9276C96.3817 42.0282 96.5612 42.1801 96.6962 42.3692C97.0023 42.8871 97.1443 43.4879 97.1032 44.0903V44.0903ZM96.0858 44.0903C96.1127 43.6853 96.0655 43.2786 95.9465 42.891C95.9107 42.8026 95.8499 42.7271 95.7717 42.6739C95.6935 42.6208 95.6015 42.5924 95.5074 42.5924C95.4133 42.5924 95.3213 42.6208 95.2432 42.6739C95.165 42.7271 95.1041 42.8026 95.0683 42.891C94.9496 43.2787 94.9024 43.6853 94.9291 44.0903C94.9048 44.4939 94.9507 44.8987 95.0648 45.2861C95.1 45.3756 95.1608 45.4522 95.2394 45.5063C95.318 45.5603 95.4107 45.5891 95.5056 45.5891C95.6006 45.5891 95.6933 45.5603 95.7719 45.5063C95.8505 45.4522 95.9113 45.3756 95.9465 45.2861C96.0641 44.8994 96.1113 44.4942 96.0858 44.0903V44.0903Z" fill="#5603AD"/>
<path d="M97.7423 41.8619H98.8133L99.945 44.6339V41.8619H100.691V46.326H99.8272L98.4885 43.0939V46.326H97.7388L97.7423 41.8619Z" fill="#5603AD"/>
<path d="M16.0862 33.7526C16.6287 32.9406 16.9287 31.9869 16.9501 31.006C16.9812 29.8831 16.6498 28.7807 16.0065 27.8666C15.3632 26.9525 14.4432 26.2768 13.3866 25.9425C12.33 25.6081 11.1947 25.6334 10.1536 26.0145C9.11247 26.3955 8.22255 27.1115 7.61935 28.0533C7.01616 28.9952 6.73274 30.1113 6.81225 31.2317C6.89176 32.3521 7.32985 33.4155 8.05981 34.2599C8.78976 35.1043 9.77159 35.6834 10.8558 35.9091C11.94 36.1347 13.0671 35.9946 14.0656 35.51L16.461 38.0464L18.0211 35.789L16.0862 33.7526ZM11.8344 33.3359C11.3612 33.3258 10.9016 33.1737 10.5135 32.8987C10.1254 32.6238 9.82627 32.2383 9.65384 31.7909C9.48141 31.3435 9.44341 30.8544 9.54463 30.3851C9.64586 29.9158 9.88177 29.4875 10.2226 29.1542C10.5634 28.8209 10.9939 28.5976 11.4596 28.5123C11.9254 28.4271 12.4056 28.4838 12.8397 28.6753C13.2737 28.8669 13.6421 29.1846 13.8984 29.5884C14.1547 29.9923 14.2874 30.4641 14.2798 30.9444C14.2752 31.2648 14.2081 31.5811 14.0825 31.875C13.9568 32.169 13.7751 32.4348 13.5478 32.6571C13.3204 32.8794 13.052 33.0538 12.7579 33.1703C12.4639 33.2868 12.15 33.3431 11.8344 33.3359ZM16.0862 33.7707C16.6287 32.9587 16.9287 32.005 16.9501 31.0241C16.9851 29.9006 16.6572 28.7963 16.0163 27.8795C15.3754 26.9628 14.4567 26.2839 13.4003 25.9464C12.3439 25.6089 11.2077 25.6313 10.165 26.0102C9.12232 26.3891 8.23031 27.1038 7.625 28.0451C7.01969 28.9864 6.73428 30.1029 6.81228 31.2242C6.89029 32.3455 7.32743 33.4102 8.05707 34.2558C8.7867 35.1015 9.76879 35.6818 10.8536 35.9082C11.9384 36.1347 13.0664 35.9948 14.0656 35.51L16.461 38.0464L18.0211 35.789L16.0862 33.7707ZM11.8344 33.3359C11.3612 33.3258 10.9016 33.1737 10.5135 32.8987C10.1254 32.6238 9.82627 32.2383 9.65384 31.7909C9.48141 31.3435 9.44341 30.8544 9.54463 30.3851C9.64586 29.9158 9.88177 29.4875 10.2226 29.1542C10.5634 28.8209 10.9939 28.5976 11.4596 28.5123C11.9254 28.4271 12.4056 28.4838 12.8397 28.6753C13.2737 28.8669 13.6421 29.1846 13.8984 29.5884C14.1547 29.9923 14.2874 30.4641 14.2798 30.9444C14.2752 31.2648 14.2081 31.5811 14.0825 31.875C13.9568 32.169 13.7751 32.4348 13.5478 32.6571C13.3204 32.8794 13.052 33.0538 12.7579 33.1703C12.4639 33.2868 12.15 33.3431 11.8344 33.3359ZM16.0862 33.7707C16.6287 32.9587 16.9287 32.005 16.9501 31.0241C16.9851 29.9006 16.6572 28.7963 16.0163 27.8795C15.3754 26.9628 14.4567 26.2839 13.4003 25.9464C12.3439 25.6089 11.2077 25.6313 10.165 26.0102C9.12232 26.3891 8.23031 27.1038 7.625 28.0451C7.01969 28.9864 6.73428 30.1029 6.81228 31.2242C6.89029 32.3455 7.32743 33.4102 8.05707 34.2558C8.7867 35.1015 9.76879 35.6818 10.8536 35.9082C11.9384 36.1347 13.0664 35.9948 14.0656 35.51L16.461 38.0464L18.0211 35.789L16.0862 33.7707ZM11.8344 33.3359C11.3612 33.3258 10.9016 33.1737 10.5135 32.8987C10.1254 32.6238 9.82627 32.2383 9.65384 31.7909C9.48141 31.3435 9.44341 30.8544 9.54463 30.3851C9.64586 29.9158 9.88177 29.4875 10.2226 29.1542C10.5634 28.8209 10.9939 28.5976 11.4596 28.5123C11.9254 28.4271 12.4056 28.4838 12.8397 28.6753C13.2737 28.8669 13.6421 29.1846 13.8984 29.5884C14.1547 29.9923 14.2874 30.4641 14.2798 30.9444C14.2752 31.2648 14.2081 31.5811 14.0825 31.875C13.9568 32.169 13.7751 32.4348 13.5478 32.6571C13.3204 32.8794 13.052 33.0538 12.7579 33.1703C12.4639 33.2868 12.15 33.3431 11.8344 33.3359ZM44.9423 16.0882C44.9963 13.4676 44.3249 10.8842 43.0044 8.63171C41.6838 6.37917 39.7671 4.54788 37.4721 3.34602C35.1772 2.14415 32.596 1.61994 30.0221 1.83297C27.4482 2.046 24.9848 2.98773 22.912 4.55109V4.55109C20.3087 2.37129 17.008 1.23661 13.6354 1.36212C10.2629 1.48764 7.05292 2.86462 4.61391 5.23208C2.17491 7.59953 0.676381 10.7929 0.402365 14.207C0.128348 17.6211 1.09788 21.0185 3.12721 23.7555C0.984486 26.3987 -0.129453 29.7473 -0.00385545 33.1679C0.121742 36.5885 1.47816 39.8437 3.80878 42.3177C6.1394 44.7917 9.28257 46.3129 12.6436 46.5935C16.0047 46.8741 19.3505 45.8946 22.048 43.8403C24.3242 45.7374 27.1422 46.839 30.084 46.9819C30.2126 46.9819 30.3447 47 30.4767 47.0036C33.0599 47.0612 35.607 46.3808 37.8276 45.0401C40.0482 43.6994 41.8529 41.7523 43.036 39.4209C44.2192 37.0895 44.733 34.4676 44.519 31.8541C44.305 29.2406 43.3717 26.7408 41.8257 24.6396C43.783 22.2263 44.8811 19.2134 44.9423 16.0882V16.0882ZM3.05224 15.128C3.09754 13.0494 3.7076 11.0239 4.81513 9.27492C5.92265 7.52593 7.4846 6.1214 9.3287 5.21627C11.1728 4.31114 13.2274 3.94058 15.2658 4.14545C17.3042 4.35033 19.2473 5.12268 20.8807 6.37732L13.6408 13.4068L4.99787 21.7734C3.67522 19.8219 2.99423 17.4959 3.05224 15.128V15.128ZM13.5372 43.9019C11.3389 43.8505 9.20488 43.1389 7.40478 41.8571C5.60468 40.5753 4.21925 38.7807 3.42351 36.7001C2.62777 34.6194 2.45742 32.3461 2.93397 30.1673C3.41053 27.9884 4.51261 26.0018 6.10099 24.4584L15.3829 15.4577L22.8263 8.23616L29.5843 15.4106C29.0931 16.1951 28.8227 17.1011 28.8024 18.0304C28.777 19.1564 29.1165 20.2598 29.7688 21.171C30.4212 22.0821 31.3503 22.7507 32.4133 23.0739C33.4763 23.3971 34.6145 23.357 35.653 22.9599C36.6914 22.5628 37.5727 21.8305 38.1613 20.8757C38.7499 19.9209 39.0134 18.7963 38.9111 17.6748C38.8089 16.5532 38.3467 15.4968 37.5955 14.6677C36.8443 13.8387 35.8456 13.283 34.753 13.086C33.6604 12.8889 32.5343 13.0615 31.5477 13.5771L24.8576 6.4679C26.4945 5.3248 28.4049 4.65131 30.3875 4.51848C30.7294 4.48984 31.0727 4.48137 31.4156 4.49311C33.6101 4.54749 35.7397 5.26008 37.5358 6.54104C39.3318 7.82201 40.7141 9.61402 41.5082 11.6912C42.3024 13.7683 42.4729 16.0376 41.9983 18.2129C41.5236 20.3883 40.4251 22.3723 38.8412 23.9149L22.1337 40.1517L18.9208 36.7637L16.0826 33.7526C16.6252 32.9406 16.9252 31.9869 16.9466 31.006C16.9772 29.883 16.6454 28.7806 16.0017 27.8667C15.358 26.9528 14.4376 26.2775 13.3808 25.9436C12.324 25.6097 11.1886 25.6355 10.1475 26.0171C9.10651 26.3987 8.21689 27.1153 7.61417 28.0575C7.01145 28.9998 6.72865 30.1162 6.80886 31.2367C6.88907 32.3571 7.32788 33.4203 8.05846 34.2643C8.78904 35.1082 9.77136 35.6867 10.8558 35.9116C11.9403 36.1365 13.0674 35.9954 14.0656 35.51L16.461 38.0464L20.081 41.8982C18.1642 43.2534 15.8726 43.9551 13.5372 43.9019V43.9019ZM31.4728 18.092C31.4835 17.611 31.6346 17.144 31.907 16.7502C32.1793 16.3564 32.5606 16.0535 33.0026 15.8798C33.4447 15.7061 33.9276 15.6694 34.3902 15.7743C34.8528 15.8793 35.2743 16.1212 35.6014 16.4694C35.9285 16.8176 36.1464 17.2565 36.2276 17.7306C36.3088 18.2046 36.2497 18.6924 36.0576 19.1322C35.8655 19.5721 35.5492 19.9442 35.1487 20.2015C34.7481 20.4588 34.2814 20.5898 33.8075 20.5777C33.1734 20.5615 32.5715 20.2908 32.1338 19.8248C31.6961 19.3588 31.4584 18.7356 31.4728 18.092V18.092ZM14.2798 30.9444C14.2677 31.4241 14.1158 31.8893 13.8434 32.2814C13.571 32.6735 13.1902 32.9749 12.7491 33.1474C12.308 33.32 11.8265 33.3561 11.3652 33.2511C10.904 33.1461 10.4837 32.9047 10.1575 32.5575C9.83136 32.2102 9.61385 31.7727 9.5325 31.3C9.45115 30.8274 9.50961 30.3409 9.70048 29.902C9.89135 29.463 10.2061 29.0913 10.6049 28.8338C11.0038 28.5763 11.4689 28.4445 11.9415 28.4551C12.2561 28.4626 12.5661 28.533 12.8539 28.6622C13.1417 28.7914 13.4016 28.9769 13.6188 29.208C13.8359 29.4392 14.0061 29.7115 14.1195 30.0095C14.2329 30.3074 14.2874 30.6251 14.2798 30.9444V30.9444ZM41.8899 33.2634C41.8579 34.7452 41.5386 36.2059 40.9501 37.5623C40.3616 38.9187 39.5156 40.1441 38.4603 41.1684C37.405 42.1927 36.1611 42.996 34.7999 43.5321C33.4386 44.0683 31.9865 44.327 30.5267 44.2933C30.3911 44.2933 30.2625 44.2933 30.134 44.2715C27.9335 44.1521 25.8191 43.3644 24.0651 42.0105L39.9372 26.6108C41.2638 28.5634 41.9474 30.8922 41.8899 33.2634V33.2634ZM16.0862 33.7526C16.6287 32.9406 16.9287 31.9869 16.9501 31.006C16.9812 29.8831 16.6498 28.7807 16.0065 27.8666C15.3632 26.9525 14.4432 26.2768 13.3866 25.9425C12.33 25.6081 11.1947 25.6334 10.1536 26.0145C9.11247 26.3955 8.22255 27.1115 7.61935 28.0533C7.01616 28.9952 6.73274 30.1113 6.81225 31.2317C6.89176 32.3521 7.32985 33.4155 8.05981 34.2599C8.78976 35.1043 9.77159 35.6834 10.8558 35.9091C11.94 36.1347 13.0671 35.9946 14.0656 35.51L16.461 38.0464L18.0211 35.789L16.0862 33.7526ZM11.8344 33.3359C11.3612 33.3258 10.9016 33.1737 10.5135 32.8987C10.1254 32.6238 9.82627 32.2383 9.65384 31.7909C9.48141 31.3435 9.44341 30.8544 9.54463 30.3851C9.64586 29.9158 9.88177 29.4875 10.2226 29.1542C10.5634 28.8209 10.9939 28.5976 11.4596 28.5123C11.9254 28.4271 12.4056 28.4838 12.8397 28.6753C13.2737 28.8669 13.6421 29.1846 13.8984 29.5884C14.1547 29.9923 14.2874 30.4641 14.2798 30.9444C14.2752 31.2648 14.2081 31.5811 14.0825 31.875C13.9568 32.169 13.7751 32.4348 13.5478 32.6571C13.3204 32.8794 13.052 33.0538 12.7579 33.1703C12.4639 33.2868 12.15 33.3431 11.8344 33.3359Z" fill="#5603AD"/>
<path d="M18.1034 24.9512L18.389 28.1725C18.3996 28.283 18.4506 28.3855 18.5318 28.4599C18.613 28.5343 18.7187 28.5752 18.8281 28.5747H24.2187C24.3275 28.5743 24.4323 28.533 24.5128 28.4586C24.5932 28.3843 24.6436 28.2824 24.6543 28.1725L24.9399 24.9512C26.0749 24.203 26.9413 23.1024 27.4097 21.8136C27.8782 20.5248 27.9236 19.1168 27.5392 17.7996C27.1547 16.4825 26.3611 15.3268 25.2767 14.5048C24.1922 13.6829 22.8751 13.2388 21.5216 13.2388C20.1682 13.2388 18.851 13.6829 17.7665 14.5048C16.6821 15.3268 15.8885 16.4825 15.5041 17.7996C15.1197 19.1168 15.1651 20.5248 15.6335 21.8136C16.1019 23.1024 16.9683 24.203 18.1034 24.9512V24.9512ZM21.5234 14.1315C22.7046 14.1334 23.8526 14.5279 24.7919 15.2548C25.7313 15.9816 26.4101 17.0008 26.7247 18.1564C27.0393 19.3119 26.9723 20.5403 26.5339 21.6535C26.0955 22.7668 25.3099 23.7036 24.2973 24.3207C24.2377 24.3561 24.1875 24.4055 24.1508 24.4648C24.1142 24.5241 24.0921 24.5915 24.0866 24.6613L23.8153 27.6978H21.9625V23.8678C22.3842 23.7592 22.7523 23.4979 22.9976 23.1332C23.2429 22.7685 23.3485 22.3254 23.2946 21.8872C23.2407 21.449 23.0309 21.0458 22.7048 20.7536C22.3786 20.4613 21.9585 20.3 21.5234 20.3C21.0883 20.3 20.6682 20.4613 20.342 20.7536C20.0159 21.0458 19.8061 21.449 19.7522 21.8872C19.6982 22.3254 19.8039 22.7685 20.0492 23.1332C20.2945 23.4979 20.6626 23.7592 21.0843 23.8678V27.6869H19.2279L18.9602 24.6396C18.9533 24.5702 18.9307 24.5033 18.8941 24.4443C18.8576 24.3852 18.8081 24.3355 18.7495 24.299C17.7471 23.6775 16.9714 22.7415 16.5399 21.6326C16.1083 20.5237 16.0445 19.3023 16.358 18.1533C16.6714 17.0043 17.3452 15.9902 18.2772 15.2645C19.2092 14.5389 20.3488 14.1411 21.5234 14.1315V14.1315ZM21.5234 23.0416C21.3459 23.0424 21.1721 22.9895 21.0242 22.8899C20.8763 22.7902 20.7609 22.6482 20.6927 22.4819C20.6244 22.3155 20.6064 22.1324 20.6408 21.9556C20.6753 21.7788 20.7607 21.6165 20.8862 21.4891C21.0118 21.3616 21.1717 21.2749 21.3459 21.24C21.52 21.205 21.7005 21.2233 21.8644 21.2926C22.0283 21.3619 22.1682 21.479 22.2664 21.6291C22.3646 21.7792 22.4166 21.9556 22.4159 22.1358V22.1358C22.4131 22.3741 22.3178 22.6018 22.1507 22.7693C21.9837 22.9368 21.7583 23.0308 21.5234 23.0308V23.0416Z" fill="#F6A653"/>
<path d="M24.2188 28.937H18.8281C18.6303 28.9389 18.4388 28.8656 18.2915 28.7315C18.1442 28.5974 18.0516 28.4122 18.032 28.2123L17.7643 25.165C16.5978 24.3511 15.7183 23.1798 15.2546 21.8223C14.791 20.4648 14.7673 18.9924 15.1871 17.6202C15.6069 16.2481 16.4482 15.0483 17.588 14.1962C18.7277 13.3442 20.1061 12.8845 21.5217 12.8845C22.9372 12.8845 24.3156 13.3442 25.4554 14.1962C26.5951 15.0483 27.4364 16.2481 27.8562 17.6202C28.2761 18.9924 28.2524 20.4648 27.7887 21.8223C27.325 23.1798 26.4456 24.3511 25.2791 25.165L25.0113 28.2087C24.9926 28.4086 24.9009 28.5942 24.7543 28.7289C24.6076 28.8637 24.4166 28.9379 24.2188 28.937ZM21.5235 13.5916C20.2479 13.5962 19.0079 14.0184 17.9877 14.7955C16.9675 15.5726 16.2215 16.663 15.8606 17.9047C15.4997 19.1465 15.5432 20.4733 15.9845 21.6879C16.4259 22.9026 17.2416 23.9403 18.3105 24.6468L18.4569 24.7447L18.7567 28.1399C18.7593 28.16 18.7691 28.1785 18.7843 28.1919C18.7994 28.2052 18.8188 28.2125 18.8388 28.2123H24.2295C24.2495 28.2125 24.269 28.2052 24.2841 28.1919C24.2992 28.1785 24.309 28.16 24.3116 28.1399L24.6115 24.7447L24.7543 24.6468C25.8231 23.9403 26.6388 22.9026 27.0802 21.6879C27.5216 20.4733 27.5651 19.1465 27.2042 17.9047C26.8433 16.663 26.0973 15.5726 25.0771 14.7955C24.0568 14.0184 22.8168 13.5962 21.5413 13.5916H21.5235ZM24.1438 28.0493H21.6056V23.5851L21.8733 23.5163C22.2098 23.4281 22.5031 23.2184 22.6982 22.9264C22.8933 22.6344 22.9767 22.2803 22.9329 21.9303C22.8891 21.5804 22.7211 21.2586 22.4603 21.0254C22.1995 20.7922 21.8639 20.6636 21.5163 20.6636C21.1688 20.6636 20.8331 20.7922 20.5723 21.0254C20.3115 21.2586 20.1435 21.5804 20.0997 21.9303C20.0559 22.2803 20.1394 22.6344 20.3344 22.9264C20.5295 23.2184 20.8228 23.4281 21.1593 23.5163L21.4271 23.5851V28.0493H18.8995L18.6032 24.6831C18.5953 24.6645 18.5815 24.6492 18.564 24.6396C17.483 23.9828 16.6441 22.9843 16.1759 21.7972C15.7076 20.6102 15.6358 19.3 15.9715 18.0675C16.3072 16.835 17.0318 15.7483 18.0343 14.9739C19.0368 14.1995 20.2619 13.7802 21.5217 13.7802C22.7815 13.7802 24.0065 14.1995 25.009 14.9739C26.0115 15.7483 26.7362 16.835 27.0719 18.0675C27.4075 19.3 27.3357 20.6102 26.8675 21.7972C26.3992 22.9843 25.5603 23.9828 24.4794 24.6396C24.469 24.6465 24.4601 24.6556 24.4533 24.6662C24.4466 24.6768 24.4421 24.6887 24.4401 24.7012L24.1438 28.0493ZM22.3196 27.3246H23.4905L23.7297 24.6178C23.7412 24.4914 23.7817 24.3695 23.8481 24.2619C23.9144 24.1543 24.0047 24.064 24.1117 23.9982C25.0577 23.4231 25.7919 22.549 26.2016 21.5099C26.6113 20.4708 26.674 19.3239 26.3801 18.2452C26.0862 17.1664 25.4518 16.2152 24.5743 15.5374C23.6967 14.8596 22.6244 14.4926 21.5217 14.4926C20.4189 14.4926 19.3466 14.8596 18.4691 15.5374C17.5915 16.2152 16.9572 17.1664 16.6632 18.2452C16.3693 19.3239 16.432 20.4708 16.8417 21.5099C17.2515 22.549 17.9856 23.4231 18.9317 23.9982C19.0386 24.064 19.1289 24.1543 19.1953 24.2619C19.2616 24.3695 19.3021 24.4914 19.3136 24.6178L19.5528 27.3246H20.7274V24.1287C20.2653 23.9409 19.882 23.5957 19.6435 23.1522C19.4049 22.7088 19.326 22.195 19.4202 21.6989C19.5144 21.2028 19.7759 20.7555 20.1597 20.4339C20.5435 20.1122 21.0257 19.9362 21.5235 19.9362C22.0212 19.9362 22.5034 20.1122 22.8872 20.4339C23.2711 20.7555 23.5325 21.2028 23.6267 21.6989C23.7209 22.195 23.642 22.7088 23.4034 23.1522C23.1649 23.5957 22.7817 23.9409 22.3196 24.1287V27.3246ZM21.5235 23.3931C21.2753 23.3938 21.0326 23.3197 20.826 23.1803C20.6193 23.0408 20.4582 22.8422 20.3629 22.6097C20.2676 22.3771 20.2425 22.1211 20.2907 21.874C20.339 21.627 20.4584 21.4 20.6338 21.222C20.8093 21.0439 21.0329 20.9227 21.2763 20.8737C21.5197 20.8247 21.772 20.8502 22.0011 20.9469C22.2302 21.0437 22.4258 21.2072 22.5633 21.4169C22.7007 21.6266 22.7737 21.873 22.7729 22.1249C22.772 22.461 22.6401 22.783 22.4059 23.0206C22.1718 23.2582 21.8546 23.3922 21.5235 23.3931ZM21.5235 21.5814C21.4479 21.5725 21.3714 21.58 21.299 21.6032C21.2265 21.6265 21.1597 21.6651 21.1029 21.7164C21.0462 21.7677 21.0007 21.8306 20.9696 21.901C20.9385 21.9715 20.9225 22.0477 20.9225 22.1249C20.9225 22.2021 20.9385 22.2783 20.9696 22.3487C21.0007 22.4191 21.0462 22.4821 21.1029 22.5334C21.1597 22.5847 21.2265 22.6233 21.299 22.6466C21.3714 22.6698 21.4479 22.6773 21.5235 22.6684C21.6548 22.653 21.776 22.5891 21.864 22.4889C21.952 22.3887 22.0006 22.2591 22.0006 22.1249C22.0006 21.9907 21.952 21.8611 21.864 21.7609C21.776 21.6607 21.6548 21.5968 21.5235 21.5814Z" fill="#5603AD"/>
<path d="M24.3152 30.3175C24.3152 30.259 24.3038 30.2011 24.2818 30.147C24.2597 30.0929 24.2274 30.0438 24.1866 30.0024C24.1458 29.961 24.0974 29.9282 24.0441 29.9058C23.9909 29.8834 23.9338 29.8719 23.8761 29.8719H19.0888C18.9723 29.8719 18.8606 29.9188 18.7783 30.0024C18.6959 30.086 18.6497 30.1993 18.6497 30.3175C18.6497 30.4357 18.6959 30.5491 18.7783 30.6327C18.8606 30.7163 18.9723 30.7632 19.0888 30.7632H23.8761C23.9338 30.7632 23.9909 30.7517 24.0441 30.7293C24.0974 30.7069 24.1458 30.6741 24.1866 30.6327C24.2274 30.5913 24.2597 30.5422 24.2818 30.4881C24.3038 30.434 24.3152 30.3761 24.3152 30.3175V30.3175Z" fill="#F6A653"/>
<path d="M23.8762 31.1256H19.0888C18.9843 31.1256 18.8808 31.1047 18.7842 31.0641C18.6876 31.0235 18.5998 30.964 18.5259 30.8889C18.452 30.8139 18.3933 30.7248 18.3533 30.6268C18.3133 30.5287 18.2927 30.4237 18.2927 30.3176C18.2927 30.2114 18.3133 30.1064 18.3533 30.0083C18.3933 29.9103 18.452 29.8212 18.5259 29.7462C18.5998 29.6712 18.6876 29.6116 18.7842 29.571C18.8808 29.5304 18.9843 29.5095 19.0888 29.5095H23.8762C23.9807 29.5095 24.0842 29.5304 24.1808 29.571C24.2774 29.6116 24.3652 29.6712 24.4391 29.7462C24.513 29.8212 24.5716 29.9103 24.6117 30.0083C24.6517 30.1064 24.6723 30.2114 24.6723 30.3176C24.6723 30.4237 24.6517 30.5287 24.6117 30.6268C24.5716 30.7248 24.513 30.8139 24.4391 30.8889C24.3652 30.964 24.2774 31.0235 24.1808 31.0641C24.0842 31.1047 23.9807 31.1256 23.8762 31.1256ZM19.0888 30.2342C19.078 30.2342 19.0674 30.2364 19.0574 30.2406C19.0474 30.2447 19.0384 30.2509 19.0308 30.2586C19.0231 30.2664 19.0171 30.2756 19.013 30.2857C19.0088 30.2958 19.0067 30.3066 19.0067 30.3176C19.0076 30.3394 19.0165 30.3601 19.0317 30.3755C19.047 30.3909 19.0673 30.4 19.0888 30.4009H23.8762C23.8976 30.4 23.918 30.3909 23.9332 30.3755C23.9485 30.3601 23.9574 30.3394 23.9583 30.3176C23.9583 30.3066 23.9561 30.2958 23.952 30.2857C23.9479 30.2756 23.9418 30.2664 23.9342 30.2586C23.9266 30.2509 23.9175 30.2447 23.9076 30.2406C23.8976 30.2364 23.8869 30.2342 23.8762 30.2342H19.0888Z" fill="#5603AD"/>
<path d="M19.6886 31.9771C19.5722 31.9771 19.4605 32.0241 19.3781 32.1077C19.2958 32.1912 19.2495 32.3046 19.2495 32.4228C19.2495 32.541 19.2958 32.6544 19.3781 32.7379C19.4605 32.8215 19.5722 32.8685 19.6886 32.8685H23.3157C23.3734 32.8685 23.4305 32.857 23.4837 32.8346C23.537 32.8122 23.5854 32.7793 23.6262 32.7379C23.667 32.6966 23.6993 32.6474 23.7214 32.5934C23.7435 32.5393 23.7548 32.4813 23.7548 32.4228C23.7548 32.3643 23.7435 32.3063 23.7214 32.2522C23.6993 32.1982 23.667 32.149 23.6262 32.1077C23.5854 32.0663 23.537 32.0334 23.4837 32.011C23.4305 31.9886 23.3734 31.9771 23.3157 31.9771H19.6886Z" fill="#F6A653"/>
<path d="M23.3155 33.2308H19.6884C19.5839 33.2308 19.4804 33.2099 19.3838 33.1693C19.2872 33.1287 19.1994 33.0692 19.1255 32.9941C19.0516 32.9191 18.9929 32.83 18.9529 32.732C18.9129 32.634 18.8923 32.5289 18.8923 32.4228C18.8923 32.3167 18.9129 32.2116 18.9529 32.1136C18.9929 32.0155 19.0516 31.9264 19.1255 31.8514C19.1994 31.7764 19.2872 31.7169 19.3838 31.6763C19.4804 31.6356 19.5839 31.6147 19.6884 31.6147H23.3155C23.5267 31.6147 23.7292 31.6999 23.8785 31.8514C24.0278 32.003 24.1116 32.2085 24.1116 32.4228C24.1116 32.6371 24.0278 32.8426 23.8785 32.9941C23.7292 33.1457 23.5267 33.2308 23.3155 33.2308V33.2308ZM19.6884 32.3394C19.6667 32.3394 19.6458 32.3482 19.6304 32.3639C19.615 32.3795 19.6063 32.4007 19.6063 32.4228C19.6063 32.4449 19.615 32.4661 19.6304 32.4817C19.6458 32.4973 19.6667 32.5061 19.6884 32.5061H23.3155C23.3373 32.5061 23.3582 32.4973 23.3736 32.4817C23.389 32.4661 23.3976 32.4449 23.3976 32.4228C23.3976 32.4007 23.389 32.3795 23.3736 32.3639C23.3582 32.3482 23.3373 32.3394 23.3155 32.3394H19.6884Z" fill="#5603AD"/>
</g>
<defs>
<clipPath id="clip0_601:237">
<rect width="166" height="47" fill="white"/>
</clipPath>
</defs>
</svg>
